<svg width="23" height="34" viewBox="0 0 23 34" fill="none" xmlns="http://www.w3.org/2000/svg">
<g clip-path="url(#clip0_269_4638)">
<path d="M13.62 33.495H9.29004V29.165H13.62V33.495Z" fill="white"/>
<path d="M17.9501 29.165H13.6201V24.835H17.9501V29.165Z" fill="white"/>
<path d="M22.37 24.825H18.04V20.4949H22.37V24.825Z" fill="white"/>
<path d="M9.24992 29.165H4.91992V24.835H9.24992V29.165Z" fill="white"/>
<path d="M4.83 24.825H0.5V20.4949H4.83V24.825Z" fill="white"/>
<path d="M13.62 13.495H9.29004V9.165H13.62V13.495Z" fill="white"/>
<path d="M17.9501 9.16504H13.6201V4.83504H17.9501V9.16504Z" fill="white"/>
<path d="M22.37 4.83496H18.04V0.504963H22.37V4.83496Z" fill="white"/>
<path d="M9.24992 9.16504H4.91992V4.83504H9.24992V9.16504Z" fill="white"/>
<path d="M4.83 4.83496H0.5V0.504963H4.83V4.83496Z" fill="white"/>
</g>
<defs>
<clipPath id="clip0_269_4638">
<rect width="21.87" height="32.99" fill="white" transform="matrix(1 0 0 -1 0.5 33.495)"/>
</clipPath>
</defs>
</svg>
