<svg width="260" height="134" viewBox="0 0 260 134" fill="none" xmlns="http://www.w3.org/2000/svg">
<g clip-path="url(#clip0_423_15663)">
<path d="M85.2008 10.2781V5.88778H83.7116C83.6881 5.92698 83.6567 5.97402 83.6332 6.01322C82.771 7.14217 81.752 8.27896 80.7409 9.40791L80.012 8.80424C80.9447 7.73017 81.8931 6.67178 82.6926 5.60555C82.9278 5.29979 83.0297 4.93915 83.0297 4.45308V2.94781H80.3177V1.99918H84.08V4.41388C84.08 4.58636 84.0721 4.76667 84.0486 4.91563H85.2008V1.64638H86.259V10.2781H85.2008ZM87.3407 10.529V1.54446H88.4066V10.5369H87.3407V10.529Z" fill="white"/>
<path d="M91.7536 6.24058C90.1781 6.24058 89.0259 5.26059 89.0259 3.85724C89.0259 2.4539 90.1781 1.47391 91.7536 1.47391C93.329 1.47391 94.4812 2.4539 94.4812 3.85724C94.4812 5.26059 93.329 6.24058 91.7536 6.24058ZM90.0292 10.4585V6.9697H96.9189V10.4585H90.0292ZM91.7536 2.4147C90.7581 2.4147 90.0997 2.97917 90.0997 3.85724C90.0997 4.73532 90.7581 5.29979 91.7536 5.29979C92.749 5.29979 93.4074 4.73532 93.4074 3.85724C93.4074 2.97917 92.749 2.4147 91.7536 2.4147ZM95.8529 7.91833H91.103V9.50983H95.8529V7.91833ZM95.8529 6.52282V1.54447H96.9189V6.52282H95.8529Z" fill="white"/>
<path d="M97.7026 6.53066V5.58203H106.568V6.53066H97.7026ZM100.438 4.93915C99.184 4.93915 98.3062 4.24924 98.3062 3.22221C98.3062 2.19518 99.184 1.51311 100.438 1.51311H103.832C105.086 1.51311 105.964 2.19518 105.964 3.22221C105.964 4.24924 105.086 4.93915 103.832 4.93915H100.438ZM98.5413 10.4585V7.35385H105.713V10.4585H98.5413ZM100.524 2.4147C99.7719 2.4147 99.3722 2.71262 99.3722 3.21437C99.3722 3.71613 99.7719 4.02972 100.524 4.02972H103.73C104.483 4.02972 104.882 3.72397 104.882 3.21437C104.882 2.70478 104.483 2.4147 103.73 2.4147H100.524ZM104.639 8.25544H99.6073V9.54903H104.639V8.25544Z" fill="white"/>
<path d="M109.35 6.42091C107.775 6.42091 106.67 5.3782 106.67 3.97485C106.67 2.5715 107.783 1.52879 109.35 1.52879C110.918 1.52879 112.031 2.5715 112.031 3.97485C112.031 5.3782 110.918 6.42091 109.35 6.42091ZM113.379 10.5604V8.12217H107.618V7.17354H114.445V10.5604H113.371H113.379ZM109.35 2.44606C108.371 2.44606 107.736 3.07326 107.736 3.96701C107.736 4.86076 108.371 5.48796 109.35 5.48796C110.33 5.48796 110.965 4.86076 110.965 3.96701C110.965 3.07326 110.33 2.44606 109.35 2.44606ZM113.379 6.72666V1.54447H114.453V3.49661H115.66V4.46093H114.453V6.72666H113.379Z" fill="white"/>
<path d="M121.891 2.72046H118.207V1.77183H122.957V3.73965C122.957 4.46092 122.73 4.79804 122.08 5.08027C120.888 5.59771 119.477 6.15434 118.184 6.63258L117.769 5.80939C119.023 5.32331 120.426 4.78236 121.46 4.29628C121.766 4.15516 121.884 3.99052 121.884 3.56717V2.72046H121.891ZM120.896 10.5212C119.611 10.5212 118.686 9.79991 118.686 8.6788C118.686 7.55769 119.611 6.83642 120.896 6.83642H123.835C125.121 6.83642 126.046 7.55769 126.046 8.6788C126.046 9.79991 125.121 10.5212 123.835 10.5212H120.896ZM120.959 7.78505C120.245 7.78505 119.752 8.09081 119.752 8.6788C119.752 9.26679 120.245 9.57255 120.959 9.57255H123.773C124.486 9.57255 124.98 9.26679 124.98 8.6788C124.98 8.09081 124.486 7.78505 123.773 7.78505H120.959ZM124.745 6.55418V5.55851H122.942V4.62556H124.745V3.46525H123.365V2.5323H124.745V1.55231H125.811V6.56202H124.745V6.55418Z" fill="white"/>
<path d="M133.688 8.10648V5.80154H131.587C131.101 6.32682 130.396 6.6561 129.549 6.6561C127.974 6.6561 126.869 5.52715 126.869 4.11596C126.869 2.70477 127.982 1.57582 129.549 1.57582C130.427 1.57582 131.156 1.92862 131.626 2.47742H133.68V1.54446H134.746V8.10648H133.68H133.688ZM127.864 10.4585V7.39305H128.93V9.50983H134.965V10.4585H127.856H127.864ZM129.557 2.50094C128.577 2.50094 127.942 3.22221 127.942 4.11596C127.942 5.00971 128.577 5.73098 129.557 5.73098C130.537 5.73098 131.172 5.00971 131.172 4.11596C131.172 3.22221 130.537 2.50094 129.557 2.50094ZM133.688 3.44173H132.144C132.206 3.66124 132.238 3.88076 132.238 4.10812C132.238 4.36684 132.199 4.60203 132.136 4.82939H133.688V3.44173Z" fill="white"/>
<path d="M135.992 8.93751V1.99134H139.88V2.93997H137.058V7.98888H140.154V8.93751H135.992ZM143.062 10.529V5.84074H141.824V10.2781H140.766V1.64638H141.824V4.87643H143.062V1.54446H144.128V10.5369H143.062V10.529Z" fill="white"/>
<path d="M144.7 9.42359V8.52984H147.412V7.63609C146.151 7.49497 145.382 6.80506 145.382 5.76235C145.382 4.58636 146.37 3.85724 147.953 3.85724C149.537 3.85724 150.524 4.58636 150.524 5.76235C150.524 6.80506 149.756 7.48713 148.502 7.63609V8.52984H151.292V9.42359H144.7ZM145.139 3.45741V2.56366H147.42V1.47391H148.486V2.56366H150.767V3.45741H145.132H145.139ZM147.961 4.72748C147.013 4.72748 146.456 5.18219 146.456 5.75451C146.456 6.32682 147.013 6.78154 147.961 6.78154C148.91 6.78154 149.466 6.32682 149.466 5.75451C149.466 5.18219 148.91 4.72748 147.961 4.72748ZM151.7 10.5447V1.54447H152.766V10.5447H151.7Z" fill="white"/>
<path d="M10.5815 10.7721H2.79823V3.77884H7.78331V7.9732H5.59646V6.73449H6.54487V5.00971H4.03666V9.54119H9.35094V2.12462H1.23843V10.7721H0V0.88591H10.5815V10.7721Z" fill="white"/>
<path d="M18.992 5.03323L19.1331 6.82858L20.9594 6.68746L19.1566 9.54903L16.2173 5.85642L19.6191 1.04271L18.1455 0L14.3518 5.37035L14.3832 6.45226L18.5374 11.6658L20.0031 11.5796L23.4362 6.12298L22.6054 4.75099L18.992 5.03323Z" fill="white"/>
<path d="M36.3301 1.04271L39.7319 5.85642L36.7926 9.54903L34.9976 6.68746L36.8161 6.82858L36.965 5.03323L33.3438 4.75099L32.5129 6.12298L35.9461 11.5796L37.4118 11.6658L41.566 6.45226L41.5974 5.37035L37.8037 0L36.3301 1.04271Z" fill="white"/>
<path d="M31.4391 0.846715L29.8244 0.0470428L28.0373 3.64557L26.3364 0.0627227L24.7061 0.838875L27.0184 5.69963L24.4709 10.8113L26.0856 11.6109L27.9981 7.76937L29.8166 11.6031L31.4469 10.8269L29.0171 5.71531L31.4391 0.846715Z" fill="white"/>
<path d="M47.8365 0.384155L46.6842 1.67774L49.8744 4.54716L45.2185 11.2738H51.489V9.54119H48.5262L52.171 4.2806L47.8365 0.384155Z" fill="white"/>
<path d="M63.1836 0.384155L62.0236 1.67774L65.2215 4.54716L60.5657 11.2738H66.8284V9.54119H63.8734L67.5181 4.2806L63.1836 0.384155Z" fill="white"/>
<path d="M56.7247 4.95414L55.8047 5.87439L56.7247 6.79464L57.6448 5.87439L56.7247 4.95414Z" fill="white"/>
<path d="M56.6309 0.407669L52.8921 5.98186L56.6701 11.2581L60.5657 5.73098L56.6309 0.415509V0.407669ZM56.6622 8.46711L54.9065 5.93482L56.7014 3.41036L58.5356 5.72314L56.6701 8.46711H56.6622Z" fill="white"/>
<path d="M44.646 4.45383L43.1606 5.93953L44.646 7.42523L46.1314 5.93953L44.646 4.45383Z" fill="white"/>
<path d="M75.223 6.33466L74.3138 6.45226L74.5333 1.17599L72.9265 0.689911L68.7722 7.49497L69.6266 8.80423L72.5032 8.43576L72.4013 10.9132L74.1335 10.9837L74.2511 8.21624L75.4582 8.05944L75.2387 6.3425L75.223 6.33466ZM72.5659 6.67177L71.1942 6.85209L72.6599 4.44523L72.5659 6.67177Z" fill="white"/>
<path d="M114.461 134H13.7325C6.14513 134 0 127.853 0 120.264C0 112.675 6.14513 106.529 13.7325 106.529H114.461C122.048 106.529 128.193 112.675 128.193 120.264C128.193 127.853 122.048 134 114.461 134Z" fill="white"/>
<path d="M8.37891 121.613V119.865H14.1635V118.406H16.3817V119.865H22.1663V121.613H8.37891ZM20.7162 119.198C19.2269 118.798 17.7063 118.406 16.2249 117.881C15.8722 117.756 15.5587 117.568 15.2765 117.356C14.9943 117.56 14.6573 117.756 14.3124 117.881C12.8388 118.406 11.3339 118.83 9.83681 119.261L8.90406 117.709C10.409 117.246 12.1099 116.776 13.5678 116.203C13.8029 116.109 13.9675 115.984 14.0616 115.788H9.52328V113.914H14.1713V112.738H16.3895V113.914H21.0376V115.788H16.4836C16.5776 115.976 16.7344 116.101 16.9931 116.203C18.451 116.76 20.1362 117.215 21.6568 117.646L20.724 119.198H20.7162ZM12.4077 127.179C10.5031 127.179 9.24894 126.293 9.24894 124.788C9.24894 123.283 10.5031 122.389 12.4077 122.389H18.1453C20.0499 122.389 21.3041 123.275 21.3041 124.788C21.3041 126.301 20.0499 127.179 18.1453 127.179H12.4077ZM12.6429 124.2C11.8826 124.2 11.4358 124.404 11.4358 124.788C11.4358 125.172 11.8826 125.376 12.6429 125.376H17.9101C18.6704 125.376 19.1172 125.172 19.1172 124.788C19.1172 124.404 18.6704 124.2 17.9101 124.2H12.6429Z" fill="#221E1F"/>
<path d="M30.1219 120.437C28.8521 119.433 27.9194 118.626 26.7436 117.552C25.5522 118.649 24.4 119.661 23.1459 120.696L21.8291 119.222C23.0519 118.179 24.0473 117.254 25.0819 116.305C25.4347 115.992 25.6385 115.482 25.6385 114.988V113.452H27.8567V114.988C27.8567 115.482 28.0604 115.992 28.4132 116.305C29.4165 117.223 30.1297 117.92 31.376 118.971L30.1219 120.445V120.437ZM26.5398 127.211C24.7135 127.211 23.3811 126.082 23.3811 124.216C23.3811 122.35 24.7135 121.221 26.5398 121.221H31.6425C33.4688 121.221 34.8013 122.35 34.8013 124.216C34.8013 126.082 33.4688 127.211 31.6425 127.211H26.5398ZM26.7828 123.118C26.0225 123.118 25.5757 123.518 25.5757 124.216C25.5757 124.914 26.0225 125.313 26.7828 125.313H31.4152C32.1755 125.313 32.6223 124.914 32.6223 124.216C32.6223 123.518 32.1755 123.118 31.4152 123.118H26.7828ZM32.2539 120.805V113.24H34.4407V115.78H36.22V117.795H34.4407V120.805H32.2539Z" fill="#221E1F"/>
<path d="M35.9849 120.609V118.704H46.2921V115.184H37.1292V113.279H48.4867V118.704H49.7879V120.609H35.9927H35.9849ZM37.2311 127.117V121.785H48.5259V127.117H37.2311ZM46.3391 123.659H39.4258V125.211H46.3391V123.659Z" fill="#221E1F"/>
<path d="M53.4954 126.262V121.801C53.4954 120.751 54.0832 120.155 55.016 119.959L60.5654 118.814C60.7222 118.783 60.8476 118.657 60.8476 118.5V116.007C60.8476 115.851 60.7222 115.725 60.5654 115.725H56.1211C55.9644 115.725 55.839 115.851 55.839 116.007V118.132H53.6521V115.592C53.6521 114.549 54.4908 113.749 55.4941 113.749H61.2003C62.1957 113.749 63.0423 114.541 63.0423 115.592V118.814C63.0423 119.865 62.4544 120.46 61.5216 120.656L55.9722 121.785C55.8155 121.817 55.6901 121.911 55.6901 122.068V124.286H63.1128V126.254H53.5032L53.4954 126.262Z" fill="#221E1F"/>
<path d="M63.489 128.888L64.1239 124.459H66.6478L65.2369 128.888H63.489Z" fill="#221E1F"/>
<path d="M68.0273 126.262V115.733H66.8516V113.765H70.2141V126.262H68.0273Z" fill="#221E1F"/>
<path d="M73.4201 126.262C72.4246 126.262 71.5781 125.47 71.5781 124.42V115.6C71.5781 114.557 72.4168 113.757 73.4201 113.757H79.2909C80.2863 113.757 81.1329 114.549 81.1329 115.6V124.42C81.1329 125.47 80.2942 126.262 79.2909 126.262H73.4201ZM78.9382 116.015C78.9382 115.858 78.8128 115.733 78.656 115.733H74.055C73.8982 115.733 73.7728 115.858 73.7728 116.015V124.012C73.7728 124.169 73.8982 124.294 74.055 124.294H78.656C78.8128 124.294 78.9382 124.169 78.9382 124.012V116.015Z" fill="#221E1F"/>
<path d="M84.0485 126.262C83.0531 126.262 82.2065 125.47 82.2065 124.42V115.6C82.2065 114.557 83.0452 113.757 84.0485 113.757H89.9193C90.9148 113.757 91.7613 114.549 91.7613 115.6V124.42C91.7613 125.47 90.9226 126.262 89.9193 126.262H84.0485ZM89.5666 116.015C89.5666 115.858 89.4412 115.733 89.2844 115.733H84.6834C84.5266 115.733 84.4012 115.858 84.4012 116.015V124.012C84.4012 124.169 84.5266 124.294 84.6834 124.294H89.2844C89.4412 124.294 89.5666 124.169 89.5666 124.012V116.015Z" fill="#221E1F"/>
<path d="M92.5923 121.025V113.679H100.462V121.025H92.5923ZM93.8621 127.117V122.17H96.0489V125.18H104.883V127.117H93.8621ZM98.275 115.584H94.787V119.12H98.275V115.584ZM102.366 123.259V113.232H104.553V116.611H106.333V118.626H104.553V123.259H102.366Z" fill="#221E1F"/>
<path d="M112.203 121.009V122.914H109.985V121.009H106.434V119.136H116.279V121.009H112.203ZM111.31 118.61C108.488 118.61 106.967 117.481 106.967 115.929C106.967 114.377 108.488 113.248 111.31 113.248C114.131 113.248 115.652 114.377 115.652 115.929C115.652 117.481 114.131 118.61 111.31 118.61ZM108.174 127.117V123.212H110.361V125.18H119.508V127.117H108.167H108.174ZM111.31 115.121C109.977 115.121 109.154 115.404 109.154 115.929C109.154 116.454 109.977 116.736 111.31 116.736C112.642 116.736 113.465 116.376 113.465 115.929C113.465 115.482 112.642 115.121 111.31 115.121ZM116.992 124.051V123.322H113.849V121.605H116.992V113.232H119.179V124.051H116.992Z" fill="#221E1F"/>
<path d="M8.7003 49.4386V27.377H1.06592V23.2611H20.9278V27.377H13.2856V49.4386H8.7003Z" fill="white"/>
<path d="M37.1999 49.4386V35.6873C37.1999 35.3581 36.9334 35.0915 36.6356 35.0915H28.5309V49.4464H24.0161V22.0929H28.5309V31.0931H37.9289C39.9903 31.0931 41.7147 32.7239 41.7147 34.8798V49.4307H37.1999V49.4386Z" fill="white"/>
<path d="M49.2236 49.4386C47.1621 49.4386 45.4377 47.8079 45.4377 45.6519V34.8877C45.4377 32.7317 47.1621 31.101 49.2236 31.101H59.5229C61.5844 31.101 63.3088 32.7317 63.3088 34.8877V38.9095C63.3088 41.0655 61.9136 42.367 59.8521 42.367H49.9525V44.8601C49.9525 45.1893 50.219 45.4559 50.5169 45.4559H57.8926C58.1905 45.4559 58.457 45.1893 58.457 44.8601V43.4959H62.9717V45.6519C62.9717 47.8079 61.2473 49.4386 59.1859 49.4386H49.2236ZM58.7862 35.6795C58.7862 35.3502 58.5197 35.0837 58.2218 35.0837H50.5169C50.219 35.0837 49.9525 35.3502 49.9525 35.6795V38.7057H58.2218C58.5197 38.7057 58.7862 38.4392 58.7862 38.1099V35.6873V35.6795Z" fill="white"/>
<path d="M76.6572 49.4386V27.377H74.2039V23.2611H81.2425V49.4386H76.6572Z" fill="white"/>
<path d="M86.9408 37.3651C85.7416 37.3651 84.7305 36.4165 84.7305 35.1542V33.7038H87.3641V34.6917C87.3641 34.8877 87.5209 35.0366 87.6933 35.0366H92.1846C92.357 35.0366 92.5138 34.8798 92.5138 34.6917V33.3902C92.5138 33.1942 92.357 33.0374 92.1846 33.0374H87.0349C85.8357 33.0374 84.8245 32.0888 84.8245 30.8266V28.8666C84.8245 27.6044 85.8278 26.6557 87.0349 26.6557H92.7489C93.9482 26.6557 94.9593 27.6044 94.9593 28.8666V30.2386H92.3257V29.3292C92.3257 29.1332 92.1689 28.9764 91.9965 28.9764H87.7952C87.6228 28.9764 87.466 29.1332 87.466 29.3292V30.5522C87.466 30.7482 87.6228 30.905 87.7952 30.905H92.9449C94.1441 30.905 95.1552 31.8536 95.1552 33.1158V35.1464C95.1552 36.4086 94.152 37.3572 92.9449 37.3572H86.9408V37.3651Z" fill="white"/>
<path d="M100.626 37.3651C99.4272 37.3651 98.416 36.4165 98.416 35.1542V28.992H96.4016V26.6714H98.416V22.2968H101.05V26.6714H104.185V28.992H101.05V34.6838C101.05 34.8798 101.206 35.0288 101.379 35.0288H103.801V37.3494H100.626V37.3651Z" fill="white"/>
<path d="M119.062 49.4386C116.969 49.4386 115.205 47.7765 115.205 45.5813V27.1105C115.205 24.9153 116.969 23.2532 119.062 23.2532H134.009C136.102 23.2532 137.858 24.9153 137.858 27.1105V31.7909H133.272V27.9729C133.272 27.6436 133.006 27.377 132.677 27.377H120.386C120.057 27.377 119.791 27.6436 119.791 27.9729V44.7189C119.791 45.0482 120.057 45.3148 120.386 45.3148H132.677C133.006 45.3148 133.272 45.0482 133.272 44.7189V38.2432H126.633V34.1272H137.858V45.5892C137.858 47.7843 136.094 49.4464 134.009 49.4464H119.062V49.4386Z" fill="white"/>
<path d="M159.718 49.4386L152.115 39.2702L144.575 49.4386H139.026L149.49 35.5541L139.927 23.2924H145.476L152.155 31.8615L158.833 23.2924H164.382L154.78 35.5541L165.276 49.4386H159.726H159.718Z" fill="white"/>
<path d="M170.613 49.4386C168.521 49.4386 166.757 47.7765 166.757 45.5813V27.1105C166.757 24.9153 168.521 23.2532 170.613 23.2532H185.561C187.654 23.2532 189.417 24.9153 189.417 27.1105V31.7909H184.832V27.9729C184.832 27.6436 184.565 27.377 184.236 27.377H171.946C171.617 27.377 171.35 27.6436 171.35 27.9729V44.7189C171.35 45.0482 171.617 45.3148 171.946 45.3148H184.236C184.565 45.3148 184.832 45.0482 184.832 44.7189V38.2432H178.193V34.1272H189.417V45.5892C189.417 47.7843 187.654 49.4464 185.561 49.4464H170.613V49.4386Z" fill="white"/>
<path d="M5.41619 87.8542C3.3234 87.8542 1.55981 86.1921 1.55981 83.997V79.0813H6.14515V83.1346C6.14515 83.4638 6.41164 83.7304 6.74085 83.7304H17.534C17.8632 83.7304 18.1297 83.4638 18.1297 83.1346V76.6901C18.1297 76.3609 17.8632 76.0943 17.534 76.0943H5.5808C3.488 76.0943 1.72442 74.4322 1.72442 72.2371V65.5261C1.72442 63.3309 3.488 61.6689 5.5808 61.6689H18.5373C20.6301 61.6689 22.3937 63.3309 22.3937 65.5261V69.6421H17.8083V66.3885C17.8083 66.0592 17.5418 65.7926 17.2126 65.7926H6.91329C6.58408 65.7926 6.31758 66.0592 6.31758 66.3885V71.3747C6.31758 71.704 6.58408 71.9705 6.91329 71.9705H18.8665C20.9593 71.9705 22.715 73.6326 22.715 75.8199V83.9891C22.715 86.1843 20.9515 87.8464 18.8665 87.8464H5.41619V87.8542Z" fill="white"/>
<path d="M30.4276 87.8542C28.3349 87.8542 26.5791 86.1921 26.5791 83.997V65.5261C26.5791 63.3309 28.3427 61.6689 30.4276 61.6689H45.375C47.4678 61.6689 49.2236 63.3309 49.2236 65.5261V83.997C49.2236 86.1921 47.46 87.8542 45.375 87.8542H30.4276ZM44.6383 66.3885C44.6383 66.0592 44.3718 65.7926 44.0425 65.7926H31.7523C31.4231 65.7926 31.1566 66.0592 31.1566 66.3885V83.1346C31.1566 83.4638 31.4231 83.7304 31.7523 83.7304H44.0425C44.3718 83.7304 44.6383 83.4638 44.6383 83.1346V66.3885Z" fill="white"/>
<path d="M56.9992 87.8542C54.9064 87.8542 53.1428 86.1921 53.1428 83.997V61.6767H57.7282V83.1346C57.7282 83.4639 57.9947 83.7304 58.3239 83.7304H70.6141C70.9433 83.7304 71.2098 83.4639 71.2098 83.1346V61.6767H75.7951V83.997C75.7951 86.1921 74.0316 87.8542 71.9466 87.8542H56.9992Z" fill="white"/>
<path d="M95.3905 87.8542L84.3936 66.5923C84.3936 69.0854 84.4955 72.9035 84.4955 75.3966V87.8542H79.9102V61.6767H86.3845L97.2795 81.9743V61.6767H101.865V87.8542H95.3905Z" fill="white"/>
<path d="M106.191 87.8542V61.6767H123.396C126.484 61.6767 128.844 64.0365 128.844 67.1254V82.4055C128.844 85.4944 126.484 87.8542 123.396 87.8542H106.191ZM124.258 67.0549C124.258 66.3571 123.694 65.7927 122.996 65.7927H110.777V83.7304H122.996C123.694 83.7304 124.258 83.1659 124.258 82.4682V67.0549Z" fill="white"/>
<path d="M147.742 87.8542V65.7927H140.099V61.6767H159.961V65.7927H152.319V87.8542H147.734H147.742Z" fill="white"/>
<path d="M179.259 87.8542L173.843 77.2546H167.768V87.8542H163.183V61.6767H179.024C181.117 61.6767 182.872 63.3388 182.872 65.5339V73.4052C182.872 75.6004 181.109 77.2625 179.024 77.2625H178.922L184.432 87.862H179.251L179.259 87.8542ZM178.295 66.3885C178.295 66.0592 178.028 65.7927 177.699 65.7927H167.768V73.1308H177.699C178.028 73.1308 178.295 72.8643 178.295 72.535V66.3885Z" fill="white"/>
<path d="M205.133 87.8542L202.907 81.7077H192.114L189.888 87.8542H184.942L195.037 61.6767H200.022L210.118 87.8542H205.133ZM199.458 72.0724C199.027 70.9121 198.031 68.3171 197.53 66.757C196.997 68.3171 196.033 70.9121 195.602 72.0724L193.611 77.5839H201.449L199.458 72.0724Z" fill="white"/>
<path d="M215.8 87.8542C213.708 87.8542 211.952 86.1921 211.952 83.997V65.5261C211.952 63.3309 213.715 61.6689 215.8 61.6689H230.748C232.841 61.6689 234.596 63.3309 234.596 65.5261V71.406H230.011V66.3885C230.011 66.0592 229.745 65.7926 229.415 65.7926H217.125C216.796 65.7926 216.529 66.0592 216.529 66.3885V83.1346C216.529 83.4638 216.796 83.7304 217.125 83.7304H229.415C229.745 83.7304 230.011 83.4638 230.011 83.1346V78.0543H234.596V83.997C234.596 86.1921 232.833 87.8542 230.748 87.8542H215.8Z" fill="white"/>
<path d="M254.262 87.8542L245.758 75.7258L243.163 78.5169V87.8542H238.578V61.6767H243.163V72.1038L252.828 61.6767H258.808L248.979 72.2763L259.804 87.8542H254.254H254.262Z" fill="white"/>
<path d="M8.7003 49.4386V27.377H1.06592V23.2611H20.9278V27.377H13.2856V49.4386H8.7003Z" fill="white"/>
<path d="M37.1999 49.4386V35.6873C37.1999 35.3581 36.9334 35.0915 36.6356 35.0915H28.5309V49.4464H24.0161V22.0929H28.5309V31.0931H37.9289C39.9903 31.0931 41.7147 32.7239 41.7147 34.8798V49.4307H37.1999V49.4386Z" fill="white"/>
<path d="M49.2236 49.4386C47.1621 49.4386 45.4377 47.8079 45.4377 45.6519V34.8877C45.4377 32.7317 47.1621 31.101 49.2236 31.101H59.5229C61.5844 31.101 63.3088 32.7317 63.3088 34.8877V38.9095C63.3088 41.0655 61.9136 42.367 59.8521 42.367H49.9525V44.8601C49.9525 45.1893 50.219 45.4559 50.5169 45.4559H57.8926C58.1905 45.4559 58.457 45.1893 58.457 44.8601V43.4959H62.9717V45.6519C62.9717 47.8079 61.2473 49.4386 59.1859 49.4386H49.2236ZM58.7862 35.6795C58.7862 35.3502 58.5197 35.0837 58.2218 35.0837H50.5169C50.219 35.0837 49.9525 35.3502 49.9525 35.6795V38.7057H58.2218C58.5197 38.7057 58.7862 38.4392 58.7862 38.1099V35.6873V35.6795Z" fill="white"/>
<path d="M76.6572 49.4386V27.377H74.2039V23.2611H81.2425V49.4386H76.6572Z" fill="white"/>
<path d="M86.9408 37.3651C85.7416 37.3651 84.7305 36.4165 84.7305 35.1542V33.7038H87.3641V34.6917C87.3641 34.8877 87.5209 35.0366 87.6933 35.0366H92.1846C92.357 35.0366 92.5138 34.8798 92.5138 34.6917V33.3902C92.5138 33.1942 92.357 33.0374 92.1846 33.0374H87.0349C85.8357 33.0374 84.8245 32.0888 84.8245 30.8266V28.8666C84.8245 27.6044 85.8278 26.6557 87.0349 26.6557H92.7489C93.9482 26.6557 94.9593 27.6044 94.9593 28.8666V30.2386H92.3257V29.3292C92.3257 29.1332 92.1689 28.9764 91.9965 28.9764H87.7952C87.6228 28.9764 87.466 29.1332 87.466 29.3292V30.5522C87.466 30.7482 87.6228 30.905 87.7952 30.905H92.9449C94.1441 30.905 95.1552 31.8536 95.1552 33.1158V35.1464C95.1552 36.4086 94.152 37.3572 92.9449 37.3572H86.9408V37.3651Z" fill="white"/>
<path d="M100.626 37.3651C99.4272 37.3651 98.416 36.4165 98.416 35.1542V28.992H96.4016V26.6714H98.416V22.2968H101.05V26.6714H104.185V28.992H101.05V34.6838C101.05 34.8798 101.206 35.0288 101.379 35.0288H103.801V37.3494H100.626V37.3651Z" fill="white"/>
<path d="M119.062 49.4386C116.969 49.4386 115.205 47.7765 115.205 45.5813V27.1105C115.205 24.9153 116.969 23.2532 119.062 23.2532H134.009C136.102 23.2532 137.858 24.9153 137.858 27.1105V31.7909H133.272V27.9729C133.272 27.6436 133.006 27.377 132.677 27.377H120.386C120.057 27.377 119.791 27.6436 119.791 27.9729V44.7189C119.791 45.0482 120.057 45.3148 120.386 45.3148H132.677C133.006 45.3148 133.272 45.0482 133.272 44.7189V38.2432H126.633V34.1272H137.858V45.5892C137.858 47.7843 136.094 49.4464 134.009 49.4464H119.062V49.4386Z" fill="white"/>
<path d="M159.718 49.4386L152.115 39.2702L144.575 49.4386H139.026L149.49 35.5541L139.927 23.2924H145.476L152.155 31.8615L158.833 23.2924H164.382L154.78 35.5541L165.276 49.4386H159.726H159.718Z" fill="white"/>
<path d="M170.613 49.4386C168.521 49.4386 166.757 47.7765 166.757 45.5813V27.1105C166.757 24.9153 168.521 23.2532 170.613 23.2532H185.561C187.654 23.2532 189.417 24.9153 189.417 27.1105V31.7909H184.832V27.9729C184.832 27.6436 184.565 27.377 184.236 27.377H171.946C171.617 27.377 171.35 27.6436 171.35 27.9729V44.7189C171.35 45.0482 171.617 45.3148 171.946 45.3148H184.236C184.565 45.3148 184.832 45.0482 184.832 44.7189V38.2432H178.193V34.1272H189.417V45.5892C189.417 47.7843 187.654 49.4464 185.561 49.4464H170.613V49.4386Z" fill="white"/>
<path d="M5.41619 87.8542C3.3234 87.8542 1.55981 86.1921 1.55981 83.997V79.0813H6.14515V83.1346C6.14515 83.4638 6.41164 83.7304 6.74085 83.7304H17.534C17.8632 83.7304 18.1297 83.4638 18.1297 83.1346V76.6901C18.1297 76.3609 17.8632 76.0943 17.534 76.0943H5.5808C3.488 76.0943 1.72442 74.4322 1.72442 72.2371V65.5261C1.72442 63.3309 3.488 61.6689 5.5808 61.6689H18.5373C20.6301 61.6689 22.3937 63.3309 22.3937 65.5261V69.6421H17.8083V66.3885C17.8083 66.0592 17.5418 65.7926 17.2126 65.7926H6.91329C6.58408 65.7926 6.31758 66.0592 6.31758 66.3885V71.3747C6.31758 71.704 6.58408 71.9705 6.91329 71.9705H18.8665C20.9593 71.9705 22.715 73.6326 22.715 75.8199V83.9891C22.715 86.1843 20.9515 87.8464 18.8665 87.8464H5.41619V87.8542Z" fill="white"/>
<path d="M30.4276 87.8542C28.3349 87.8542 26.5791 86.1921 26.5791 83.997V65.5261C26.5791 63.3309 28.3427 61.6689 30.4276 61.6689H45.375C47.4678 61.6689 49.2236 63.3309 49.2236 65.5261V83.997C49.2236 86.1921 47.46 87.8542 45.375 87.8542H30.4276ZM44.6383 66.3885C44.6383 66.0592 44.3718 65.7926 44.0425 65.7926H31.7523C31.4231 65.7926 31.1566 66.0592 31.1566 66.3885V83.1346C31.1566 83.4638 31.4231 83.7304 31.7523 83.7304H44.0425C44.3718 83.7304 44.6383 83.4638 44.6383 83.1346V66.3885Z" fill="white"/>
<path d="M56.9992 87.8542C54.9064 87.8542 53.1428 86.1921 53.1428 83.997V61.6767H57.7282V83.1346C57.7282 83.4639 57.9947 83.7304 58.3239 83.7304H70.6141C70.9433 83.7304 71.2098 83.4639 71.2098 83.1346V61.6767H75.7951V83.997C75.7951 86.1921 74.0316 87.8542 71.9466 87.8542H56.9992Z" fill="white"/>
<path d="M95.3905 87.8542L84.3936 66.5923C84.3936 69.0854 84.4955 72.9035 84.4955 75.3966V87.8542H79.9102V61.6767H86.3845L97.2795 81.9743V61.6767H101.865V87.8542H95.3905Z" fill="white"/>
<path d="M106.191 87.8542V61.6767H123.396C126.484 61.6767 128.844 64.0365 128.844 67.1254V82.4055C128.844 85.4944 126.484 87.8542 123.396 87.8542H106.191ZM124.258 67.0549C124.258 66.3571 123.694 65.7927 122.996 65.7927H110.777V83.7304H122.996C123.694 83.7304 124.258 83.1659 124.258 82.4682V67.0549Z" fill="white"/>
<path d="M147.742 87.8542V65.7927H140.099V61.6767H159.961V65.7927H152.319V87.8542H147.734H147.742Z" fill="white"/>
<path d="M179.259 87.8542L173.843 77.2546H167.768V87.8542H163.183V61.6767H179.024C181.117 61.6767 182.872 63.3388 182.872 65.5339V73.4052C182.872 75.6004 181.109 77.2625 179.024 77.2625H178.922L184.432 87.862H179.251L179.259 87.8542ZM178.295 66.3885C178.295 66.0592 178.028 65.7927 177.699 65.7927H167.768V73.1308H177.699C178.028 73.1308 178.295 72.8643 178.295 72.535V66.3885Z" fill="white"/>
<path d="M205.133 87.8542L202.907 81.7077H192.114L189.888 87.8542H184.942L195.037 61.6767H200.022L210.118 87.8542H205.133ZM199.458 72.0724C199.027 70.9121 198.031 68.3171 197.53 66.757C196.997 68.3171 196.033 70.9121 195.602 72.0724L193.611 77.5839H201.449L199.458 72.0724Z" fill="white"/>
<path d="M215.8 87.8542C213.708 87.8542 211.952 86.1921 211.952 83.997V65.5261C211.952 63.3309 213.715 61.6689 215.8 61.6689H230.748C232.841 61.6689 234.596 63.3309 234.596 65.5261V71.406H230.011V66.3885C230.011 66.0592 229.745 65.7926 229.415 65.7926H217.125C216.796 65.7926 216.529 66.0592 216.529 66.3885V83.1346C216.529 83.4638 216.796 83.7304 217.125 83.7304H229.415C229.745 83.7304 230.011 83.4638 230.011 83.1346V78.0543H234.596V83.997C234.596 86.1921 232.833 87.8542 230.748 87.8542H215.8Z" fill="white"/>
<path d="M254.262 87.8542L245.758 75.7258L243.163 78.5169V87.8542H238.578V61.6767H243.163V72.1038L252.828 61.6767H258.808L248.979 72.2763L259.804 87.8542H254.254H254.262Z" fill="white"/>
<path d="M8.7003 49.4386V27.377H1.06592V23.2611H20.9278V27.377H13.2856V49.4386H8.7003Z" stroke="url(#paint0_linear_423_15663)" stroke-width="0.5" stroke-linecap="round" stroke-linejoin="round"/>
<path d="M37.1999 49.4386V35.6873C37.1999 35.3581 36.9334 35.0915 36.6356 35.0915H28.5309V49.4464H24.0161V22.0929H28.5309V31.0931H37.9289C39.9903 31.0931 41.7147 32.7239 41.7147 34.8798V49.4307H37.1999V49.4386Z" stroke="url(#paint1_linear_423_15663)" stroke-width="0.5" stroke-linecap="round" stroke-linejoin="round"/>
<path d="M49.2236 49.4386C47.1621 49.4386 45.4377 47.8079 45.4377 45.6519V34.8877C45.4377 32.7317 47.1621 31.101 49.2236 31.101H59.5229C61.5844 31.101 63.3088 32.7317 63.3088 34.8877V38.9095C63.3088 41.0655 61.9136 42.367 59.8521 42.367H49.9525V44.8601C49.9525 45.1893 50.219 45.4559 50.5169 45.4559H57.8926C58.1905 45.4559 58.4569 45.1893 58.4569 44.8601V43.4959H62.9717V45.6519C62.9717 47.8079 61.2473 49.4386 59.1859 49.4386H49.2236ZM58.7862 35.6795C58.7862 35.3502 58.5197 35.0837 58.2218 35.0837H50.5169C50.219 35.0837 49.9525 35.3502 49.9525 35.6795V38.7057H58.2218C58.5197 38.7057 58.7862 38.4392 58.7862 38.1099V35.6873V35.6795Z" stroke="url(#paint2_linear_423_15663)" stroke-width="0.5" stroke-linecap="round" stroke-linejoin="round"/>
<path d="M76.6572 49.4386V27.377H74.2039V23.2611H81.2425V49.4386H76.6572Z" stroke="url(#paint3_linear_423_15663)" stroke-width="0.5" stroke-linecap="round" stroke-linejoin="round"/>
<path d="M86.9408 37.3651C85.7416 37.3651 84.7305 36.4165 84.7305 35.1542V33.7038H87.3641V34.6917C87.3641 34.8877 87.5209 35.0366 87.6933 35.0366H92.1846C92.357 35.0366 92.5138 34.8798 92.5138 34.6917V33.3902C92.5138 33.1942 92.357 33.0374 92.1846 33.0374H87.0349C85.8357 33.0374 84.8245 32.0888 84.8245 30.8266V28.8666C84.8245 27.6044 85.8278 26.6557 87.0349 26.6557H92.7489C93.9482 26.6557 94.9593 27.6044 94.9593 28.8666V30.2386H92.3257V29.3292C92.3257 29.1332 92.1689 28.9764 91.9965 28.9764H87.7952C87.6228 28.9764 87.466 29.1332 87.466 29.3292V30.5522C87.466 30.7482 87.6228 30.905 87.7952 30.905H92.9449C94.1441 30.905 95.1552 31.8536 95.1552 33.1158V35.1464C95.1552 36.4086 94.152 37.3572 92.9449 37.3572H86.9408V37.3651Z" stroke="url(#paint4_linear_423_15663)" stroke-width="0.5" stroke-linecap="round" stroke-linejoin="round"/>
<path d="M100.626 37.3651C99.4272 37.3651 98.416 36.4165 98.416 35.1542V28.992H96.4016V26.6714H98.416V22.2968H101.05V26.6714H104.185V28.992H101.05V34.6838C101.05 34.8798 101.206 35.0288 101.379 35.0288H103.801V37.3494H100.626V37.3651Z" stroke="url(#paint5_linear_423_15663)" stroke-width="0.5" stroke-linecap="round" stroke-linejoin="round"/>
<path d="M119.062 49.4386C116.969 49.4386 115.205 47.7765 115.205 45.5813V27.1105C115.205 24.9153 116.969 23.2532 119.062 23.2532H134.009C136.102 23.2532 137.858 24.9153 137.858 27.1105V31.7909H133.272V27.9729C133.272 27.6436 133.006 27.377 132.677 27.377H120.386C120.057 27.377 119.791 27.6436 119.791 27.9729V44.7189C119.791 45.0482 120.057 45.3148 120.386 45.3148H132.677C133.006 45.3148 133.272 45.0482 133.272 44.7189V38.2432H126.633V34.1272H137.858V45.5892C137.858 47.7843 136.094 49.4464 134.009 49.4464H119.062V49.4386Z" stroke="url(#paint6_linear_423_15663)" stroke-width="0.5" stroke-linecap="round" stroke-linejoin="round"/>
<path d="M159.718 49.4386L152.115 39.2702L144.575 49.4386H139.026L149.49 35.5541L139.927 23.2924H145.476L152.155 31.8615L158.833 23.2924H164.382L154.78 35.5541L165.276 49.4386H159.726H159.718Z" stroke="url(#paint7_linear_423_15663)" stroke-width="0.5" stroke-linecap="round" stroke-linejoin="round"/>
<path d="M170.613 49.4386C168.521 49.4386 166.757 47.7765 166.757 45.5813V27.1105C166.757 24.9153 168.521 23.2532 170.613 23.2532H185.561C187.654 23.2532 189.417 24.9153 189.417 27.1105V31.7909H184.832V27.9729C184.832 27.6436 184.565 27.377 184.236 27.377H171.946C171.617 27.377 171.35 27.6436 171.35 27.9729V44.7189C171.35 45.0482 171.617 45.3148 171.946 45.3148H184.236C184.565 45.3148 184.832 45.0482 184.832 44.7189V38.2432H178.193V34.1272H189.417V45.5892C189.417 47.7843 187.654 49.4464 185.561 49.4464H170.613V49.4386Z" stroke="url(#paint8_linear_423_15663)" stroke-width="0.5" stroke-linecap="round" stroke-linejoin="round"/>
<path d="M5.41619 87.8542C3.3234 87.8542 1.55981 86.1921 1.55981 83.997V79.0813H6.14515V83.1346C6.14515 83.4638 6.41164 83.7304 6.74085 83.7304H17.534C17.8632 83.7304 18.1297 83.4638 18.1297 83.1346V76.6901C18.1297 76.3609 17.8632 76.0943 17.534 76.0943H5.5808C3.488 76.0943 1.72442 74.4322 1.72442 72.2371V65.5261C1.72442 63.3309 3.488 61.6689 5.5808 61.6689H18.5373C20.6301 61.6689 22.3937 63.3309 22.3937 65.5261V69.6421H17.8083V66.3885C17.8083 66.0592 17.5418 65.7926 17.2126 65.7926H6.91329C6.58408 65.7926 6.31759 66.0592 6.31759 66.3885V71.3747C6.31759 71.704 6.58408 71.9705 6.91329 71.9705H18.8665C20.9593 71.9705 22.715 73.6326 22.715 75.8199V83.9891C22.715 86.1843 20.9515 87.8464 18.8665 87.8464H5.41619V87.8542Z" stroke="url(#paint9_linear_423_15663)" stroke-width="0.5" stroke-linecap="round" stroke-linejoin="round"/>
<path d="M30.4276 87.8542C28.3349 87.8542 26.5791 86.1921 26.5791 83.997V65.5261C26.5791 63.3309 28.3427 61.6689 30.4276 61.6689H45.375C47.4678 61.6689 49.2236 63.3309 49.2236 65.5261V83.997C49.2236 86.1921 47.46 87.8542 45.375 87.8542H30.4276ZM44.6383 66.3885C44.6383 66.0592 44.3718 65.7926 44.0425 65.7926H31.7523C31.4231 65.7926 31.1566 66.0592 31.1566 66.3885V83.1346C31.1566 83.4638 31.4231 83.7304 31.7523 83.7304H44.0425C44.3718 83.7304 44.6383 83.4638 44.6383 83.1346V66.3885Z" stroke="url(#paint10_linear_423_15663)" stroke-width="0.5" stroke-linecap="round" stroke-linejoin="round"/>
<path d="M56.9992 87.8542C54.9064 87.8542 53.1428 86.1921 53.1428 83.997V61.6767H57.7282V83.1346C57.7282 83.4639 57.9947 83.7304 58.3239 83.7304H70.6141C70.9433 83.7304 71.2098 83.4639 71.2098 83.1346V61.6767H75.7951V83.997C75.7951 86.1921 74.0316 87.8542 71.9466 87.8542H56.9992Z" stroke="url(#paint11_linear_423_15663)" stroke-width="0.5" stroke-linecap="round" stroke-linejoin="round"/>
<path d="M95.3905 87.8542L84.3936 66.5923C84.3936 69.0854 84.4955 72.9035 84.4955 75.3966V87.8542H79.9102V61.6767H86.3845L97.2795 81.9743V61.6767H101.865V87.8542H95.3905Z" stroke="url(#paint12_linear_423_15663)" stroke-width="0.5" stroke-linecap="round" stroke-linejoin="round"/>
<path d="M106.191 87.8542V61.6767H123.396C126.484 61.6767 128.844 64.0365 128.844 67.1254V82.4055C128.844 85.4944 126.484 87.8542 123.396 87.8542H106.191ZM124.258 67.0549C124.258 66.3571 123.694 65.7927 122.996 65.7927H110.777V83.7304H122.996C123.694 83.7304 124.258 83.1659 124.258 82.4682V67.0549Z" stroke="url(#paint13_linear_423_15663)" stroke-width="0.5" stroke-linecap="round" stroke-linejoin="round"/>
<path d="M147.742 87.8542V65.7927H140.099V61.6767H159.961V65.7927H152.319V87.8542H147.734H147.742Z" stroke="url(#paint14_linear_423_15663)" stroke-width="0.5" stroke-linecap="round" stroke-linejoin="round"/>
<path d="M179.259 87.8542L173.843 77.2546H167.768V87.8542H163.183V61.6767H179.024C181.117 61.6767 182.872 63.3388 182.872 65.5339V73.4052C182.872 75.6004 181.109 77.2625 179.024 77.2625H178.922L184.432 87.862H179.251L179.259 87.8542ZM178.295 66.3885C178.295 66.0592 178.028 65.7927 177.699 65.7927H167.768V73.1308H177.699C178.028 73.1308 178.295 72.8643 178.295 72.535V66.3885Z" stroke="url(#paint15_linear_423_15663)" stroke-width="0.5" stroke-linecap="round" stroke-linejoin="round"/>
<path d="M205.133 87.8542L202.907 81.7077H192.114L189.888 87.8542H184.942L195.037 61.6767H200.022L210.118 87.8542H205.133ZM199.458 72.0724C199.027 70.9121 198.031 68.3171 197.53 66.757C196.997 68.3171 196.033 70.9121 195.602 72.0724L193.611 77.5839H201.449L199.458 72.0724Z" stroke="url(#paint16_linear_423_15663)" stroke-width="0.5" stroke-linecap="round" stroke-linejoin="round"/>
<path d="M215.8 87.8542C213.708 87.8542 211.952 86.1921 211.952 83.997V65.5261C211.952 63.3309 213.715 61.6689 215.8 61.6689H230.748C232.841 61.6689 234.596 63.3309 234.596 65.5261V71.406H230.011V66.3885C230.011 66.0592 229.745 65.7926 229.415 65.7926H217.125C216.796 65.7926 216.529 66.0592 216.529 66.3885V83.1346C216.529 83.4638 216.796 83.7304 217.125 83.7304H229.415C229.745 83.7304 230.011 83.4638 230.011 83.1346V78.0543H234.596V83.997C234.596 86.1921 232.833 87.8542 230.748 87.8542H215.8Z" stroke="url(#paint17_linear_423_15663)" stroke-width="0.5" stroke-linecap="round" stroke-linejoin="round"/>
<path d="M254.262 87.8542L245.758 75.7258L243.163 78.5169V87.8542H238.578V61.6767H243.163V72.1038L252.828 61.6767H258.808L248.979 72.2763L259.804 87.8542H254.254H254.262Z" stroke="url(#paint18_linear_423_15663)" stroke-width="0.5" stroke-linecap="round" stroke-linejoin="round"/>
<path d="M8.7003 49.4386V27.377H1.06592V23.2611H20.9278V27.377H13.2856V49.4386H8.7003Z" fill="url(#paint19_linear_423_15663)"/>
<path d="M37.1999 49.4386V35.6873C37.1999 35.3581 36.9334 35.0915 36.6356 35.0915H28.5309V49.4464H24.0161V22.0929H28.5309V31.0931H37.9289C39.9903 31.0931 41.7147 32.7239 41.7147 34.8798V49.4307H37.1999V49.4386Z" fill="url(#paint20_linear_423_15663)"/>
<path d="M49.2236 49.4386C47.1621 49.4386 45.4377 47.8079 45.4377 45.6519V34.8877C45.4377 32.7317 47.1621 31.101 49.2236 31.101H59.5229C61.5844 31.101 63.3088 32.7317 63.3088 34.8877V38.9095C63.3088 41.0655 61.9136 42.367 59.8521 42.367H49.9525V44.8601C49.9525 45.1893 50.219 45.4559 50.5169 45.4559H57.8926C58.1905 45.4559 58.457 45.1893 58.457 44.8601V43.4959H62.9717V45.6519C62.9717 47.8079 61.2473 49.4386 59.1859 49.4386H49.2236ZM58.7862 35.6795C58.7862 35.3502 58.5197 35.0837 58.2218 35.0837H50.5169C50.219 35.0837 49.9525 35.3502 49.9525 35.6795V38.7057H58.2218C58.5197 38.7057 58.7862 38.4392 58.7862 38.1099V35.6873V35.6795Z" fill="url(#paint21_linear_423_15663)"/>
<path d="M76.6572 49.4386V27.377H74.2039V23.2611H81.2425V49.4386H76.6572Z" fill="url(#paint22_linear_423_15663)"/>
<path d="M86.9408 37.3651C85.7416 37.3651 84.7305 36.4165 84.7305 35.1542V33.7038H87.3641V34.6917C87.3641 34.8877 87.5209 35.0366 87.6933 35.0366H92.1846C92.357 35.0366 92.5138 34.8798 92.5138 34.6917V33.3902C92.5138 33.1942 92.357 33.0374 92.1846 33.0374H87.0349C85.8357 33.0374 84.8245 32.0888 84.8245 30.8266V28.8666C84.8245 27.6044 85.8278 26.6557 87.0349 26.6557H92.7489C93.9482 26.6557 94.9593 27.6044 94.9593 28.8666V30.2386H92.3257V29.3292C92.3257 29.1332 92.1689 28.9764 91.9965 28.9764H87.7952C87.6228 28.9764 87.466 29.1332 87.466 29.3292V30.5522C87.466 30.7482 87.6228 30.905 87.7952 30.905H92.9449C94.1441 30.905 95.1552 31.8536 95.1552 33.1158V35.1464C95.1552 36.4086 94.152 37.3572 92.9449 37.3572H86.9408V37.3651Z" fill="url(#paint23_linear_423_15663)"/>
<path d="M100.626 37.3651C99.4272 37.3651 98.416 36.4165 98.416 35.1542V28.992H96.4016V26.6714H98.416V22.2968H101.05V26.6714H104.185V28.992H101.05V34.6838C101.05 34.8798 101.206 35.0288 101.379 35.0288H103.801V37.3494H100.626V37.3651Z" fill="url(#paint24_linear_423_15663)"/>
<path d="M119.062 49.4386C116.969 49.4386 115.205 47.7765 115.205 45.5813V27.1105C115.205 24.9153 116.969 23.2532 119.062 23.2532H134.009C136.102 23.2532 137.858 24.9153 137.858 27.1105V31.7909H133.272V27.9729C133.272 27.6436 133.006 27.377 132.677 27.377H120.386C120.057 27.377 119.791 27.6436 119.791 27.9729V44.7189C119.791 45.0482 120.057 45.3148 120.386 45.3148H132.677C133.006 45.3148 133.272 45.0482 133.272 44.7189V38.2432H126.633V34.1272H137.858V45.5892C137.858 47.7843 136.094 49.4464 134.009 49.4464H119.062V49.4386Z" fill="url(#paint25_linear_423_15663)"/>
<path d="M159.718 49.4386L152.115 39.2702L144.575 49.4386H139.026L149.49 35.5541L139.927 23.2924H145.476L152.155 31.8615L158.833 23.2924H164.382L154.78 35.5541L165.276 49.4386H159.726H159.718Z" fill="url(#paint26_linear_423_15663)"/>
<path d="M170.613 49.4386C168.521 49.4386 166.757 47.7765 166.757 45.5813V27.1105C166.757 24.9153 168.521 23.2532 170.613 23.2532H185.561C187.654 23.2532 189.417 24.9153 189.417 27.1105V31.7909H184.832V27.9729C184.832 27.6436 184.565 27.377 184.236 27.377H171.946C171.617 27.377 171.35 27.6436 171.35 27.9729V44.7189C171.35 45.0482 171.617 45.3148 171.946 45.3148H184.236C184.565 45.3148 184.832 45.0482 184.832 44.7189V38.2432H178.193V34.1272H189.417V45.5892C189.417 47.7843 187.654 49.4464 185.561 49.4464H170.613V49.4386Z" fill="url(#paint27_linear_423_15663)"/>
<path d="M5.41619 87.8542C3.3234 87.8542 1.55981 86.1921 1.55981 83.997V79.0813H6.14515V83.1346C6.14515 83.4638 6.41164 83.7304 6.74085 83.7304H17.534C17.8632 83.7304 18.1297 83.4638 18.1297 83.1346V76.6901C18.1297 76.3609 17.8632 76.0943 17.534 76.0943H5.5808C3.488 76.0943 1.72442 74.4322 1.72442 72.2371V65.5261C1.72442 63.3309 3.488 61.6689 5.5808 61.6689H18.5373C20.6301 61.6689 22.3937 63.3309 22.3937 65.5261V69.6421H17.8083V66.3885C17.8083 66.0592 17.5418 65.7926 17.2126 65.7926H6.91329C6.58408 65.7926 6.31758 66.0592 6.31758 66.3885V71.3747C6.31758 71.704 6.58408 71.9705 6.91329 71.9705H18.8665C20.9593 71.9705 22.715 73.6326 22.715 75.8199V83.9891C22.715 86.1843 20.9515 87.8464 18.8665 87.8464H5.41619V87.8542Z" fill="url(#paint28_linear_423_15663)"/>
<path d="M30.4276 87.8542C28.3349 87.8542 26.5791 86.1921 26.5791 83.997V65.5261C26.5791 63.3309 28.3427 61.6689 30.4276 61.6689H45.375C47.4678 61.6689 49.2236 63.3309 49.2236 65.5261V83.997C49.2236 86.1921 47.46 87.8542 45.375 87.8542H30.4276ZM44.6383 66.3885C44.6383 66.0592 44.3718 65.7926 44.0425 65.7926H31.7523C31.4231 65.7926 31.1566 66.0592 31.1566 66.3885V83.1346C31.1566 83.4638 31.4231 83.7304 31.7523 83.7304H44.0425C44.3718 83.7304 44.6383 83.4638 44.6383 83.1346V66.3885Z" fill="url(#paint29_linear_423_15663)"/>
<path d="M56.9992 87.8542C54.9064 87.8542 53.1428 86.1921 53.1428 83.997V61.6767H57.7282V83.1346C57.7282 83.4639 57.9947 83.7304 58.3239 83.7304H70.6141C70.9433 83.7304 71.2098 83.4639 71.2098 83.1346V61.6767H75.7951V83.997C75.7951 86.1921 74.0316 87.8542 71.9466 87.8542H56.9992Z" fill="url(#paint30_linear_423_15663)"/>
<path d="M95.3905 87.8542L84.3936 66.5923C84.3936 69.0854 84.4955 72.9035 84.4955 75.3966V87.8542H79.9102V61.6767H86.3845L97.2795 81.9743V61.6767H101.865V87.8542H95.3905Z" fill="url(#paint31_linear_423_15663)"/>
<path d="M106.191 87.8542V61.6767H123.396C126.484 61.6767 128.844 64.0365 128.844 67.1254V82.4055C128.844 85.4944 126.484 87.8542 123.396 87.8542H106.191ZM124.258 67.0549C124.258 66.3571 123.694 65.7927 122.996 65.7927H110.777V83.7304H122.996C123.694 83.7304 124.258 83.1659 124.258 82.4682V67.0549Z" fill="url(#paint32_linear_423_15663)"/>
<path d="M147.742 87.8542V65.7927H140.099V61.6767H159.961V65.7927H152.319V87.8542H147.734H147.742Z" fill="url(#paint33_linear_423_15663)"/>
<path d="M179.259 87.8542L173.843 77.2546H167.768V87.8542H163.183V61.6767H179.024C181.117 61.6767 182.872 63.3388 182.872 65.5339V73.4052C182.872 75.6004 181.109 77.2625 179.024 77.2625H178.922L184.432 87.862H179.251L179.259 87.8542ZM178.295 66.3885C178.295 66.0592 178.028 65.7927 177.699 65.7927H167.768V73.1308H177.699C178.028 73.1308 178.295 72.8643 178.295 72.535V66.3885Z" fill="url(#paint34_linear_423_15663)"/>
<path d="M205.133 87.8542L202.907 81.7077H192.114L189.888 87.8542H184.942L195.037 61.6767H200.022L210.118 87.8542H205.133ZM199.458 72.0724C199.027 70.9121 198.031 68.3171 197.53 66.757C196.997 68.3171 196.033 70.9121 195.602 72.0724L193.611 77.5839H201.449L199.458 72.0724Z" fill="url(#paint35_linear_423_15663)"/>
<path d="M215.8 87.8542C213.708 87.8542 211.952 86.1921 211.952 83.997V65.5261C211.952 63.3309 213.715 61.6689 215.8 61.6689H230.748C232.841 61.6689 234.596 63.3309 234.596 65.5261V71.406H230.011V66.3885C230.011 66.0592 229.745 65.7926 229.415 65.7926H217.125C216.796 65.7926 216.529 66.0592 216.529 66.3885V83.1346C216.529 83.4638 216.796 83.7304 217.125 83.7304H229.415C229.745 83.7304 230.011 83.4638 230.011 83.1346V78.0543H234.596V83.997C234.596 86.1921 232.833 87.8542 230.748 87.8542H215.8Z" fill="url(#paint36_linear_423_15663)"/>
<path d="M254.262 87.8542L245.758 75.7258L243.163 78.5169V87.8542H238.578V61.6767H243.163V72.1038L252.828 61.6767H258.808L248.979 72.2763L259.804 87.8542H254.254H254.262Z" fill="url(#paint37_linear_423_15663)"/>
</g>
<defs>
<linearGradient id="paint0_linear_423_15663" x1="1.06592" y1="36.3459" x2="259.804" y2="36.3459" gradientUnits="userSpaceOnUse">
<stop stop-color="#7C51A1"/>
<stop offset="0.5" stop-color="#70BAA6"/>
<stop offset="1" stop-color="#D6E03E"/>
</linearGradient>
<linearGradient id="paint1_linear_423_15663" x1="1.06595" y1="35.7657" x2="259.804" y2="35.7657" gradientUnits="userSpaceOnUse">
<stop stop-color="#7C51A1"/>
<stop offset="0.5" stop-color="#70BAA6"/>
<stop offset="1" stop-color="#D6E03E"/>
</linearGradient>
<linearGradient id="paint2_linear_423_15663" x1="1.06586" y1="40.2659" x2="259.804" y2="40.2659" gradientUnits="userSpaceOnUse">
<stop stop-color="#7C51A1"/>
<stop offset="0.5" stop-color="#70BAA6"/>
<stop offset="1" stop-color="#D6E03E"/>
</linearGradient>
<linearGradient id="paint3_linear_423_15663" x1="1.06586" y1="8.45721e-06" x2="259.804" y2="8.45721e-06" gradientUnits="userSpaceOnUse">
<stop stop-color="#7C51A1"/>
<stop offset="0.5" stop-color="#70BAA6"/>
<stop offset="1" stop-color="#D6E03E"/>
</linearGradient>
<linearGradient id="paint4_linear_423_15663" x1="1.0658" y1="32.0183" x2="259.804" y2="32.0183" gradientUnits="userSpaceOnUse">
<stop stop-color="#7C51A1"/>
<stop offset="0.5" stop-color="#70BAA6"/>
<stop offset="1" stop-color="#D6E03E"/>
</linearGradient>
<linearGradient id="paint5_linear_423_15663" x1="1.06591" y1="29.8309" x2="259.804" y2="29.8309" gradientUnits="userSpaceOnUse">
<stop stop-color="#7C51A1"/>
<stop offset="0.5" stop-color="#70BAA6"/>
<stop offset="1" stop-color="#D6E03E"/>
</linearGradient>
<linearGradient id="paint6_linear_423_15663" x1="1.06582" y1="2.94243e-06" x2="259.804" y2="2.94243e-06" gradientUnits="userSpaceOnUse">
<stop stop-color="#7C51A1"/>
<stop offset="0.5" stop-color="#70BAA6"/>
<stop offset="1" stop-color="#D6E03E"/>
</linearGradient>
<linearGradient id="paint7_linear_423_15663" x1="1.06595" y1="36.3616" x2="259.804" y2="36.3616" gradientUnits="userSpaceOnUse">
<stop stop-color="#7C51A1"/>
<stop offset="0.5" stop-color="#70BAA6"/>
<stop offset="1" stop-color="#D6E03E"/>
</linearGradient>
<linearGradient id="paint8_linear_423_15663" x1="1.06594" y1="2.94243e-06" x2="259.804" y2="2.94243e-06" gradientUnits="userSpaceOnUse">
<stop stop-color="#7C51A1"/>
<stop offset="0.5" stop-color="#70BAA6"/>
<stop offset="1" stop-color="#D6E03E"/>
</linearGradient>
<linearGradient id="paint9_linear_423_15663" x1="1.06601" y1="74.7615" x2="259.804" y2="74.7615" gradientUnits="userSpaceOnUse">
<stop stop-color="#7C51A1"/>
<stop offset="0.5" stop-color="#70BAA6"/>
<stop offset="1" stop-color="#D6E03E"/>
</linearGradient>
<linearGradient id="paint10_linear_423_15663" x1="1.06585" y1="74.7615" x2="259.804" y2="74.7615" gradientUnits="userSpaceOnUse">
<stop stop-color="#7C51A1"/>
<stop offset="0.5" stop-color="#70BAA6"/>
<stop offset="1" stop-color="#D6E03E"/>
</linearGradient>
<linearGradient id="paint11_linear_423_15663" x1="1.06601" y1="74.7615" x2="259.804" y2="74.7615" gradientUnits="userSpaceOnUse">
<stop stop-color="#7C51A1"/>
<stop offset="0.5" stop-color="#70BAA6"/>
<stop offset="1" stop-color="#D6E03E"/>
</linearGradient>
<linearGradient id="paint12_linear_423_15663" x1="1.06596" y1="74.7615" x2="259.804" y2="74.7615" gradientUnits="userSpaceOnUse">
<stop stop-color="#7C51A1"/>
<stop offset="0.5" stop-color="#70BAA6"/>
<stop offset="1" stop-color="#D6E03E"/>
</linearGradient>
<linearGradient id="paint13_linear_423_15663" x1="1.06581" y1="74.7615" x2="259.804" y2="74.7615" gradientUnits="userSpaceOnUse">
<stop stop-color="#7C51A1"/>
<stop offset="0.5" stop-color="#70BAA6"/>
<stop offset="1" stop-color="#D6E03E"/>
</linearGradient>
<linearGradient id="paint14_linear_423_15663" x1="1.06587" y1="74.7615" x2="259.804" y2="74.7615" gradientUnits="userSpaceOnUse">
<stop stop-color="#7C51A1"/>
<stop offset="0.5" stop-color="#70BAA6"/>
<stop offset="1" stop-color="#D6E03E"/>
</linearGradient>
<linearGradient id="paint15_linear_423_15663" x1="1.06596" y1="74.7615" x2="259.804" y2="74.7615" gradientUnits="userSpaceOnUse">
<stop stop-color="#7C51A1"/>
<stop offset="0.5" stop-color="#70BAA6"/>
<stop offset="1" stop-color="#D6E03E"/>
</linearGradient>
<linearGradient id="paint16_linear_423_15663" x1="1.06592" y1="74.7615" x2="259.812" y2="74.7615" gradientUnits="userSpaceOnUse">
<stop stop-color="#7C51A1"/>
<stop offset="0.5" stop-color="#70BAA6"/>
<stop offset="1" stop-color="#D6E03E"/>
</linearGradient>
<linearGradient id="paint17_linear_423_15663" x1="1.066" y1="74.7615" x2="259.804" y2="74.7615" gradientUnits="userSpaceOnUse">
<stop stop-color="#7C51A1"/>
<stop offset="0.5" stop-color="#70BAA6"/>
<stop offset="1" stop-color="#D6E03E"/>
</linearGradient>
<linearGradient id="paint18_linear_423_15663" x1="1.06596" y1="74.7615" x2="259.804" y2="74.7615" gradientUnits="userSpaceOnUse">
<stop stop-color="#7C51A1"/>
<stop offset="0.5" stop-color="#70BAA6"/>
<stop offset="1" stop-color="#D6E03E"/>
</linearGradient>
<linearGradient id="paint19_linear_423_15663" x1="1.06592" y1="36.3459" x2="259.804" y2="36.3459" gradientUnits="userSpaceOnUse">
<stop stop-color="#7C51A1"/>
<stop offset="0.5" stop-color="#70BAA6"/>
<stop offset="1" stop-color="#D6E03E"/>
</linearGradient>
<linearGradient id="paint20_linear_423_15663" x1="1.06595" y1="35.7657" x2="259.804" y2="35.7657" gradientUnits="userSpaceOnUse">
<stop stop-color="#7C51A1"/>
<stop offset="0.5" stop-color="#70BAA6"/>
<stop offset="1" stop-color="#D6E03E"/>
</linearGradient>
<linearGradient id="paint21_linear_423_15663" x1="1.06586" y1="40.2659" x2="259.812" y2="40.2659" gradientUnits="userSpaceOnUse">
<stop stop-color="#7C51A1"/>
<stop offset="0.5" stop-color="#70BAA6"/>
<stop offset="1" stop-color="#D6E03E"/>
</linearGradient>
<linearGradient id="paint22_linear_423_15663" x1="1.06586" y1="8.45721e-06" x2="259.804" y2="8.45721e-06" gradientUnits="userSpaceOnUse">
<stop stop-color="#7C51A1"/>
<stop offset="0.5" stop-color="#70BAA6"/>
<stop offset="1" stop-color="#D6E03E"/>
</linearGradient>
<linearGradient id="paint23_linear_423_15663" x1="1.0658" y1="32.0183" x2="259.804" y2="32.0183" gradientUnits="userSpaceOnUse">
<stop stop-color="#7C51A1"/>
<stop offset="0.5" stop-color="#70BAA6"/>
<stop offset="1" stop-color="#D6E03E"/>
</linearGradient>
<linearGradient id="paint24_linear_423_15663" x1="1.06591" y1="29.8309" x2="259.804" y2="29.8309" gradientUnits="userSpaceOnUse">
<stop stop-color="#7C51A1"/>
<stop offset="0.5" stop-color="#70BAA6"/>
<stop offset="1" stop-color="#D6E03E"/>
</linearGradient>
<linearGradient id="paint25_linear_423_15663" x1="1.06582" y1="2.94243e-06" x2="259.804" y2="2.94243e-06" gradientUnits="userSpaceOnUse">
<stop stop-color="#7C51A1"/>
<stop offset="0.5" stop-color="#70BAA6"/>
<stop offset="1" stop-color="#D6E03E"/>
</linearGradient>
<linearGradient id="paint26_linear_423_15663" x1="1.06595" y1="36.3616" x2="259.804" y2="36.3616" gradientUnits="userSpaceOnUse">
<stop stop-color="#7C51A1"/>
<stop offset="0.5" stop-color="#70BAA6"/>
<stop offset="1" stop-color="#D6E03E"/>
</linearGradient>
<linearGradient id="paint27_linear_423_15663" x1="1.06594" y1="2.94243e-06" x2="259.804" y2="2.94243e-06" gradientUnits="userSpaceOnUse">
<stop stop-color="#7C51A1"/>
<stop offset="0.5" stop-color="#70BAA6"/>
<stop offset="1" stop-color="#D6E03E"/>
</linearGradient>
<linearGradient id="paint28_linear_423_15663" x1="1.06601" y1="74.7615" x2="259.804" y2="74.7615" gradientUnits="userSpaceOnUse">
<stop stop-color="#7C51A1"/>
<stop offset="0.5" stop-color="#70BAA6"/>
<stop offset="1" stop-color="#D6E03E"/>
</linearGradient>
<linearGradient id="paint29_linear_423_15663" x1="1.06585" y1="74.7615" x2="259.804" y2="74.7615" gradientUnits="userSpaceOnUse">
<stop stop-color="#7C51A1"/>
<stop offset="0.5" stop-color="#70BAA6"/>
<stop offset="1" stop-color="#D6E03E"/>
</linearGradient>
<linearGradient id="paint30_linear_423_15663" x1="1.06601" y1="74.7615" x2="259.804" y2="74.7615" gradientUnits="userSpaceOnUse">
<stop stop-color="#7C51A1"/>
<stop offset="0.5" stop-color="#70BAA6"/>
<stop offset="1" stop-color="#D6E03E"/>
</linearGradient>
<linearGradient id="paint31_linear_423_15663" x1="1.06596" y1="74.7615" x2="259.804" y2="74.7615" gradientUnits="userSpaceOnUse">
<stop stop-color="#7C51A1"/>
<stop offset="0.5" stop-color="#70BAA6"/>
<stop offset="1" stop-color="#D6E03E"/>
</linearGradient>
<linearGradient id="paint32_linear_423_15663" x1="1.06581" y1="74.7615" x2="259.804" y2="74.7615" gradientUnits="userSpaceOnUse">
<stop stop-color="#7C51A1"/>
<stop offset="0.5" stop-color="#70BAA6"/>
<stop offset="1" stop-color="#D6E03E"/>
</linearGradient>
<linearGradient id="paint33_linear_423_15663" x1="1.06587" y1="74.7615" x2="259.812" y2="74.7615" gradientUnits="userSpaceOnUse">
<stop stop-color="#7C51A1"/>
<stop offset="0.5" stop-color="#70BAA6"/>
<stop offset="1" stop-color="#D6E03E"/>
</linearGradient>
<linearGradient id="paint34_linear_423_15663" x1="1.06596" y1="74.7615" x2="259.804" y2="74.7615" gradientUnits="userSpaceOnUse">
<stop stop-color="#7C51A1"/>
<stop offset="0.5" stop-color="#70BAA6"/>
<stop offset="1" stop-color="#D6E03E"/>
</linearGradient>
<linearGradient id="paint35_linear_423_15663" x1="1.06591" y1="74.7615" x2="259.804" y2="74.7615" gradientUnits="userSpaceOnUse">
<stop stop-color="#7C51A1"/>
<stop offset="0.5" stop-color="#70BAA6"/>
<stop offset="1" stop-color="#D6E03E"/>
</linearGradient>
<linearGradient id="paint36_linear_423_15663" x1="1.066" y1="74.7615" x2="259.804" y2="74.7615" gradientUnits="userSpaceOnUse">
<stop stop-color="#7C51A1"/>
<stop offset="0.5" stop-color="#70BAA6"/>
<stop offset="1" stop-color="#D6E03E"/>
</linearGradient>
<linearGradient id="paint37_linear_423_15663" x1="1.05812" y1="74.7615" x2="259.804" y2="74.7615" gradientUnits="userSpaceOnUse">
<stop stop-color="#7C51A1"/>
<stop offset="0.5" stop-color="#70BAA6"/>
<stop offset="1" stop-color="#D6E03E"/>
</linearGradient>
<clipPath id="clip0_423_15663">
<rect width="260" height="134" fill="white"/>
</clipPath>
</defs>
</svg>
