<svg width="261" height="57" viewBox="0 0 261 57" fill="none" xmlns="http://www.w3.org/2000/svg">
<g clip-path="url(#clip0_394_10723)">
<path d="M36.6196 38.5368H9.68967V13.5082H26.93V28.5202H19.3498V24.1007H22.6569V17.9277H13.9628V34.1173H32.3465V7.60018H4.27311V38.5368H0V3.18066H36.6196V38.5368Z" fill="#DDDDDD"/>
<path d="M65.6885 18.0094L66.1814 24.4322L72.4949 23.9174L66.275 34.1531L56.1024 20.9455L67.867 3.72116L62.7757 0L49.6606 19.2073L49.7691 23.0712L64.136 41.7178L69.2125 41.4272L81.0757 21.909L78.1924 16.9797L65.6885 18.0094Z" fill="#DDDDDD"/>
<path d="M125.69 3.72116L137.459 20.9455L127.287 34.1531L121.062 23.9174L127.375 24.4322L127.868 18.0094L115.364 16.9797L112.481 21.909L124.349 41.4272L129.421 41.7178L143.792 23.0712L143.901 19.2073L130.781 0L125.69 3.72116Z" fill="#DDDDDD"/>
<path d="M108.76 3.03834L103.175 0.168457L96.9851 13.0447L91.1004 0.224529L85.4669 2.98736L93.4612 20.3851L84.6636 38.6799L90.2477 41.5498L96.857 27.7917L103.151 41.4988L108.784 38.7309L100.386 20.4513L108.76 3.03834Z" fill="#DDDDDD"/>
<path d="M165.503 1.38672L161.496 5.99994L172.556 16.2714L156.449 40.3365H178.12V34.1329H167.893L180.491 15.3079L165.503 1.38672Z" fill="#DDDDDD"/>
<path d="M218.584 1.38672L214.577 5.99994L225.637 16.2714L209.53 40.3365H231.201V34.1329H220.975L233.577 15.3079L218.584 1.38672Z" fill="#DDDDDD"/>
<path d="M196.244 17.7252L193.062 21.0161L196.244 24.307L199.426 21.0161L196.244 17.7252Z" fill="#DDDDDD"/>
<path d="M195.932 1.45801L182.995 21.384L196.055 40.2651L209.53 20.4818L195.927 1.45801H195.932ZM196.031 30.2842L189.954 21.226L196.159 12.2086L202.492 20.4818L196.031 30.2893V30.2842Z" fill="#DDDDDD"/>
<path d="M154.462 15.9288L149.318 21.249L154.462 26.5692L159.606 21.249L154.462 15.9288Z" fill="#DDDDDD"/>
<path d="M260.236 22.6532L257.077 23.0712L257.826 4.19011L252.266 2.44678L237.899 26.7974L240.842 31.4922L250.783 30.1669L250.433 39.0161L256.426 39.271L256.82 29.3615L260.995 28.8058L260.231 22.6532H260.236ZM251.039 23.8766L246.283 24.5087L251.359 15.9041L251.044 23.8715L251.039 23.8766Z" fill="#DDDDDD"/>
<path d="M2.11446 56.8777C1.70046 56.8777 1.40967 56.577 1.40967 56.1488V51.3622C1.40967 50.9341 1.70046 50.6333 2.11446 50.6333H5.68278C6.09679 50.6333 6.38757 50.9341 6.38757 51.3622V52.8252H5.58914V51.4846C5.58914 51.4081 5.54478 51.3571 5.46592 51.3571H2.32639C2.25246 51.3571 2.20318 51.403 2.20318 51.4846V56.0162C2.20318 56.0978 2.24753 56.1437 2.32639 56.1437H5.46592C5.54478 56.1437 5.58914 56.0978 5.58914 56.0162V54.1862H3.84933V53.4573H6.38265V56.1437C6.38265 56.5719 6.09186 56.8726 5.67785 56.8726H2.10953L2.11446 56.8777Z" fill="#DDDDDD"/>
<path d="M12.6027 56.8776C12.1887 56.8776 11.8979 56.5768 11.8979 56.1487V55.0374C11.8979 54.6092 12.1493 54.3492 12.5633 54.3492H14.8009V53.5591C14.8009 53.4827 14.7565 53.4317 14.6777 53.4317H12.8787C12.7999 53.4317 12.7555 53.4776 12.7555 53.5591V54.0128H11.9768V53.4521C11.9768 53.0239 12.2676 52.7231 12.6816 52.7231H14.8798C15.2938 52.7231 15.5846 53.0239 15.5846 53.4521V56.1537C15.5846 56.5819 15.2938 56.8827 14.8798 56.8827H12.6077L12.6027 56.8776ZM14.8009 55.0476H12.7999C12.721 55.0476 12.6767 55.0935 12.6767 55.175V56.0365C12.6767 56.1181 12.721 56.1639 12.7999 56.1639H14.6777C14.7565 56.1639 14.8009 56.1181 14.8009 56.0365V55.0476Z" fill="#DDDDDD"/>
<path d="M25.8704 56.8778V53.5593C25.8704 53.4829 25.826 53.4319 25.7471 53.4319H24.308V56.8778H23.5293V53.4319H21.9521V56.8778H21.1685V52.7183H25.9492C26.3632 52.7183 26.654 53.019 26.654 53.4472V56.8778H25.8753H25.8704Z" fill="#DDDDDD"/>
<path d="M32.9284 56.8778C32.5144 56.8778 32.2236 56.5771 32.2236 56.1489V53.4472C32.2236 53.019 32.5144 52.7183 32.9284 52.7183H35.2399C35.654 52.7183 35.9447 53.019 35.9447 53.4472V54.5483C35.9447 54.9764 35.6934 55.2364 35.2794 55.2364H33.0073V56.0367C33.0073 56.1183 33.0516 56.1642 33.1305 56.1642H34.9689C35.0477 56.1642 35.0921 56.1183 35.0921 56.0367V55.5779H35.8708V56.1489C35.8708 56.5771 35.58 56.8778 35.166 56.8778H32.9284ZM35.166 53.5593C35.166 53.4829 35.1217 53.4319 35.0428 53.4319H33.1305C33.0516 53.4319 33.0073 53.4778 33.0073 53.5593V54.5432H35.0428C35.1217 54.5432 35.166 54.4973 35.166 54.4157V53.5593Z" fill="#DDDDDD"/>
<path d="M48.7639 56.8778C48.3499 56.8778 48.0591 56.5771 48.0591 56.1489V53.4472C48.0591 53.019 48.3499 52.7183 48.7639 52.7183H51.0409C51.4549 52.7183 51.7457 53.019 51.7457 53.4472V54.1914H50.967V53.5593C50.967 53.4829 50.9226 53.4319 50.8438 53.4319H48.9659C48.8871 53.4319 48.8427 53.4778 48.8427 53.5593V56.0367C48.8427 56.1183 48.8871 56.1642 48.9659 56.1642H50.8438C50.9226 56.1642 50.967 56.1183 50.967 56.0367V55.1905H51.7457V56.1489C51.7457 56.5771 51.4549 56.8778 51.0409 56.8778H48.7639Z" fill="#DDDDDD"/>
<path d="M58.0197 56.8778C57.6057 56.8778 57.3149 56.5771 57.3149 56.1489V52.7183H58.0937V56.0367C58.0937 56.1183 58.138 56.1642 58.2169 56.1642H60.1686C60.2475 56.1642 60.2918 56.1183 60.2918 56.0367V52.7183H61.0755V56.1489C61.0755 56.5771 60.7847 56.8778 60.3707 56.8778H58.0197Z" fill="#DDDDDD"/>
<path d="M66.7236 56.8776V50.3579H67.5024V56.8776H66.7236Z" fill="#DDDDDD"/>
<path d="M74.5453 56.8774C74.1313 56.8774 73.8406 56.5766 73.8406 56.1484V53.4315H72.9238V52.7178H73.8406V50.7451H74.6193V52.7178H75.7085V53.4315H74.6193V56.0363C74.6193 56.1179 74.6636 56.1637 74.7425 56.1637H75.5853V56.8774H74.5453Z" fill="#DDDDDD"/>
<path d="M81.8103 56.8778C81.3963 56.8778 81.1055 56.5771 81.1055 56.1489V52.7183H81.8842V56.0367C81.8842 56.1183 81.9285 56.1642 82.0074 56.1642H83.9591C84.038 56.1642 84.0824 56.1183 84.0824 56.0367V52.7183H84.866V56.1489C84.866 56.5771 84.5752 56.8778 84.1612 56.8778H81.8103Z" fill="#DDDDDD"/>
<path d="M90.4551 56.8778V53.4472C90.4551 53.019 90.7459 52.7183 91.1599 52.7183H92.875V53.4319H91.357C91.2782 53.4319 91.2338 53.4778 91.2338 53.5593V56.8778H90.4551Z" fill="#DDDDDD"/>
<path d="M98.8928 56.8778C98.4788 56.8778 98.188 56.5771 98.188 56.1489V53.4472C98.188 53.019 98.4788 52.7183 98.8928 52.7183H101.204C101.618 52.7183 101.909 53.019 101.909 53.4472V54.5483C101.909 54.9764 101.658 55.2364 101.244 55.2364H98.9716V56.0367C98.9716 56.1183 99.016 56.1642 99.0949 56.1642H100.933C101.007 56.1642 101.056 56.1183 101.056 56.0367V55.5779H101.835V56.1489C101.835 56.5771 101.544 56.8778 101.13 56.8778H98.8928ZM101.13 53.5593C101.13 53.4829 101.086 53.4319 101.007 53.4319H99.0949C99.016 53.4319 98.9716 53.4778 98.9716 53.5593V54.5432H101.007C101.086 54.5432 101.13 54.4973 101.13 54.4157V53.5593Z" fill="#DDDDDD"/>
<path d="M117.888 56.8775L116.227 54.3033L114.566 56.8775H113.615L115.744 53.6559L113.694 50.6382H114.63L116.232 53.0391L117.834 50.6382H118.77L116.72 53.6559L118.849 56.8775H117.898H117.888Z" fill="#DDDDDD"/>
<path d="M131.338 56.8777C130.924 56.8777 130.633 56.577 130.633 56.1488V51.3622C130.633 50.9341 130.924 50.6333 131.338 50.6333H134.906C135.32 50.6333 135.611 50.9341 135.611 51.3622V52.8252H134.813V51.4846C134.813 51.4081 134.768 51.3571 134.69 51.3571H131.55C131.471 51.3571 131.427 51.403 131.427 51.4846V56.0162C131.427 56.0978 131.471 56.1437 131.55 56.1437H134.69C134.768 56.1437 134.813 56.0978 134.813 56.0162V54.1862H133.073V53.4573H135.606V56.1437C135.606 56.5719 135.315 56.8726 134.901 56.8726H131.333L131.338 56.8777Z" fill="#DDDDDD"/>
<path d="M141.861 56.8778C141.447 56.8778 141.156 56.5771 141.156 56.1489V53.4472C141.156 53.019 141.447 52.7183 141.861 52.7183H144.172C144.586 52.7183 144.877 53.019 144.877 53.4472V54.5483C144.877 54.9764 144.626 55.2364 144.212 55.2364H141.934V56.0367C141.934 56.1183 141.979 56.1642 142.058 56.1642H143.896C143.975 56.1642 144.019 56.1183 144.019 56.0367V55.5779H144.798V56.1489C144.798 56.5771 144.507 56.8778 144.093 56.8778H141.856H141.861ZM144.093 53.5593C144.093 53.4829 144.049 53.4319 143.97 53.4319H142.058C141.979 53.4319 141.934 53.4778 141.934 53.5593V54.5432H143.97C144.044 54.5432 144.093 54.4973 144.093 54.4157V53.5593Z" fill="#DDDDDD"/>
<path d="M153.443 56.8778V53.5593C153.443 53.4829 153.398 53.4319 153.32 53.4319H151.245V56.8778H150.461V52.7183H153.517C153.931 52.7183 154.221 53.019 154.221 53.4472V56.8778H153.443Z" fill="#DDDDDD"/>
<path d="M160.501 56.8778C160.087 56.8778 159.796 56.5771 159.796 56.1489V53.4472C159.796 53.019 160.087 52.7183 160.501 52.7183H162.812C163.226 52.7183 163.517 53.019 163.517 53.4472V54.5483C163.517 54.9764 163.266 55.2364 162.852 55.2364H160.58V56.0367C160.58 56.1183 160.624 56.1642 160.703 56.1642H162.541C162.62 56.1642 162.664 56.1183 162.664 56.0367V55.5779H163.448V56.1489C163.448 56.5771 163.157 56.8778 162.743 56.8778H160.506H160.501ZM162.738 53.5593C162.738 53.4829 162.694 53.4319 162.615 53.4319H160.698C160.619 53.4319 160.575 53.4778 160.575 53.5593V54.5432H162.61C162.684 54.5432 162.733 54.4973 162.733 54.4157V53.5593H162.738Z" fill="#DDDDDD"/>
<path d="M169.062 56.8778V53.4472C169.062 53.019 169.352 52.7183 169.766 52.7183H171.481V53.4319H169.963C169.89 53.4319 169.84 53.4778 169.84 53.5593V56.8778H169.062Z" fill="#DDDDDD"/>
<path d="M177.465 56.8776C177.051 56.8776 176.76 56.5768 176.76 56.1487V55.0374C176.76 54.6092 177.012 54.3492 177.426 54.3492H179.663V53.5591C179.663 53.4827 179.619 53.4317 179.54 53.4317H177.741C177.667 53.4317 177.618 53.4776 177.618 53.5591V54.0128H176.839V53.4521C176.839 53.0239 177.13 52.7231 177.544 52.7231H179.742C180.156 52.7231 180.447 53.0239 180.447 53.4521V56.1537C180.447 56.5819 180.156 56.8827 179.742 56.8827H177.47L177.465 56.8776ZM179.663 55.0476H177.662C177.583 55.0476 177.539 55.0935 177.539 55.175V56.0365C177.539 56.1181 177.583 56.1639 177.662 56.1639H179.54C179.619 56.1639 179.663 56.1181 179.663 56.0365V55.0476Z" fill="#DDDDDD"/>
<path d="M187.381 56.8774C186.967 56.8774 186.676 56.5766 186.676 56.1484V53.4315H185.76V52.7178H186.676V50.7451H187.455V52.7178H188.544V53.4315H187.455V56.0363C187.455 56.1179 187.5 56.1637 187.578 56.1637H188.421V56.8774H187.381Z" fill="#DDDDDD"/>
<path d="M193.986 51.6425V50.3579H194.769V51.6425H193.986ZM193.986 56.8776V52.718H194.769V56.8776H193.986Z" fill="#DDDDDD"/>
<path d="M201.092 56.8778C200.678 56.8778 200.388 56.5771 200.388 56.1489V53.4472C200.388 53.019 200.678 52.7183 201.092 52.7183H203.443C203.857 52.7183 204.148 53.019 204.148 53.4472V56.1489C204.148 56.5771 203.857 56.8778 203.443 56.8778H201.092ZM203.365 53.5593C203.365 53.4829 203.32 53.4319 203.241 53.4319H201.29C201.211 53.4319 201.166 53.4778 201.166 53.5593V56.0367C201.166 56.1183 201.211 56.1642 201.29 56.1642H203.241C203.315 56.1642 203.365 56.1183 203.365 56.0367V53.5593Z" fill="#DDDDDD"/>
<path d="M212.744 56.8778V53.5593C212.744 53.4829 212.7 53.4319 212.621 53.4319H210.546V56.8778H209.762V52.7183H212.818C213.232 52.7183 213.523 53.019 213.523 53.4472V56.8778H212.744Z" fill="#DDDDDD"/>
<path d="M225.711 56.8774V54.7926C225.711 54.2879 225.824 54.033 226.224 53.9209L228.959 53.3653C229.053 53.3398 229.082 53.2684 229.082 53.1665V51.4843C229.082 51.4078 229.038 51.3569 228.959 51.3569H226.702C226.623 51.3569 226.578 51.4027 226.578 51.4843V52.7026H225.785V51.3569C225.785 50.9287 226.076 50.6279 226.49 50.6279H229.176C229.59 50.6279 229.881 50.9287 229.881 51.3569V53.1206C229.881 53.6252 229.743 53.8954 229.353 54.0076L226.638 54.5479C226.554 54.5734 226.514 54.6345 226.514 54.7365V56.1383H229.984V56.8672H225.721L225.711 56.8774Z" fill="#DDDDDD"/>
<path d="M236.293 56.8777C235.879 56.8777 235.588 56.577 235.588 56.1488V51.3622C235.588 50.9341 235.879 50.6333 236.293 50.6333H239.098C239.512 50.6333 239.802 50.9341 239.802 51.3622V56.1488C239.802 56.577 239.512 56.8777 239.098 56.8777H236.293ZM239.004 51.4948C239.004 51.4183 238.96 51.3673 238.881 51.3673H236.505C236.426 51.3673 236.382 51.4132 236.382 51.4948V56.0264C236.382 56.108 236.426 56.1539 236.505 56.1539H238.881C238.96 56.1539 239.004 56.108 239.004 56.0264V51.4948Z" fill="#DDDDDD"/>
<path d="M245.421 56.8774V54.7926C245.421 54.2879 245.534 54.033 245.933 53.9209L248.669 53.3653C248.763 53.3398 248.792 53.2684 248.792 53.1665V51.4843C248.792 51.4078 248.748 51.3569 248.669 51.3569H246.412C246.333 51.3569 246.288 51.4027 246.288 51.4843V52.7026H245.495V51.3569C245.495 50.9287 245.786 50.6279 246.2 50.6279H248.886C249.3 50.6279 249.591 50.9287 249.591 51.3569V53.1206C249.591 53.6252 249.453 53.8954 249.063 54.0076L246.343 54.5479C246.259 54.5734 246.219 54.6345 246.219 54.7365V56.1383H249.689V56.8672H245.426L245.421 56.8774Z" fill="#DDDDDD"/>
<path d="M258.196 57.0001V55.6697H255.086V54.8643L257.964 50.6436H258.989V54.9458H259.822V55.6748H258.989V57.0052H258.191L258.196 57.0001ZM258.196 51.6121L255.924 54.9407H258.196V51.6121Z" fill="#DDDDDD"/>
</g>
<defs>
<clipPath id="clip0_394_10723">
<rect width="261" height="57" fill="white"/>
</clipPath>
</defs>
</svg>
