<svg width="126" height="120" viewBox="0 0 126 120" fill="none" xmlns="http://www.w3.org/2000/svg">
<path d="M43.1997 13.2178H11.5002" stroke="#ED0773" stroke-width="6" stroke-linecap="round" stroke-linejoin="round"/>
<path d="M112.2 13.2178H75.2744" stroke="#ED0773" stroke-width="6" stroke-linecap="round" stroke-linejoin="round"/>
<path d="M16.0063 21.7701L5.08521 13.2176L16.0063 4.66504C16.0063 4.66504 16.0533 4.66504 16.0533 4.68059V21.739C16.0533 21.739 16.022 21.7701 16.0063 21.7546V21.7701Z" stroke="#ED0773" stroke-width="6" stroke-linecap="round" stroke-linejoin="round"/>
<path d="M109.994 4.66504L120.915 13.2176L109.994 21.7701C109.994 21.7701 109.947 21.7701 109.947 21.7546V4.69614C109.947 4.69614 109.978 4.66504 109.994 4.68059V4.66504Z" stroke="#ED0773" stroke-width="6" stroke-linecap="round" stroke-linejoin="round"/>
<path d="M80 45.8097C80 40.6937 84.6782 36.5107 89.8259 36.5107C94.9735 36.5107 99.6518 40.6937 99.6518 45.8097V56.0416" stroke="white" stroke-width="6" stroke-linecap="round" stroke-linejoin="round"/>
<path d="M60.3481 42.3582V41.8917C60.3481 36.7757 65.0264 32.5928 70.174 32.5928C75.3217 32.5928 79.9999 36.7757 79.9999 41.8917V59.9298" stroke="white" stroke-width="6" stroke-linecap="round" stroke-linejoin="round"/>
<path d="M40.6963 76.0552V20.8058C40.6963 15.6898 45.3745 11.5068 50.5222 11.5068C55.6698 11.5068 60.348 15.6898 60.348 20.8058V59.9298" stroke="white" stroke-width="6" stroke-linecap="round" stroke-linejoin="round"/>
<path d="M99.6512 59.945V49.713C99.6512 44.597 104.799 40.4141 109.946 40.4141C115.094 40.4141 119.303 44.597 119.303 49.713V93.5643C119.303 105.584 109.493 115.334 97.3981 115.334H54.4177C46.0313 115.334 38.3803 110.576 34.719 103.081L27.6939 88.6971C23.1564 79.4137 25.6285 68.2487 33.6551 61.7177L40.5864 56.073" stroke="white" stroke-width="6" stroke-linecap="round" stroke-linejoin="round"/>
</svg>
