<svg width="192" height="40" viewBox="0 0 192 40" fill="none" xmlns="http://www.w3.org/2000/svg">
<g clip-path="url(#clip0_268_3912)">
<path d="M26.9386 32.7126H7.12803V14.714H19.8106V25.5095H14.2343V22.3313H16.6671V17.8922H10.2715V29.5344H23.7951V10.4655H3.14344V32.7126H0V7.28735H26.9386V32.7126Z" fill="white"/>
<path d="M48.3228 17.9509L48.6854 22.5696L53.3299 22.1994L48.7543 29.5601L41.271 20.0623L49.9254 7.67595L46.1801 5L36.5322 18.8123L36.612 21.5909L47.1808 35L50.9152 34.7911L59.6421 20.7551L57.5211 17.2104L48.3228 17.9509Z" fill="white"/>
<path d="M92.4614 7.67595L101.119 20.0623L93.6361 29.5601L89.0569 22.1994L93.7013 22.5696L94.0639 17.9509L84.8656 17.2104L82.7446 20.7551L91.4752 34.7911L95.206 35L105.778 21.5909L105.858 18.8123L96.2067 5L92.4614 7.67595Z" fill="white"/>
<path d="M80.0075 7.18475L75.8997 5.12097L71.3459 14.3805L67.0168 5.16129L62.8727 7.1481L68.7535 19.6591L62.2817 32.8153L66.3896 34.879L71.2516 24.9853L75.8816 34.8424L80.0257 32.8519L73.8476 19.7067L80.0075 7.18475Z" fill="white"/>
<path d="M121.75 5.99707L118.802 9.31452L126.938 16.7009L115.089 34.0066H131.031V29.5455H123.508L132.775 16.0081L121.75 5.99707Z" fill="white"/>
<path d="M160.798 5.99707L157.85 9.31452L165.986 16.7009L154.138 34.0066H170.08V29.5455H162.556L171.827 16.0081L160.798 5.99707Z" fill="white"/>
<path d="M144.364 17.7465L142.023 20.113L144.364 22.4796L146.704 20.113L144.364 17.7465Z" fill="white"/>
<path d="M144.135 6.04834L134.617 20.3775L144.225 33.9552L154.138 19.7287L144.131 6.04834H144.135ZM144.207 26.7778L139.737 20.2639L144.301 13.7793L148.96 19.7287L144.207 26.7815V26.7778Z" fill="white"/>
<path d="M113.628 16.4546L109.844 20.2804L113.628 24.1062L117.412 20.2804L113.628 16.4546Z" fill="white"/>
<path d="M191.438 21.2903L189.114 21.5909L189.665 8.01319L185.576 6.75952L175.007 24.2705L177.171 27.6466L184.484 26.6935L184.227 33.0572L188.636 33.2405L188.926 26.1144L191.997 25.7148L191.435 21.2903H191.438ZM184.673 22.1701L181.174 22.6246L184.908 16.4369L184.676 22.1664L184.673 22.1701Z" fill="white"/>
</g>
<defs>
<clipPath id="clip0_268_3912">
<rect width="192" height="30" fill="white" transform="translate(0 5)"/>
</clipPath>
</defs>
</svg>
