<svg width="490" height="106" viewBox="0 0 490 106" fill="none" xmlns="http://www.w3.org/2000/svg">
<g clip-path="url(#clip0_434_4602)">
<path d="M68.7495 71.6651H18.1913V25.1207H50.5582V53.0379H36.3271V44.8191H42.5359V33.3394H26.2136V63.4464H60.7272V14.1339H8.02232V71.6651H0V5.91516H68.7495V71.6651Z" fill="#ED0673"/>
<path d="M123.324 33.4911L124.249 45.4353L136.102 44.4779L124.425 63.5128L105.327 38.9513L127.414 6.92005L117.856 0L93.2334 35.7188L93.437 42.9043L120.409 77.5804L129.94 77.0401L152.212 40.743L146.799 31.5763L123.324 33.4911Z" fill="#ED0673"/>
<path d="M235.97 6.92005L258.066 38.9513L238.968 63.5128L227.281 44.4779L239.134 45.4353L240.06 33.4911L216.585 31.5763L211.172 40.743L233.453 77.0401L242.974 77.5804L269.956 42.9043L270.16 35.7188L245.528 0L235.97 6.92005Z" fill="#ED0673"/>
<path d="M204.186 5.64984L193.702 0.312866L182.081 24.2581L171.033 0.417141L160.456 5.55504L175.465 37.9086L158.948 71.9306L169.432 77.2676L181.84 51.6824L193.656 77.1728L204.232 72.0254L188.465 38.0319L204.186 5.64984Z" fill="#ED0673"/>
<path d="M310.715 2.57867L303.193 11.1576L323.956 30.2589L293.718 75.0117H334.403V63.4751H315.203L338.854 28.4672L310.715 2.57867Z" fill="#ED0673"/>
<path d="M410.369 2.57867L402.847 11.1576L423.61 30.2589L393.372 75.0117H434.057V63.4751H414.857L438.517 28.4672L410.369 2.57867Z" fill="#ED0673"/>
<path d="M368.428 32.9623L362.455 39.0822L368.428 45.2021L374.402 39.0822L368.428 32.9623Z" fill="#ED0673"/>
<path d="M367.842 2.7113L343.553 39.7668L368.074 74.8789L393.371 38.0889L367.833 2.7113H367.842ZM368.027 56.318L356.618 39.4729L368.268 22.7036L380.158 38.0889L368.027 56.3275V56.318Z" fill="#ED0673"/>
<path d="M289.988 29.6216L280.331 39.5153L289.988 49.4089L299.646 39.5153L289.988 29.6216Z" fill="#ED0673"/>
<path d="M488.566 42.1269L482.635 42.9042L484.042 7.79205L473.604 4.55005L446.632 49.8337L452.156 58.5644L470.819 56.0997L470.162 72.5561L481.414 73.0301L482.154 54.6019L489.991 53.5687L488.557 42.1269H488.566ZM471.3 44.402L462.371 45.5774L471.902 29.576L471.309 44.3925L471.3 44.402Z" fill="#ED0673"/>
<path d="M3.96966 105.773C3.19241 105.773 2.64648 105.213 2.64648 104.417V95.5159C2.64648 94.7196 3.19241 94.1603 3.96966 94.1603H10.6688C11.4461 94.1603 11.992 94.7196 11.992 95.5159V98.2365H10.493V95.7434C10.493 95.6012 10.4097 95.5064 10.2617 95.5064H4.36754C4.22874 95.5064 4.13621 95.5917 4.13621 95.7434V104.171C4.13621 104.322 4.21949 104.408 4.36754 104.408H10.2617C10.4097 104.408 10.493 104.322 10.493 104.171V100.768H7.2267V99.412H11.9827V104.408C11.9827 105.204 11.4368 105.763 10.6596 105.763H3.96041L3.96966 105.773Z" fill="#ED0673"/>
<path d="M23.6601 105.773C22.8828 105.773 22.3369 105.213 22.3369 104.417V102.351C22.3369 101.554 22.8088 101.071 23.5861 101.071H27.7869V99.6015C27.7869 99.4593 27.7036 99.3645 27.5556 99.3645H24.1783C24.0302 99.3645 23.9469 99.4498 23.9469 99.6015V100.445H22.485V99.4024C22.485 98.6061 23.0309 98.0468 23.8081 98.0468H27.935C28.7122 98.0468 29.2581 98.6061 29.2581 99.4024V104.427C29.2581 105.223 28.7122 105.782 27.935 105.782H23.6693L23.6601 105.773ZM27.7869 102.369H24.0302C23.8822 102.369 23.7989 102.455 23.7989 102.606V104.209C23.7989 104.36 23.8822 104.445 24.0302 104.445H27.5556C27.7036 104.445 27.7869 104.36 27.7869 104.209V102.369Z" fill="#ED0673"/>
<path d="M48.569 105.772V99.6012C48.569 99.459 48.4858 99.3642 48.3377 99.3642H45.6358V105.772H44.1739V99.3642H41.2129V105.772H39.7417V98.0371H48.7171C49.4943 98.0371 50.0403 98.5964 50.0403 99.3927V105.772H48.5783H48.569Z" fill="#ED0673"/>
<path d="M61.8193 105.772C61.042 105.772 60.4961 105.213 60.4961 104.417V99.3927C60.4961 98.5964 61.042 98.0371 61.8193 98.0371H66.1589C66.9362 98.0371 67.4821 98.5964 67.4821 99.3927V101.44C67.4821 102.237 67.0102 102.72 66.2329 102.72H61.9673V104.208C61.9673 104.36 62.0506 104.445 62.1986 104.445H65.65C65.798 104.445 65.8813 104.36 65.8813 104.208V103.355H67.3433V104.417C67.3433 105.213 66.7974 105.772 66.0201 105.772H61.8193ZM66.0201 99.6012C66.0201 99.459 65.9368 99.3642 65.7888 99.3642H62.1986C62.0506 99.3642 61.9673 99.4496 61.9673 99.6012V101.431H65.7888C65.9368 101.431 66.0201 101.345 66.0201 101.194V99.6012Z" fill="#ED0673"/>
<path d="M91.5492 105.772C90.772 105.772 90.2261 105.213 90.2261 104.417V99.3927C90.2261 98.5964 90.772 98.0371 91.5492 98.0371H95.8241C96.6014 98.0371 97.1473 98.5964 97.1473 99.3927V100.777H95.6853V99.6012C95.6853 99.459 95.602 99.3642 95.454 99.3642H91.9286C91.7806 99.3642 91.6973 99.4496 91.6973 99.6012V104.208C91.6973 104.36 91.7806 104.445 91.9286 104.445H95.454C95.602 104.445 95.6853 104.36 95.6853 104.208V102.635H97.1473V104.417C97.1473 105.213 96.6014 105.772 95.8241 105.772H91.5492Z" fill="#ED0673"/>
<path d="M108.926 105.772C108.149 105.772 107.603 105.213 107.603 104.417V98.0371H109.065V104.208C109.065 104.36 109.148 104.445 109.296 104.445H112.96C113.109 104.445 113.192 104.36 113.192 104.208V98.0371H114.663V104.417C114.663 105.213 114.117 105.772 113.34 105.772H108.926Z" fill="#ED0673"/>
<path d="M125.267 105.773V93.6483H126.729V105.773H125.267Z" fill="#ED0673"/>
<path d="M139.951 105.773C139.174 105.773 138.628 105.213 138.628 104.417V99.3645H136.907V98.0373H138.628V94.3688H140.09V98.0373H142.135V99.3645H140.09V104.209C140.09 104.36 140.174 104.446 140.322 104.446H141.904V105.773H139.951Z" fill="#ED0673"/>
<path d="M153.59 105.772C152.813 105.772 152.267 105.213 152.267 104.417V98.0371H153.729V104.208C153.729 104.36 153.812 104.445 153.96 104.445H157.624C157.772 104.445 157.855 104.36 157.855 104.208V98.0371H159.327V104.417C159.327 105.213 158.781 105.772 158.003 105.772H153.59Z" fill="#ED0673"/>
<path d="M169.819 105.772V99.3927C169.819 98.5964 170.365 98.0371 171.143 98.0371H174.363V99.3642H171.513C171.365 99.3642 171.281 99.4496 171.281 99.6012V105.772H169.819Z" fill="#ED0673"/>
<path d="M185.661 105.772C184.883 105.772 184.337 105.213 184.337 104.417V99.3927C184.337 98.5964 184.883 98.0371 185.661 98.0371H190C190.777 98.0371 191.323 98.5964 191.323 99.3927V101.44C191.323 102.237 190.851 102.72 190.074 102.72H185.809V104.208C185.809 104.36 185.892 104.445 186.04 104.445H189.491C189.63 104.445 189.723 104.36 189.723 104.208V103.355H191.185V104.417C191.185 105.213 190.639 105.772 189.861 105.772H185.661ZM189.861 99.6012C189.861 99.459 189.778 99.3642 189.63 99.3642H186.04C185.892 99.3642 185.809 99.4496 185.809 99.6012V101.431H189.63C189.778 101.431 189.861 101.345 189.861 101.194V99.6012Z" fill="#ED0673"/>
<path d="M221.322 105.773L218.203 100.985L215.085 105.773H213.299L217.297 99.7815L213.447 94.1696H215.205L218.213 98.6345L221.22 94.1696H222.978L219.129 99.7815L223.126 105.773H221.34H221.322Z" fill="#ED0673"/>
<path d="M246.573 105.773C245.796 105.773 245.25 105.213 245.25 104.417V95.5159C245.25 94.7196 245.796 94.1603 246.573 94.1603H253.272C254.05 94.1603 254.596 94.7196 254.596 95.5159V98.2365H253.097V95.7434C253.097 95.6012 253.013 95.5064 252.865 95.5064H246.971C246.823 95.5064 246.74 95.5917 246.74 95.7434V104.171C246.74 104.322 246.823 104.408 246.971 104.408H252.865C253.013 104.408 253.097 104.322 253.097 104.171V100.768H249.83V99.412H254.586V104.408C254.586 105.204 254.04 105.763 253.263 105.763H246.564L246.573 105.773Z" fill="#ED0673"/>
<path d="M266.328 105.772C265.551 105.772 265.005 105.213 265.005 104.417V99.3927C265.005 98.5964 265.551 98.0371 266.328 98.0371H270.668C271.445 98.0371 271.991 98.5964 271.991 99.3927V101.44C271.991 102.237 271.519 102.72 270.742 102.72H266.467V104.208C266.467 104.36 266.55 104.445 266.698 104.445H270.15C270.298 104.445 270.381 104.36 270.381 104.208V103.355H271.843V104.417C271.843 105.213 271.297 105.772 270.52 105.772H266.319H266.328ZM270.52 99.6012C270.52 99.459 270.436 99.3642 270.288 99.3642H266.698C266.55 99.3642 266.467 99.4496 266.467 99.6012V101.431H270.288C270.427 101.431 270.52 101.345 270.52 101.194V99.6012Z" fill="#ED0673"/>
<path d="M288.073 105.772V99.6012C288.073 99.459 287.989 99.3642 287.841 99.3642H283.946V105.772H282.475V98.0371H288.211C288.989 98.0371 289.535 98.5964 289.535 99.3927V105.772H288.073Z" fill="#ED0673"/>
<path d="M301.323 105.772C300.545 105.772 300 105.213 300 104.417V99.3927C300 98.5964 300.545 98.0371 301.323 98.0371H305.662C306.44 98.0371 306.985 98.5964 306.985 99.3927V101.44C306.985 102.237 306.514 102.72 305.736 102.72H301.471V104.208C301.471 104.36 301.554 104.445 301.702 104.445H305.153C305.301 104.445 305.385 104.36 305.385 104.208V103.355H306.856V104.417C306.856 105.213 306.31 105.772 305.533 105.772H301.332H301.323ZM305.524 99.6012C305.524 99.459 305.44 99.3642 305.292 99.3642H301.693C301.545 99.3642 301.461 99.4496 301.461 99.6012V101.431H305.283C305.422 101.431 305.514 101.345 305.514 101.194V99.6012H305.524Z" fill="#ED0673"/>
<path d="M317.395 105.772V99.3927C317.395 98.5964 317.941 98.0371 318.718 98.0371H321.938V99.3642H319.088C318.95 99.3642 318.857 99.4496 318.857 99.6012V105.772H317.395Z" fill="#ED0673"/>
<path d="M333.172 105.773C332.395 105.773 331.849 105.213 331.849 104.417V102.351C331.849 101.554 332.321 101.071 333.098 101.071H337.299V99.6015C337.299 99.4593 337.215 99.3645 337.067 99.3645H333.69C333.551 99.3645 333.459 99.4498 333.459 99.6015V100.445H331.997V99.4024C331.997 98.6061 332.543 98.0468 333.32 98.0468H337.447C338.224 98.0468 338.77 98.6061 338.77 99.4024V104.427C338.77 105.223 338.224 105.782 337.447 105.782H333.181L333.172 105.773ZM337.299 102.369H333.542C333.394 102.369 333.311 102.455 333.311 102.606V104.209C333.311 104.36 333.394 104.445 333.542 104.445H337.067C337.215 104.445 337.299 104.36 337.299 104.209V102.369Z" fill="#ED0673"/>
<path d="M351.788 105.773C351.011 105.773 350.465 105.213 350.465 104.417V99.3645H348.744V98.0373H350.465V94.3688H351.927V98.0373H353.972V99.3645H351.927V104.209C351.927 104.36 352.01 104.446 352.158 104.446H353.741V105.773H351.788Z" fill="#ED0673"/>
<path d="M364.187 96.0372V93.6483H365.658V96.0372H364.187ZM364.187 105.773V98.0373H365.658V105.773H364.187Z" fill="#ED0673"/>
<path d="M377.531 105.772C376.753 105.772 376.208 105.213 376.208 104.417V99.3927C376.208 98.5964 376.753 98.0371 377.531 98.0371H381.944C382.722 98.0371 383.268 98.5964 383.268 99.3927V104.417C383.268 105.213 382.722 105.772 381.944 105.772H377.531ZM381.796 99.6012C381.796 99.459 381.713 99.3642 381.565 99.3642H377.901C377.753 99.3642 377.67 99.4496 377.67 99.6012V104.208C377.67 104.36 377.753 104.445 377.901 104.445H381.565C381.704 104.445 381.796 104.36 381.796 104.208V99.6012Z" fill="#ED0673"/>
<path d="M399.404 105.772V99.6012C399.404 99.459 399.321 99.3642 399.173 99.3642H395.277V105.772H393.806V98.0371H399.543C400.32 98.0371 400.866 98.5964 400.866 99.3927V105.772H399.404Z" fill="#ED0673"/>
<path d="M423.749 105.773V101.895C423.749 100.957 423.961 100.483 424.711 100.274L429.846 99.2411C430.022 99.1937 430.078 99.061 430.078 98.8714V95.7432C430.078 95.601 429.994 95.5062 429.846 95.5062H425.608C425.46 95.5062 425.377 95.5915 425.377 95.7432V98.0088H423.887V95.5062C423.887 94.7099 424.433 94.1506 425.211 94.1506H430.253C431.031 94.1506 431.577 94.7099 431.577 95.5062V98.7861C431.577 99.7246 431.317 100.227 430.586 100.436L425.488 101.44C425.331 101.488 425.257 101.602 425.257 101.791V104.398H431.771V105.754H423.767L423.749 105.773Z" fill="#ED0673"/>
<path d="M443.615 105.773C442.837 105.773 442.292 105.213 442.292 104.417V95.5159C442.292 94.7196 442.837 94.1603 443.615 94.1603H448.88C449.657 94.1603 450.203 94.7196 450.203 95.5159V104.417C450.203 105.213 449.657 105.773 448.88 105.773H443.615ZM448.704 95.7624C448.704 95.6202 448.621 95.5254 448.472 95.5254H444.013C443.864 95.5254 443.781 95.6107 443.781 95.7624V104.19C443.781 104.341 443.864 104.427 444.013 104.427H448.472C448.621 104.427 448.704 104.341 448.704 104.19V95.7624Z" fill="#ED0673"/>
<path d="M460.751 105.773V101.895C460.751 100.957 460.964 100.483 461.713 100.274L466.849 99.2411C467.024 99.1937 467.08 99.061 467.08 98.8714V95.7432C467.08 95.601 466.997 95.5062 466.849 95.5062H462.611C462.463 95.5062 462.379 95.5915 462.379 95.7432V98.0088H460.89V95.5062C460.89 94.7099 461.436 94.1506 462.213 94.1506H467.256C468.033 94.1506 468.579 94.7099 468.579 95.5062V98.7861C468.579 99.7246 468.32 100.227 467.589 100.436L462.481 101.44C462.324 101.488 462.25 101.602 462.25 101.791V104.398H468.764V105.754H460.76L460.751 105.773Z" fill="#ED0673"/>
<path d="M484.736 106V103.526H478.897V102.028L484.301 94.1793H486.225V102.18H487.789V103.536H486.225V106.01H484.726L484.736 106ZM484.736 95.9804L480.47 102.171H484.736V95.9804Z" fill="#ED0673"/>
</g>
<defs>
<clipPath id="clip0_434_4602">
<rect width="490" height="106" fill="white"/>
</clipPath>
</defs>
</svg>
