<svg width="343" height="74" viewBox="0 0 343 74" fill="none" xmlns="http://www.w3.org/2000/svg">
<g clip-path="url(#clip0_247_5204)">
<path d="M48.3944 50.0303H13.0811V17.537H35.6884V37.0264H25.7484V31.2888H30.085V23.2746H18.6844V44.2927H42.7911V9.86701H5.97834V50.0303H0.375V4.12939H48.3944V50.0303Z" fill="#ED0673"/>
<path d="M86.513 23.3806L87.1593 31.719L95.4383 31.0506L87.2821 44.3391L73.9426 27.1925L89.3696 4.83098L82.6934 0L65.4956 24.9358L65.6378 29.9521L84.4772 54.1599L91.134 53.7827L106.69 28.4432L102.909 22.0438L86.513 23.3806Z" fill="#ED0673"/>
<path d="M165.193 4.83098L180.626 27.1925L167.287 44.3391L159.124 31.0506L167.403 31.719L168.049 23.3806L151.653 22.0438L147.872 28.4432L163.435 53.7827L170.085 54.1599L188.931 29.9521L189.073 24.9358L171.869 0L165.193 4.83098Z" fill="#ED0673"/>
<path d="M142.992 3.94432L135.67 0.218506L127.552 16.935L119.836 0.291301L112.448 3.87814L122.931 26.4646L111.395 50.2158L118.718 53.9416L127.384 36.0802L135.637 53.8755L143.025 50.282L132.012 26.5506L142.992 3.94432Z" fill="#ED0673"/>
<path d="M217.4 1.80029L212.146 7.78938L226.649 21.1242L205.528 52.3667H233.945V44.3129H220.535L237.054 19.8734L217.4 1.80029Z" fill="#ED0673"/>
<path d="M287.005 1.80029L281.751 7.78938L296.254 21.1242L275.133 52.3667H303.55V44.3129H290.14L306.665 19.8734L287.005 1.80029Z" fill="#ED0673"/>
<path d="M257.711 23.0116L253.539 27.2839L257.711 31.5563L261.883 27.2839L257.711 23.0116Z" fill="#ED0673"/>
<path d="M257.302 1.89282L240.336 27.7617L257.463 52.274L275.133 26.5904L257.295 1.89282H257.302ZM257.431 39.3164L249.462 27.5566L257.599 15.8497L265.904 26.5904L257.431 39.323V39.3164Z" fill="#ED0673"/>
<path d="M202.923 20.6793L196.178 27.5862L202.923 34.4931L209.668 27.5862L202.923 20.6793Z" fill="#ED0673"/>
<path d="M341.623 29.4094L337.481 29.952L338.463 5.43979L331.173 3.17651L312.333 34.7896L316.192 40.8846L329.228 39.164L328.769 50.6525L336.628 50.9833L337.145 38.1184L342.619 37.397L341.617 29.4094H341.623ZM329.564 30.9977L323.327 31.8183L329.984 20.6475L329.57 30.991L329.564 30.9977Z" fill="#ED0673"/>
<path d="M3.14783 73.8414C2.60494 73.8414 2.22363 73.4509 2.22363 72.8951V66.681C2.22363 66.1251 2.60494 65.7346 3.14783 65.7346H7.82698C8.36986 65.7346 8.75117 66.1251 8.75117 66.681V68.5803H7.70418V66.8398C7.70418 66.7405 7.64602 66.6743 7.54261 66.6743H3.42573C3.32879 66.6743 3.26416 66.7339 3.26416 66.8398V72.723C3.26416 72.8289 3.32233 72.8884 3.42573 72.8884H7.54261C7.64602 72.8884 7.70418 72.8289 7.70418 72.723V70.3472H5.42277V69.4009H8.74471V72.8884C8.74471 73.4443 8.3634 73.8348 7.82052 73.8348H3.14137L3.14783 73.8414Z" fill="#ED0673"/>
<path d="M16.9008 73.8412C16.3579 73.8412 15.9766 73.4508 15.9766 72.8949V71.4522C15.9766 70.8963 16.3062 70.5588 16.8491 70.5588H19.7832V69.5331C19.7832 69.4338 19.7251 69.3676 19.6216 69.3676H17.2627C17.1593 69.3676 17.1011 69.4272 17.1011 69.5331V70.1221H16.08V69.3941C16.08 68.8382 16.4613 68.4478 17.0042 68.4478H19.8866C20.4295 68.4478 20.8108 68.8382 20.8108 69.3941V72.9015C20.8108 73.4574 20.4295 73.8479 19.8866 73.8479H16.9072L16.9008 73.8412ZM19.7832 71.4655H17.1593C17.0559 71.4655 16.9977 71.525 16.9977 71.6309V72.7493C16.9977 72.8552 17.0559 72.9148 17.1593 72.9148H19.6216C19.7251 72.9148 19.7832 72.8552 19.7832 72.7493V71.4655Z" fill="#ED0673"/>
<path d="M34.2989 73.841V69.5329C34.2989 69.4336 34.2408 69.3674 34.1373 69.3674H32.2502V73.841H31.229V69.3674H29.1609V73.841H28.1333V68.4409H34.4023C34.9452 68.4409 35.3265 68.8314 35.3265 69.3873V73.841H34.3054H34.2989Z" fill="#ED0673"/>
<path d="M43.5541 73.841C43.0112 73.841 42.6299 73.4506 42.6299 72.8947V69.3873C42.6299 68.8314 43.0112 68.4409 43.5541 68.4409H46.5852C47.1281 68.4409 47.5094 68.8314 47.5094 69.3873V70.8167C47.5094 71.3726 47.1798 71.7101 46.6369 71.7101H43.6575V72.7491C43.6575 72.855 43.7157 72.9145 43.8191 72.9145H46.2297C46.3331 72.9145 46.3913 72.855 46.3913 72.7491V72.1535H47.4124V72.8947C47.4124 73.4506 47.0311 73.841 46.4882 73.841H43.5541ZM46.4882 69.5329C46.4882 69.4336 46.4301 69.3674 46.3267 69.3674H43.8191C43.7157 69.3674 43.6575 69.427 43.6575 69.5329V70.8101H46.3267C46.4301 70.8101 46.4882 70.7505 46.4882 70.6446V69.5329Z" fill="#ED0673"/>
<path d="M64.3192 73.841C63.7763 73.841 63.395 73.4506 63.395 72.8947V69.3873C63.395 68.8314 63.7763 68.4409 64.3192 68.4409H67.3051C67.848 68.4409 68.2293 68.8314 68.2293 69.3873V70.3535H67.2081V69.5329C67.2081 69.4336 67.15 69.3674 67.0466 69.3674H64.5842C64.4808 69.3674 64.4226 69.427 64.4226 69.5329V72.7491C64.4226 72.855 64.4808 72.9145 64.5842 72.9145H67.0466C67.15 72.9145 67.2081 72.855 67.2081 72.7491V71.6505H68.2293V72.8947C68.2293 73.4506 67.848 73.841 67.3051 73.841H64.3192Z" fill="#ED0673"/>
<path d="M76.4569 73.841C75.914 73.841 75.5327 73.4506 75.5327 72.8947V68.4409H76.5539V72.7491C76.5539 72.855 76.612 72.9145 76.7154 72.9145H79.2747C79.3781 72.9145 79.4363 72.855 79.4363 72.7491V68.4409H80.4639V72.8947C80.4639 73.4506 80.0826 73.841 79.5397 73.841H76.4569Z" fill="#ED0673"/>
<path d="M87.8701 73.8413V65.3772H88.8913V73.8413H87.8701Z" fill="#ED0673"/>
<path d="M98.1268 73.8413C97.5839 73.8413 97.2026 73.4509 97.2026 72.895V69.3677H96.0005V68.4412H97.2026V65.8801H98.2237V68.4412H99.652V69.3677H98.2237V72.7494C98.2237 72.8553 98.2819 72.9148 98.3853 72.9148H99.4905V73.8413H98.1268Z" fill="#ED0673"/>
<path d="M107.653 73.841C107.11 73.841 106.729 73.4506 106.729 72.8947V68.4409H107.75V72.7491C107.75 72.855 107.808 72.9145 107.911 72.9145H110.471C110.574 72.9145 110.632 72.855 110.632 72.7491V68.4409H111.66V72.8947C111.66 73.4506 111.278 73.841 110.736 73.841H107.653Z" fill="#ED0673"/>
<path d="M118.989 73.841V69.3873C118.989 68.8314 119.37 68.4409 119.913 68.4409H122.162V69.3674H120.171C120.068 69.3674 120.01 69.427 120.01 69.5329V73.841H118.989Z" fill="#ED0673"/>
<path d="M130.053 73.841C129.51 73.841 129.129 73.4506 129.129 72.8947V69.3873C129.129 68.8314 129.51 68.4409 130.053 68.4409H133.084C133.627 68.4409 134.008 68.8314 134.008 69.3873V70.8167C134.008 71.3726 133.679 71.7101 133.136 71.7101H130.157V72.7491C130.157 72.855 130.215 72.9145 130.318 72.9145H132.729C132.826 72.9145 132.89 72.855 132.89 72.7491V72.1535H133.911V72.8947C133.911 73.4506 133.53 73.841 132.987 73.841H130.053ZM132.987 69.5329C132.987 69.4336 132.929 69.3674 132.826 69.3674H130.318C130.215 69.3674 130.157 69.427 130.157 69.5329V70.8101H132.826C132.929 70.8101 132.987 70.7505 132.987 70.6446V69.5329Z" fill="#ED0673"/>
<path d="M154.962 73.8411L152.784 70.4992L150.606 73.8411H149.358L152.15 69.6587L149.462 65.741H150.69L152.79 68.8579L154.891 65.741H156.119L153.43 69.6587L156.222 73.8411H154.975H154.962Z" fill="#ED0673"/>
<path d="M172.599 73.8414C172.056 73.8414 171.675 73.4509 171.675 72.8951V66.681C171.675 66.1251 172.056 65.7346 172.599 65.7346H177.278C177.821 65.7346 178.202 66.1251 178.202 66.681V68.5803H177.155V66.8398C177.155 66.7405 177.097 66.6743 176.994 66.6743H172.877C172.774 66.6743 172.715 66.7339 172.715 66.8398V72.723C172.715 72.8289 172.774 72.8884 172.877 72.8884H176.994C177.097 72.8884 177.155 72.8289 177.155 72.723V70.3472H174.874V69.4009H178.196V72.8884C178.196 73.4443 177.815 73.8348 177.272 73.8348H172.593L172.599 73.8414Z" fill="#ED0673"/>
<path d="M186.397 73.841C185.854 73.841 185.473 73.4506 185.473 72.8947V69.3873C185.473 68.8314 185.854 68.4409 186.397 68.4409H189.428C189.971 68.4409 190.353 68.8314 190.353 69.3873V70.8167C190.353 71.3726 190.023 71.7101 189.48 71.7101H186.494V72.7491C186.494 72.855 186.552 72.9145 186.656 72.9145H189.067C189.17 72.9145 189.228 72.855 189.228 72.7491V72.1535H190.249V72.8947C190.249 73.4506 189.868 73.841 189.325 73.841H186.391H186.397ZM189.325 69.5329C189.325 69.4336 189.267 69.3674 189.163 69.3674H186.656C186.552 69.3674 186.494 69.427 186.494 69.5329V70.8101H189.163C189.26 70.8101 189.325 70.7505 189.325 70.6446V69.5329Z" fill="#ED0673"/>
<path d="M201.585 73.841V69.5329C201.585 69.4336 201.527 69.3674 201.423 69.3674H198.702V73.841H197.675V68.4409H201.682C202.225 68.4409 202.606 68.8314 202.606 69.3873V73.841H201.585Z" fill="#ED0673"/>
<path d="M210.84 73.841C210.297 73.841 209.916 73.4506 209.916 72.8947V69.3873C209.916 68.8314 210.297 68.4409 210.84 68.4409H213.871C214.414 68.4409 214.795 68.8314 214.795 69.3873V70.8167C214.795 71.3726 214.465 71.7101 213.923 71.7101H210.943V72.7491C210.943 72.855 211.001 72.9145 211.105 72.9145H213.515C213.619 72.9145 213.677 72.855 213.677 72.7491V72.1535H214.705V72.8947C214.705 73.4506 214.323 73.841 213.78 73.841H210.846H210.84ZM213.774 69.5329C213.774 69.4336 213.716 69.3674 213.612 69.3674H211.098C210.995 69.3674 210.937 69.427 210.937 69.5329V70.8101H213.606C213.703 70.8101 213.767 70.7505 213.767 70.6446V69.5329H213.774Z" fill="#ED0673"/>
<path d="M222.066 73.841V69.3873C222.066 68.8314 222.447 68.4409 222.99 68.4409H225.239V69.3674H223.249C223.152 69.3674 223.087 69.427 223.087 69.5329V73.841H222.066Z" fill="#ED0673"/>
<path d="M233.085 73.8412C232.542 73.8412 232.161 73.4508 232.161 72.8949V71.4522C232.161 70.8963 232.491 70.5588 233.034 70.5588H235.968V69.5331C235.968 69.4338 235.91 69.3676 235.806 69.3676H233.447C233.35 69.3676 233.286 69.4272 233.286 69.5331V70.1221H232.265V69.3941C232.265 68.8382 232.646 68.4478 233.189 68.4478H236.071C236.614 68.4478 236.995 68.8382 236.995 69.3941V72.9015C236.995 73.4574 236.614 73.8479 236.071 73.8479H233.092L233.085 73.8412ZM235.968 71.4655H233.344C233.24 71.4655 233.182 71.525 233.182 71.6309V72.7493C233.182 72.8552 233.24 72.9148 233.344 72.9148H235.806C235.91 72.9148 235.968 72.8552 235.968 72.7493V71.4655Z" fill="#ED0673"/>
<path d="M246.089 73.8413C245.546 73.8413 245.165 73.4509 245.165 72.895V69.3677H243.962V68.4412H245.165V65.8801H246.186V68.4412H247.614V69.3677H246.186V72.7494C246.186 72.8553 246.244 72.9148 246.347 72.9148H247.452V73.8413H246.089Z" fill="#ED0673"/>
<path d="M254.749 67.0449V65.3772H255.776V67.0449H254.749ZM254.749 73.8413V68.4412H255.776V73.8413H254.749Z" fill="#ED0673"/>
<path d="M264.069 73.841C263.526 73.841 263.145 73.4506 263.145 72.8947V69.3873C263.145 68.8314 263.526 68.4409 264.069 68.4409H267.152C267.694 68.4409 268.076 68.8314 268.076 69.3873V72.8947C268.076 73.4506 267.694 73.841 267.152 73.841H264.069ZM267.048 69.5329C267.048 69.4336 266.99 69.3674 266.887 69.3674H264.327C264.224 69.3674 264.166 69.427 264.166 69.5329V72.7491C264.166 72.855 264.224 72.9145 264.327 72.9145H266.887C266.984 72.9145 267.048 72.855 267.048 72.7491V69.5329Z" fill="#ED0673"/>
<path d="M279.347 73.841V69.5329C279.347 69.4336 279.288 69.3674 279.185 69.3674H276.464V73.841H275.437V68.4409H279.444C279.986 68.4409 280.368 68.8314 280.368 69.3873V73.841H279.347Z" fill="#ED0673"/>
<path d="M296.351 73.8412V71.1345C296.351 70.4793 296.499 70.1485 297.023 70.0029L300.61 69.2815C300.732 69.2484 300.771 69.1558 300.771 69.0234V66.8396C300.771 66.7403 300.713 66.6741 300.61 66.6741H297.65C297.546 66.6741 297.488 66.7337 297.488 66.8396V68.4212H296.448V66.6741C296.448 66.1182 296.829 65.7278 297.372 65.7278H300.894C301.437 65.7278 301.818 66.1182 301.818 66.6741V68.9639C301.818 69.619 301.637 69.9698 301.127 70.1154L297.566 70.8169C297.456 70.8499 297.404 70.9294 297.404 71.0617V72.8816H301.954V73.8279H296.364L296.351 73.8412Z" fill="#ED0673"/>
<path d="M310.226 73.8414C309.684 73.8414 309.302 73.4509 309.302 72.8951V66.681C309.302 66.1251 309.684 65.7346 310.226 65.7346H313.904C314.447 65.7346 314.828 66.1251 314.828 66.681V72.8951C314.828 73.4509 314.447 73.8414 313.904 73.8414H310.226ZM313.781 66.853C313.781 66.7538 313.723 66.6876 313.619 66.6876H310.504C310.401 66.6876 310.343 66.7471 310.343 66.853V72.7362C310.343 72.8421 310.401 72.9017 310.504 72.9017H313.619C313.723 72.9017 313.781 72.8421 313.781 72.7362V66.853Z" fill="#ED0673"/>
<path d="M322.196 73.8412V71.1345C322.196 70.4793 322.344 70.1485 322.868 70.0029L326.455 69.2815C326.578 69.2484 326.616 69.1558 326.616 69.0234V66.8396C326.616 66.7403 326.558 66.6741 326.455 66.6741H323.495C323.391 66.6741 323.333 66.7337 323.333 66.8396V68.4212H322.293V66.6741C322.293 66.1182 322.674 65.7278 323.217 65.7278H326.739C327.282 65.7278 327.663 66.1182 327.663 66.6741V68.9639C327.663 69.619 327.482 69.9698 326.972 70.1154L323.404 70.8169C323.294 70.8499 323.243 70.9294 323.243 71.0617V72.8816H327.793V73.8279H322.202L322.196 73.8412Z" fill="#ED0673"/>
<path d="M338.948 74.0002V72.2729H334.87V71.2273L338.644 65.7478H339.989V71.3332H341.081V72.2796H339.989V74.0068H338.942L338.948 74.0002ZM338.948 67.0052L335.969 71.3266H338.948V67.0052Z" fill="#ED0673"/>
</g>
<defs>
<clipPath id="clip0_247_5204">
<rect width="342.25" height="74" fill="white" transform="translate(0.375)"/>
</clipPath>
</defs>
</svg>
