<svg width="139" height="22" viewBox="0 0 139 22" fill="none" xmlns="http://www.w3.org/2000/svg">
<g clip-path="url(#clip0_897_96151)">
<path d="M19.5024 20.2823H5.1604V7.10935H14.342V15.0104H10.305V12.6844H12.0663V9.43541H7.43612V17.9562H17.2267V3.99989H2.27572V20.2823H0V1.67383H19.5024V20.2823Z" fill="white"/>
<path d="M34.9832 9.47863L35.2457 12.8591L38.6081 12.5881L35.2955 17.9753L29.8779 11.024L36.1434 1.9585L33.4319 0L26.4473 10.1091L26.505 12.1427L34.1564 21.9567L36.8599 21.8038L43.1779 11.531L41.6424 8.93668L34.9832 9.47863Z" fill="white"/>
<path d="M66.9369 1.9585L73.2049 11.024L67.7873 17.9753L64.4722 12.5881L67.8346 12.8591L68.097 9.47863L61.4379 8.93668L59.9023 11.531L66.2229 21.8038L68.9239 21.9567L76.5778 12.1427L76.6356 10.1091L69.6483 0L66.9369 1.9585Z" fill="white"/>
<path d="M57.9206 1.59835L54.9467 0.0878906L51.6499 6.86485L48.5159 0.117402L45.5157 1.57153L49.7732 10.7282L45.0879 20.3571L48.0618 21.8675L51.5817 14.6264L54.9336 21.8407L57.9338 20.3839L53.4611 10.7631L57.9206 1.59835Z" fill="white"/>
<path d="M88.1402 0.730469L86.0062 3.15848L91.8963 8.56449L83.3184 21.2304H94.8597V17.9653H89.4132L96.1222 8.05742L88.1402 0.730469Z" fill="white"/>
<path d="M116.41 0.730469L114.276 3.15848L120.166 8.56449L111.588 21.2304H123.129V17.9653H117.683L124.394 8.05742L116.41 0.730469Z" fill="white"/>
<path d="M104.513 9.32851L102.818 11.0605L104.513 12.7926L106.207 11.0605L104.513 9.32851Z" fill="white"/>
<path d="M104.347 0.767578L97.457 11.255L104.413 21.1924L111.589 10.7801L104.345 0.767578H104.347ZM104.4 15.9393L101.163 11.1718L104.468 6.42578L107.841 10.7801L104.4 15.942V15.9393Z" fill="white"/>
<path d="M82.261 8.38349L79.5215 11.1836L82.261 13.9837L85.0005 11.1836L82.261 8.38349Z" fill="white"/>
<path d="M138.593 11.9221L136.91 12.1421L137.309 2.20466L134.349 1.28711L126.697 14.1032L128.264 16.5742L133.559 15.8766L133.372 20.5341L136.564 20.6683L136.774 15.4527L138.997 15.1603L138.59 11.9221H138.593ZM133.695 12.566L131.162 12.8986L133.866 8.36992L133.698 12.5633L133.695 12.566Z" fill="white"/>
</g>
<defs>
<clipPath id="clip0_897_96151">
<rect width="139" height="22" fill="white"/>
</clipPath>
</defs>
</svg>
