<svg width="130" height="20" viewBox="0 0 130 20" fill="none" xmlns="http://www.w3.org/2000/svg">
<path d="M18.3851 18.4675H5.06439V6.47823H13.5961V13.6691H9.8534V11.5454H11.4766V8.58845H7.1839V16.3573H16.279V3.64221H2.39489V18.4675H0.275391V1.51855H18.3851V18.4675Z" fill="white"/>
<path d="M32.7793 8.62903L33.0208 11.707L36.1464 11.4651L33.061 16.371L28.0306 10.0403L33.8525 1.78763L31.3305 0L24.8379 9.20699L24.8916 11.0618L32.0013 20L34.5098 19.8522L40.3854 10.4973L38.9634 8.14516L32.7793 8.62903Z" fill="white"/>
<path d="M62.4528 1.78763L68.2747 10.0403L63.2443 16.371L60.1723 11.4651L63.2845 11.707L63.5394 8.62903L57.3419 8.14516L55.9199 10.4973L61.7955 19.8522L64.304 20L71.4138 11.0618L71.4674 9.20699L64.9748 0L62.4528 1.78763Z" fill="white"/>
<path d="M54.0818 1.45202L51.3184 0.0810547L48.2599 6.25041L45.3489 0.107936L42.5587 1.43858L46.516 9.77191L42.1562 18.5354L44.9197 19.9063L48.1928 13.3203L51.305 19.8929L54.0952 18.5622L49.9367 9.7988L54.0818 1.45202Z" fill="white"/>
<path d="M82.1445 0.658203L80.1726 2.87595L85.6323 7.7953L77.6641 19.3276H88.3957V16.3571H83.325L89.5628 7.33831L82.1445 0.658203Z" fill="white"/>
<path d="M108.41 0.658203L106.425 2.87595L111.898 7.7953L103.93 19.3276H114.648V16.3571H109.591L115.828 7.33831L108.41 0.658203Z" fill="white"/>
<path d="M97.3558 8.49361L95.7812 10.0713L97.3558 11.649L98.9304 10.0713L97.3558 8.49361Z" fill="white"/>
<path d="M97.1956 0.699219L90.7969 10.2557L97.2627 19.3014L103.93 9.82556L97.1956 0.71266V0.699219ZM97.2493 14.5164L94.2444 10.175L97.3163 5.84707L100.455 9.81212L97.2627 14.5164H97.2493Z" fill="white"/>
<path d="M76.6847 7.63551L74.1426 10.1826L76.6847 12.7297L79.2268 10.1826L76.6847 7.63551Z" fill="white"/>
<path d="M129.015 10.86L127.459 11.0616L127.834 2.01595L125.084 1.18262L117.975 12.8493L119.437 15.0939L124.36 14.4622L124.186 18.7095L127.15 18.8305L127.351 14.0858L129.417 13.817L129.042 10.8735L129.015 10.86ZM124.467 11.438L122.12 11.7471L124.628 7.62079L124.467 11.438Z" fill="white"/>
</svg>
