<svg width="206" height="45" viewBox="0 0 206 45" fill="none" xmlns="http://www.w3.org/2000/svg">
<g clip-path="url(#clip0_989_85822)">
<path d="M28.9029 30.3371H7.64778V10.7695H21.2551V22.5061H15.2722V19.0509H17.8824V14.2247H11.0204V26.8819H25.5302V6.15054H3.37265V30.3371H0V2.69531H28.9029V30.3371Z" fill="#ED0673"/>
<path d="M51.8457 14.2889L52.2347 19.3104L57.2178 18.9079L52.3086 26.9103L44.2796 16.5844L53.5651 3.11823L49.5467 0.208984L39.1953 15.2255L39.2809 18.2463L50.6203 32.8244L54.627 32.5973L63.9903 17.3377L61.7146 13.4839L51.8457 14.2889Z" fill="#ED0673"/>
<path d="M99.2026 3.11823L108.492 16.5844L100.463 26.9103L95.5499 18.9079L100.533 19.3104L100.922 14.2889L91.053 13.4839L88.7773 17.3377L98.1445 32.5973L102.147 32.8244L113.491 18.2463L113.576 15.2255L103.221 0.208984L99.2026 3.11823Z" fill="#ED0673"/>
<path d="M85.8406 2.58453L81.4332 0.34082L76.5473 10.4076L71.9026 0.384658L67.4563 2.54467L73.766 16.1464L66.8223 30.4495L71.2297 32.6932L76.4462 21.937L81.4137 32.6534L85.86 30.4894L79.2314 16.1982L85.8406 2.58453Z" fill="#ED0673"/>
<path d="M130.626 1.29297L127.464 4.89964L136.193 12.93L123.48 31.7444H140.585V26.8943H132.513L142.456 12.1767L130.626 1.29297Z" fill="#ED0673"/>
<path d="M172.521 1.29297L169.358 4.89964L178.088 12.93L165.375 31.7444H182.479V26.8943H174.408L184.354 12.1767L172.521 1.29297Z" fill="#ED0673"/>
<path d="M154.89 14.0668L152.379 16.6396L154.89 19.2125L157.402 16.6396L154.89 14.0668Z" fill="#ED0673"/>
<path d="M154.643 1.34863L144.432 16.927L154.74 31.6885L165.376 16.2217L154.639 1.34863H154.643ZM154.721 23.8853L149.924 16.8035L154.822 9.75356L159.821 16.2217L154.721 23.8893V23.8853Z" fill="#ED0673"/>
<path d="M121.913 12.6619L117.854 16.8213L121.913 20.9807L125.973 16.8213L121.913 12.6619Z" fill="#ED0673"/>
<path d="M205.397 17.9197L202.904 18.2465L203.495 3.48503L199.107 2.12207L187.768 21.1597L190.09 24.8301L197.936 23.794L197.66 30.7124L202.39 30.9116L202.701 23.1643L205.996 22.7299L205.393 17.9197H205.397ZM198.138 18.8761L194.385 19.3703L198.391 12.6432L198.142 18.8722L198.138 18.8761Z" fill="#ED0673"/>
<path d="M1.66955 44.6759C1.34279 44.6759 1.11328 44.4408 1.11328 44.106V40.3638C1.11328 40.0291 1.34279 39.7939 1.66955 39.7939H4.48593C4.81269 39.7939 5.0422 40.0291 5.0422 40.3638V41.5076H4.41202V40.4595C4.41202 40.3997 4.37701 40.3599 4.31477 40.3599H1.83683C1.77847 40.3599 1.73957 40.3957 1.73957 40.4595V44.0024C1.73957 44.0662 1.77458 44.102 1.83683 44.102H4.31477C4.37701 44.102 4.41202 44.0662 4.41202 44.0024V42.5717H3.03884V42.0018H5.03831V44.102C5.03831 44.4368 4.8088 44.6719 4.48204 44.6719H1.66566L1.66955 44.6759Z" fill="#ED0673"/>
<path d="M9.9469 44.6767C9.62014 44.6767 9.39062 44.4416 9.39062 44.1068V43.238C9.39062 42.9033 9.58902 42.7 9.91578 42.7H11.6818V42.0823C11.6818 42.0225 11.6468 41.9827 11.5846 41.9827H10.1647C10.1025 41.9827 10.0675 42.0185 10.0675 42.0823V42.437H9.45287V41.9986C9.45287 41.6638 9.68238 41.4287 10.0091 41.4287H11.7441C12.0709 41.4287 12.3004 41.6638 12.3004 41.9986V44.1108C12.3004 44.4456 12.0709 44.6807 11.7441 44.6807H9.95079L9.9469 44.6767ZM11.6818 43.246H10.1025C10.0403 43.246 10.0052 43.2819 10.0052 43.3456V44.0191C10.0052 44.0829 10.0403 44.1188 10.1025 44.1188H11.5846C11.6468 44.1188 11.6818 44.0829 11.6818 44.0191V43.246Z" fill="#ED0673"/>
<path d="M20.4201 44.6758V42.0814C20.4201 42.0216 20.3851 41.9818 20.3228 41.9818H19.1869V44.6758H18.5723V41.9818H17.3275V44.6758H16.709V41.4238H20.4823C20.8091 41.4238 21.0386 41.659 21.0386 41.9937V44.6758H20.424H20.4201Z" fill="#ED0673"/>
<path d="M25.9899 44.6758C25.6631 44.6758 25.4336 44.4407 25.4336 44.1059V41.9937C25.4336 41.659 25.6631 41.4238 25.9899 41.4238H27.8143C28.141 41.4238 28.3706 41.659 28.3706 41.9937V42.8545C28.3706 43.1893 28.1722 43.3926 27.8454 43.3926H26.0521V44.0182C26.0521 44.082 26.0871 44.1179 26.1494 44.1179H27.6003C27.6626 44.1179 27.6976 44.082 27.6976 44.0182V43.6596H28.3122V44.1059C28.3122 44.4407 28.0827 44.6758 27.7559 44.6758H25.9899ZM27.7559 42.0814C27.7559 42.0216 27.7209 41.9818 27.6587 41.9818H26.1494C26.0871 41.9818 26.0521 42.0176 26.0521 42.0814V42.8506H27.6587C27.7209 42.8506 27.7559 42.8147 27.7559 42.7509V42.0814Z" fill="#ED0673"/>
<path d="M38.4879 44.6758C38.1612 44.6758 37.9316 44.4407 37.9316 44.1059V41.9937C37.9316 41.659 38.1612 41.4238 38.4879 41.4238H40.2851C40.6119 41.4238 40.8414 41.659 40.8414 41.9937V42.5756H40.2268V42.0814C40.2268 42.0216 40.1917 41.9818 40.1295 41.9818H38.6474C38.5852 41.9818 38.5502 42.0176 38.5502 42.0814V44.0182C38.5502 44.082 38.5852 44.1179 38.6474 44.1179H40.1295C40.1917 44.1179 40.2268 44.082 40.2268 44.0182V43.3567H40.8414V44.1059C40.8414 44.4407 40.6119 44.6758 40.2851 44.6758H38.4879Z" fill="#ED0673"/>
<path d="M45.7946 44.6758C45.4678 44.6758 45.2383 44.4407 45.2383 44.1059V41.4238H45.8529V44.0182C45.8529 44.082 45.8879 44.1179 45.9502 44.1179H47.4906C47.5528 44.1179 47.5879 44.082 47.5879 44.0182V41.4238H48.2064V44.1059C48.2064 44.4407 47.9769 44.6758 47.6501 44.6758H45.7946Z" fill="#ED0673"/>
<path d="M52.6641 44.6763V39.5791H53.2787V44.6763H52.6641Z" fill="#ED0673"/>
<path d="M58.8365 44.6761C58.5097 44.6761 58.2802 44.441 58.2802 44.1062V41.9821H57.5566V41.4241H58.2802V39.8818H58.8948V41.4241H59.7545V41.9821H58.8948V44.0185C58.8948 44.0823 58.9298 44.1182 58.9921 44.1182H59.6573V44.6761H58.8365Z" fill="#ED0673"/>
<path d="M64.5699 44.6758C64.2432 44.6758 64.0137 44.4407 64.0137 44.1059V41.4238H64.6283V44.0182C64.6283 44.082 64.6633 44.1179 64.7255 44.1179H66.266C66.3282 44.1179 66.3632 44.082 66.3632 44.0182V41.4238H66.9818V44.1059C66.9818 44.4407 66.7522 44.6758 66.4255 44.6758H64.5699Z" fill="#ED0673"/>
<path d="M71.3945 44.6758V41.9937C71.3945 41.659 71.624 41.4238 71.9508 41.4238H73.3045V41.9818H72.1064C72.0442 41.9818 72.0092 42.0176 72.0092 42.0814V44.6758H71.3945Z" fill="#ED0673"/>
<path d="M78.0543 44.6758C77.7276 44.6758 77.498 44.4407 77.498 44.1059V41.9937C77.498 41.659 77.7276 41.4238 78.0543 41.4238H79.8787C80.2055 41.4238 80.435 41.659 80.435 41.9937V42.8545C80.435 43.1893 80.2366 43.3926 79.9099 43.3926H78.1166V44.0182C78.1166 44.082 78.1516 44.1179 78.2138 44.1179H79.6648C79.7231 44.1179 79.762 44.082 79.762 44.0182V43.6596H80.3767V44.1059C80.3767 44.4407 80.1472 44.6758 79.8204 44.6758H78.0543ZM79.8204 42.0814C79.8204 42.0216 79.7854 41.9818 79.7231 41.9818H78.2138C78.1516 41.9818 78.1166 42.0176 78.1166 42.0814V42.8506H79.7231C79.7854 42.8506 79.8204 42.8147 79.8204 42.7509V42.0814Z" fill="#ED0673"/>
<path d="M93.0465 44.6758L91.7355 42.6633L90.4246 44.6758H89.6738L91.3543 42.1571L89.7361 39.7979H90.4752L91.7394 41.6749L93.0037 39.7979H93.7428L92.1245 42.1571L93.805 44.6758H93.0543H93.0465Z" fill="#ED0673"/>
<path d="M103.662 44.6759C103.335 44.6759 103.105 44.4408 103.105 44.106V40.3638C103.105 40.0291 103.335 39.7939 103.662 39.7939H106.478C106.805 39.7939 107.034 40.0291 107.034 40.3638V41.5076H106.404V40.4595C106.404 40.3997 106.369 40.3599 106.307 40.3599H103.829C103.767 40.3599 103.732 40.3957 103.732 40.4595V44.0024C103.732 44.0662 103.767 44.102 103.829 44.102H106.307C106.369 44.102 106.404 44.0662 106.404 44.0024V42.5717H105.031V42.0018H107.031V44.102C107.031 44.4368 106.801 44.6719 106.474 44.6719H103.658L103.662 44.6759Z" fill="#ED0673"/>
<path d="M111.966 44.6758C111.64 44.6758 111.41 44.4407 111.41 44.1059V41.9937C111.41 41.659 111.64 41.4238 111.966 41.4238H113.791C114.118 41.4238 114.347 41.659 114.347 41.9937V42.8545C114.347 43.1893 114.149 43.3926 113.822 43.3926H112.025V44.0182C112.025 44.082 112.06 44.1179 112.122 44.1179H113.573C113.635 44.1179 113.67 44.082 113.67 44.0182V43.6596H114.285V44.1059C114.285 44.4407 114.055 44.6758 113.729 44.6758H111.963H111.966ZM113.729 42.0814C113.729 42.0216 113.694 41.9818 113.631 41.9818H112.122C112.06 41.9818 112.025 42.0176 112.025 42.0814V42.8506H113.631C113.69 42.8506 113.729 42.8147 113.729 42.7509V42.0814Z" fill="#ED0673"/>
<path d="M121.109 44.6758V42.0814C121.109 42.0216 121.074 41.9818 121.012 41.9818H119.374V44.6758H118.756V41.4238H121.168C121.494 41.4238 121.724 41.659 121.724 41.9937V44.6758H121.109Z" fill="#ED0673"/>
<path d="M126.679 44.6758C126.353 44.6758 126.123 44.4407 126.123 44.1059V41.9937C126.123 41.659 126.353 41.4238 126.679 41.4238H128.504C128.831 41.4238 129.06 41.659 129.06 41.9937V42.8545C129.06 43.1893 128.862 43.3926 128.535 43.3926H126.742V44.0182C126.742 44.082 126.777 44.1179 126.839 44.1179H128.29C128.352 44.1179 128.387 44.082 128.387 44.0182V43.6596H129.006V44.1059C129.006 44.4407 128.776 44.6758 128.449 44.6758H126.683H126.679ZM128.445 42.0814C128.445 42.0216 128.41 41.9818 128.348 41.9818H126.835C126.773 41.9818 126.738 42.0176 126.738 42.0814V42.8506H128.344C128.403 42.8506 128.441 42.8147 128.441 42.7509V42.0814H128.445Z" fill="#ED0673"/>
<path d="M133.436 44.6758V41.9937C133.436 41.659 133.665 41.4238 133.992 41.4238H135.346V41.9818H134.147C134.089 41.9818 134.05 42.0176 134.05 42.0814V44.6758H133.436Z" fill="#ED0673"/>
<path d="M140.068 44.6767C139.741 44.6767 139.512 44.4416 139.512 44.1068V43.238C139.512 42.9033 139.71 42.7 140.037 42.7H141.803V42.0823C141.803 42.0225 141.768 41.9827 141.706 41.9827H140.286C140.227 41.9827 140.189 42.0185 140.189 42.0823V42.437H139.574V41.9986C139.574 41.6638 139.803 41.4287 140.13 41.4287H141.865C142.192 41.4287 142.421 41.6638 142.421 41.9986V44.1108C142.421 44.4456 142.192 44.6807 141.865 44.6807H140.072L140.068 44.6767ZM141.803 43.246H140.224C140.161 43.246 140.126 43.2819 140.126 43.3456V44.0191C140.126 44.0829 140.161 44.1188 140.224 44.1188H141.706C141.768 44.1188 141.803 44.0829 141.803 44.0191V43.246Z" fill="#ED0673"/>
<path d="M147.895 44.6761C147.568 44.6761 147.339 44.441 147.339 44.1062V41.9821H146.615V41.4241H147.339V39.8818H147.953V41.4241H148.813V41.9821H147.953V44.0185C147.953 44.0823 147.988 44.1182 148.051 44.1182H148.716V44.6761H147.895Z" fill="#ED0673"/>
<path d="M153.107 40.5834V39.5791H153.726V40.5834H153.107ZM153.107 44.6763V41.4243H153.726V44.6763H153.107Z" fill="#ED0673"/>
<path d="M158.716 44.6758C158.39 44.6758 158.16 44.4407 158.16 44.1059V41.9937C158.16 41.659 158.39 41.4238 158.716 41.4238H160.572C160.899 41.4238 161.128 41.659 161.128 41.9937V44.1059C161.128 44.4407 160.899 44.6758 160.572 44.6758H158.716ZM160.51 42.0814C160.51 42.0216 160.475 41.9818 160.412 41.9818H158.872C158.81 41.9818 158.775 42.0176 158.775 42.0814V44.0182C158.775 44.082 158.81 44.1179 158.872 44.1179H160.412C160.471 44.1179 160.51 44.082 160.51 44.0182V42.0814Z" fill="#ED0673"/>
<path d="M167.914 44.6758V42.0814C167.914 42.0216 167.879 41.9818 167.817 41.9818H166.179V44.6758H165.561V41.4238H167.972C168.299 41.4238 168.529 41.659 168.529 41.9937V44.6758H167.914Z" fill="#ED0673"/>
<path d="M178.148 44.676V43.046C178.148 42.6515 178.238 42.4522 178.553 42.3645L180.712 41.9301C180.786 41.9102 180.809 41.8544 180.809 41.7747V40.4596C180.809 40.3998 180.774 40.3599 180.712 40.3599H178.93C178.868 40.3599 178.833 40.3958 178.833 40.4596V41.412H178.207V40.3599C178.207 40.0252 178.436 39.79 178.763 39.79H180.883C181.21 39.79 181.439 40.0252 181.439 40.3599V41.7388C181.439 42.1334 181.33 42.3446 181.023 42.4323L178.88 42.8547C178.814 42.8746 178.783 42.9225 178.783 43.0022V44.0981H181.521V44.668H178.156L178.148 44.676Z" fill="#ED0673"/>
<path d="M186.5 44.6759C186.173 44.6759 185.943 44.4408 185.943 44.106V40.3638C185.943 40.0291 186.173 39.7939 186.5 39.7939H188.713C189.04 39.7939 189.269 40.0291 189.269 40.3638V44.106C189.269 44.4408 189.04 44.6759 188.713 44.6759H186.5ZM188.639 40.4675C188.639 40.4077 188.604 40.3678 188.542 40.3678H186.667C186.605 40.3678 186.57 40.4037 186.57 40.4675V44.0104C186.57 44.0741 186.605 44.11 186.667 44.11H188.542C188.604 44.11 188.639 44.0741 188.639 44.0104V40.4675Z" fill="#ED0673"/>
<path d="M193.703 44.676V43.046C193.703 42.6515 193.793 42.4522 194.108 42.3645L196.267 41.9301C196.341 41.9102 196.364 41.8544 196.364 41.7747V40.4596C196.364 40.3998 196.329 40.3599 196.267 40.3599H194.485C194.423 40.3599 194.388 40.3958 194.388 40.4596V41.412H193.761V40.3599C193.761 40.0252 193.991 39.79 194.318 39.79H196.438C196.765 39.79 196.994 40.0252 196.994 40.3599V41.7388C196.994 42.1334 196.885 42.3446 196.578 42.4323L194.431 42.8547C194.364 42.8746 194.333 42.9225 194.333 43.0022V44.0981H197.072V44.668H193.707L193.703 44.676Z" fill="#ED0673"/>
<path d="M203.787 44.7724V43.7322H201.332V43.1025L203.604 39.8027H204.413V43.1663H205.07V43.7362H204.413V44.7763H203.783L203.787 44.7724ZM203.787 40.5599L201.993 43.1623H203.787V40.5599Z" fill="#ED0673"/>
</g>
<defs>
<clipPath id="clip0_989_85822">
<rect width="206" height="44.5633" fill="white" transform="translate(0 0.208984)"/>
</clipPath>
</defs>
</svg>
