<svg width="141" height="64" viewBox="0 0 141 64" fill="none" xmlns="http://www.w3.org/2000/svg">
<g clip-path="url(#clip0_1194_33534)">
<path d="M70.2988 28L56.2988 14L70.2988 0L84.2988 14L70.2988 28ZM61.2464 14L70.2988 23.0525L79.3513 14L70.2988 4.94755L61.2464 14Z" fill="white"/>
<path d="M70.2988 19.8925L64.4062 13.9999L70.2988 8.10742L76.1913 13.9999L70.2988 19.8925ZM69.3538 13.9999L70.2988 14.9449L71.2437 13.9999L70.2988 13.055L69.3538 13.9999Z" fill="white"/>
</g>
<g clip-path="url(#clip1_1194_33534)">
<path d="M23.5579 37.6084H19.3877V62.3848H23.5579V37.6084Z" fill="white"/>
<path d="M34.9231 37.6084H30.7529V62.3848H34.9231V37.6084Z" fill="white"/>
<path d="M32.5795 47.2152L20.8018 51.2339L22.1484 55.1807L33.9262 51.162L32.5795 47.2152Z" fill="white"/>
<path d="M14.6487 37.6416H0V41.8118H14.6487V37.6416Z" fill="white"/>
<path d="M9.4124 39.7266H5.24219V62.3582H9.4124V39.7266Z" fill="white"/>
<path d="M48.8176 64L37.8096 49.1461L46.984 36L50.3996 38.383L42.9396 49.0733L52.167 61.5177L48.8176 64Z" fill="white"/>
<path d="M50.4923 47.0278H40.3779V51.198H50.4923V47.0278Z" fill="white"/>
</g>
<g clip-path="url(#clip2_1194_33534)">
<path d="M136.676 62.3409L130.371 44.7073L124.424 62.3077L120.476 60.9737L128.347 37.6924L130.085 37.6791L132.282 37.6592L140.598 60.9405L136.676 62.3409Z" fill="white"/>
<path d="M133.436 55.1271L130.545 52.2363L127.654 55.1271L130.545 58.0179L133.436 55.1271Z" fill="white"/>
<path d="M64.3358 63.064H60.168V41.1166L70.3287 36.9355L71.9148 40.7848L64.3358 43.904V63.064Z" fill="white"/>
<path d="M70.2601 48.0315L61.3916 52.0488L63.1114 55.8453L71.9798 51.828L70.2601 48.0315Z" fill="white"/>
<path d="M94.1011 63.3163L91.5327 60.0311L97.426 55.4319L90.0195 46.3995L99.6427 36.564L102.623 39.4775L95.6142 46.645L103.359 56.089L94.1011 63.3163Z" fill="white"/>
<path d="M120.489 37.5796H105.835V41.7474H120.489V37.5796Z" fill="white"/>
<path d="M115.246 39.6636H111.078V62.3012H115.246V39.6636Z" fill="white"/>
<path d="M84.7631 64L73.7529 49.1472L82.9248 36L86.3426 38.3826L78.8831 49.0742L88.108 61.5179L84.7631 64Z" fill="white"/>
<path d="M86.4355 47.0303H76.3213V51.1981H86.4355V47.0303Z" fill="white"/>
</g>
<defs>
<clipPath id="clip0_1194_33534">
<rect width="28" height="28" fill="white" transform="translate(56.2988)"/>
</clipPath>
<clipPath id="clip1_1194_33534">
<rect width="52.1674" height="28" fill="white" transform="translate(0 36)"/>
</clipPath>
<clipPath id="clip2_1194_33534">
<rect width="80.4295" height="28" fill="white" transform="translate(60.168 36)"/>
</clipPath>
</defs>
</svg>
