<svg width="150" height="64" viewBox="0 0 150 64" fill="none" xmlns="http://www.w3.org/2000/svg">
<g clip-path="url(#clip0_1194_33286)">
<path d="M88.8701 28H85.3711V3.49906H64.3692V28H60.8701V0H88.8701V28Z" fill="white"/>
<path d="M81.8719 28H78.3729V11.024H71.3672V28H67.8682V7.5249H81.8719V28Z" fill="white"/>
</g>
<g clip-path="url(#clip1_1194_33286)">
<path d="M23.5579 37.6084H19.3877V62.3848H23.5579V37.6084Z" fill="white"/>
<path d="M34.9231 37.6084H30.7529V62.3848H34.9231V37.6084Z" fill="white"/>
<path d="M32.5795 47.2152L20.8018 51.2339L22.1484 55.1807L33.9262 51.162L32.5795 47.2152Z" fill="white"/>
<path d="M14.6487 37.6416H0V41.8118H14.6487V37.6416Z" fill="white"/>
<path d="M9.4124 39.7266H5.24219V62.3582H9.4124V39.7266Z" fill="white"/>
<path d="M48.8176 64L37.8096 49.1461L46.984 36L50.3996 38.383L42.9396 49.0733L52.167 61.5177L48.8176 64Z" fill="white"/>
<path d="M50.4923 47.0278H40.3779V51.198H50.4923V47.0278Z" fill="white"/>
</g>
<g clip-path="url(#clip2_1194_33286)">
<path d="M123.376 63.4838L113.771 51.4299L113.698 48.9277L122.469 36.5098L125.871 38.9192L118.001 50.053L124.806 58.592L128.963 51.9726L124.746 52.3102L124.415 48.1533L132.775 47.4913L134.702 50.6753L126.772 63.2984L123.376 63.4838Z" fill="white"/>
<path d="M109.256 62.3385L102.961 44.7044L97.0106 62.3054L93.0654 60.9749L100.929 37.6945L102.67 37.6746L104.868 37.6548L113.182 60.9352L109.256 62.3385Z" fill="white"/>
<path d="M106.022 55.1324L103.129 52.2397L100.236 55.1324L103.129 58.025L106.022 55.1324Z" fill="white"/>
<path d="M64.2445 63.371L61.6828 60.0878L67.5741 55.4873L60.167 46.4585L69.785 36.6221L72.7637 39.5412L65.7538 46.7034L73.4984 56.1493L64.2445 63.371Z" fill="white"/>
<path d="M91.5696 37.6416H76.9209V41.8118H91.5696V37.6416Z" fill="white"/>
<path d="M86.3333 39.7266H82.1631V62.3582H86.3333V39.7266Z" fill="white"/>
<path d="M146.391 64L135.383 49.1461L144.557 36L147.973 38.383L140.519 49.0733L149.74 61.5177L146.391 64Z" fill="white"/>
<path d="M148.066 47.0278H137.951V51.198H148.066V47.0278Z" fill="white"/>
</g>
<defs>
<clipPath id="clip0_1194_33286">
<rect width="28" height="28" fill="white" transform="translate(60.8701)"/>
</clipPath>
<clipPath id="clip1_1194_33286">
<rect width="52.1674" height="28" fill="white" transform="translate(0 36)"/>
</clipPath>
<clipPath id="clip2_1194_33286">
<rect width="89.5735" height="28" fill="white" transform="translate(60.167 36)"/>
</clipPath>
</defs>
</svg>
