<svg width="65" height="76" viewBox="0 0 65 76" fill="none" xmlns="http://www.w3.org/2000/svg">
<g clip-path="url(#clip0_1194_41265)">
<path d="M42.8701 20H40.3708V2.49933H25.3694V20H22.8701V0H42.8701V20Z" fill="white"/>
<path d="M37.8718 20.0001H35.3725V7.87433H30.3685V20.0001H27.8691V5.375H37.8718V20.0001Z" fill="white"/>
</g>
<g clip-path="url(#clip1_1194_41265)">
<path d="M31.0666 29.1489H28.0879V46.8463H31.0666V29.1489Z" fill="white"/>
<path d="M39.1848 29.1489H36.2061V46.8463H39.1848V29.1489Z" fill="white"/>
<path d="M37.5103 36.0109L29.0977 38.8813L30.0596 41.7005L38.4722 38.83L37.5103 36.0109Z" fill="white"/>
<path d="M24.7026 29.1724H14.2393V32.1511H24.7026V29.1724Z" fill="white"/>
<path d="M20.9631 30.6616H17.9844V46.8271H20.9631V30.6616Z" fill="white"/>
<path d="M49.109 48L41.2461 37.3901L47.7993 28L50.239 29.7021L44.9104 37.3381L51.5014 46.2269L49.109 48Z" fill="white"/>
<path d="M50.3056 35.877H43.0811V38.8557H50.3056V35.877Z" fill="white"/>
</g>
<g clip-path="url(#clip2_1194_41265)">
<path d="M46.0287 75.6314L39.1682 67.0215L39.1162 65.2342L45.381 56.3643L47.8112 58.0853L42.1895 66.038L47.05 72.1373L50.0193 67.4092L47.0075 67.6503L46.7711 64.681L52.7427 64.2082L54.1186 66.4825L48.4543 75.499L46.0287 75.6314Z" fill="white"/>
<path d="M35.9439 74.8133L31.4475 62.2176L27.1969 74.7897L24.3789 73.8393L29.9959 57.2105L31.2394 57.1963L32.8092 57.1821L38.7477 73.811L35.9439 74.8133Z" fill="white"/>
<path d="M33.6335 69.6663L31.5674 67.6001L29.5012 69.6663L31.5674 71.7324L33.6335 69.6663Z" fill="white"/>
<path d="M3.79241 75.5507L1.96263 73.2056L6.17066 69.9195L0.879883 63.4703L7.74986 56.4443L9.87752 58.5294L4.87043 63.6453L10.4023 70.3923L3.79241 75.5507Z" fill="white"/>
<path d="M23.31 57.1724H12.8467V60.1511H23.31V57.1724Z" fill="white"/>
<path d="M19.5705 58.6616H16.5918V74.8271H19.5705V58.6616Z" fill="white"/>
<path d="M62.4684 76L54.6055 65.3901L61.1587 56L63.5984 57.7021L58.2745 65.3381L64.8608 74.2269L62.4684 76Z" fill="white"/>
<path d="M63.665 63.877H56.4404V66.8557H63.665V63.877Z" fill="white"/>
</g>
<defs>
<clipPath id="clip0_1194_41265">
<rect width="20" height="20" fill="white" transform="translate(22.8701)"/>
</clipPath>
<clipPath id="clip1_1194_41265">
<rect width="37.2624" height="20" fill="white" transform="translate(14.2393 28)"/>
</clipPath>
<clipPath id="clip2_1194_41265">
<rect width="63.9811" height="20" fill="white" transform="translate(0.879883 56)"/>
</clipPath>
</defs>
</svg>
