<svg width="136" height="64" viewBox="0 0 136 64" fill="none" xmlns="http://www.w3.org/2000/svg">
<g clip-path="url(#clip0_1194_33472)">
<path d="M56.8617 0L54.0508 2.74117L65.5613 14L54.0508 25.2521L56.8617 28L71.1763 14L56.8617 0Z" fill="white"/>
<path d="M67.7289 0L64.9248 2.74117L76.4353 14L64.9248 25.2521L67.7289 28L82.0504 14L67.7289 0Z" fill="white"/>
</g>
<g clip-path="url(#clip1_1194_33472)">
<path d="M24.2239 37.6084H20.0537V62.3848H24.2239V37.6084Z" fill="white"/>
<path d="M35.5892 37.6084H31.4189V62.3848H35.5892V37.6084Z" fill="white"/>
<path d="M33.2455 47.2152L21.4678 51.2339L22.8144 55.1807L34.5922 51.162L33.2455 47.2152Z" fill="white"/>
<path d="M15.3147 37.6416H0.666016V41.8118H15.3147V37.6416Z" fill="white"/>
<path d="M10.0784 39.7266H5.9082V62.3582H10.0784V39.7266Z" fill="white"/>
<path d="M49.4836 64L38.4756 49.1461L47.6501 36L51.0657 38.383L43.6056 49.0733L52.833 61.5177L49.4836 64Z" fill="white"/>
<path d="M51.1584 47.0278H41.0439V51.198H51.1584V47.0278Z" fill="white"/>
</g>
<g clip-path="url(#clip2_1194_33472)">
<path d="M113.436 62.9911L106.805 44.4297L100.545 62.9568L96.3916 61.5496L104.67 37.0436L106.503 37.0299L108.816 37.0093L117.568 61.5153L113.436 62.9911Z" fill="white"/>
<path d="M110.029 55.4003L106.985 52.3569L103.942 55.4003L106.985 58.4437L110.029 55.4003Z" fill="white"/>
<path d="M79.8418 64V36H84.2282V57.6985L92.0673 54.8017L93.5912 58.9203L79.8418 64Z" fill="white"/>
<path d="M65.2204 63.7735H60.834V36.2266L77.4665 45.4318L65.2684 58.2614L65.2204 58.2133V63.7735ZM65.2204 43.6676V51.9461L70.3755 46.5232L65.2204 43.6676Z" fill="white"/>
<path d="M124.577 52.7081L117.575 38.2447L121.522 36.3364L126.533 46.688L131.476 36.3433L135.436 38.2379L128.531 52.6944L124.577 52.7081Z" fill="white"/>
<path d="M128.696 50.1338H124.31V63.6636H128.696V50.1338Z" fill="white"/>
</g>
<defs>
<clipPath id="clip0_1194_33472">
<rect width="28" height="28" fill="white" transform="translate(54.0508)"/>
</clipPath>
<clipPath id="clip1_1194_33472">
<rect width="52.1674" height="28" fill="white" transform="translate(0.666016 36)"/>
</clipPath>
<clipPath id="clip2_1194_33472">
<rect width="74.6026" height="28" fill="white" transform="translate(60.834 36)"/>
</clipPath>
</defs>
</svg>
