<svg width="120" height="64" viewBox="0 0 120 64" fill="none" xmlns="http://www.w3.org/2000/svg">
<g clip-path="url(#clip0_1194_33365)">
<path d="M60.1617 7.82287L68.4956 24.5056H51.8279L60.1617 7.82287ZM60.1617 0L46.1768 28H74.1467L60.1617 0Z" fill="white"/>
<path d="M60.1619 14.0376L56.1641 22.0183H64.1523L60.1619 14.0376Z" fill="white"/>
</g>
<g clip-path="url(#clip1_1194_33365)">
<path d="M24.2093 37.6084H20.0391V62.3848H24.2093V37.6084Z" fill="white"/>
<path d="M35.5745 37.6084H31.4043V62.3848H35.5745V37.6084Z" fill="white"/>
<path d="M33.2308 47.2152L21.4531 51.2339L22.7998 55.1807L34.5775 51.162L33.2308 47.2152Z" fill="white"/>
<path d="M15.3001 37.6416H0.651367V41.8118H15.3001V37.6416Z" fill="white"/>
<path d="M10.0638 39.7266H5.89355V62.3582H10.0638V39.7266Z" fill="white"/>
<path d="M49.469 64L38.4609 49.1461L47.6354 36L51.051 38.383L43.591 49.0733L52.8184 61.5177L49.469 64Z" fill="white"/>
<path d="M51.1437 47.0278H41.0293V51.198H51.1437V47.0278Z" fill="white"/>
</g>
<g clip-path="url(#clip2_1194_33365)">
<path d="M77.5463 62.7496L71.044 44.5337L64.895 62.7157L60.8184 61.3364L68.9445 37.284L70.7451 37.2704L73.0144 37.25L81.6026 61.3024L77.5463 62.7496Z" fill="white"/>
<path d="M74.2051 55.3013L71.2168 52.313L68.2285 55.3013L71.2168 58.2897L74.2051 55.3013Z" fill="white"/>
<path d="M89.6475 63.0352H85.3398V36L101.66 45.0366L89.6951 57.6268L89.6475 57.5792V63.0352ZM89.6475 43.3041V51.4234L94.7026 46.1034L89.6475 43.3041Z" fill="white"/>
<path d="M93.1527 51.088L89.957 53.9766L99.0145 63.9971L102.21 61.1086L93.1527 51.088Z" fill="white"/>
<path d="M119.672 37.1685H104.534V41.4761H119.672V37.1685Z" fill="white"/>
<path d="M114.257 39.3223H109.949V62.702H114.257V39.3223Z" fill="white"/>
</g>
<defs>
<clipPath id="clip0_1194_33365">
<rect width="27.9699" height="28" fill="white" transform="translate(46.1768)"/>
</clipPath>
<clipPath id="clip1_1194_33365">
<rect width="52.1674" height="28" fill="white" transform="translate(0.651367 36)"/>
</clipPath>
<clipPath id="clip2_1194_33365">
<rect width="58.8537" height="28" fill="white" transform="translate(60.8184 36)"/>
</clipPath>
</defs>
</svg>
