<svg width="43" height="76" viewBox="0 0 43 76" fill="none" xmlns="http://www.w3.org/2000/svg">
<g clip-path="url(#clip0_1194_41301)">
<path d="M21.1631 5.58776L27.1159 17.504H15.2103L21.1631 5.58776ZM21.1631 0L11.1738 20H31.1524L21.1631 0Z" fill="white"/>
<path d="M21.1632 10.0269L18.3076 15.7273H24.0135L21.1632 10.0269Z" fill="white"/>
</g>
<g clip-path="url(#clip1_1194_41301)">
<path d="M19.3586 29.1489H16.3799V46.8463H19.3586V29.1489Z" fill="white"/>
<path d="M27.4768 29.1489H24.498V46.8463H27.4768V29.1489Z" fill="white"/>
<path d="M25.8023 36.0109L17.3896 38.8813L18.3516 41.7005L26.7642 38.83L25.8023 36.0109Z" fill="white"/>
<path d="M12.9946 29.1724H2.53125V32.1511H12.9946V29.1724Z" fill="white"/>
<path d="M9.25509 30.6616H6.27637V46.8271H9.25509V30.6616Z" fill="white"/>
<path d="M37.401 48L29.5381 37.3901L36.0913 28L38.531 29.7021L33.2024 37.3381L39.7934 46.2269L37.401 48Z" fill="white"/>
<path d="M38.5976 35.877H31.373V38.8557H38.5976V35.877Z" fill="white"/>
</g>
<g clip-path="url(#clip2_1194_41301)">
<path d="M12.0921 75.1071L7.44761 62.0957L3.05547 75.0828L0.143555 74.0976L5.94797 56.9173L7.23407 56.9076L8.85503 56.8931L14.9895 74.0734L12.0921 75.1071Z" fill="white"/>
<path d="M9.70582 69.7869L7.57129 67.6523L5.43676 69.7869L7.57129 71.9214L9.70582 69.7869Z" fill="white"/>
<path d="M20.7361 75.3108H17.6592V56L29.3165 62.4547L20.7701 71.4477L20.7361 71.4137V75.3108ZM20.7361 61.2172V67.0167L24.3469 63.2167L20.7361 61.2172Z" fill="white"/>
<path d="M23.2397 66.7771L20.957 68.8403L27.4267 75.9979L29.7093 73.9346L23.2397 66.7771Z" fill="white"/>
<path d="M42.1821 56.835H31.3691V59.9119H42.1821V56.835Z" fill="white"/>
<path d="M38.3142 58.3735H35.2373V75.0734H38.3142V58.3735Z" fill="white"/>
</g>
<defs>
<clipPath id="clip0_1194_41301">
<rect width="19.9785" height="20" fill="white" transform="translate(11.1738)"/>
</clipPath>
<clipPath id="clip1_1194_41301">
<rect width="37.2624" height="20" fill="white" transform="translate(2.53125 28)"/>
</clipPath>
<clipPath id="clip2_1194_41301">
<rect width="42.0383" height="20" fill="white" transform="translate(0.143555 56)"/>
</clipPath>
</defs>
</svg>
