<svg width="156" height="28" viewBox="0 0 156 28" fill="none" xmlns="http://www.w3.org/2000/svg">
<g clip-path="url(#clip0_1194_43321)">
<path d="M14.652 7.82287L22.9858 24.5056H6.31809L14.652 7.82287ZM14.652 0L0.666992 28H28.6369L14.652 0Z" fill="white"/>
<path d="M14.6522 14.0376L10.6543 22.0183H18.6425L14.6522 14.0376Z" fill="white"/>
</g>
<g clip-path="url(#clip1_1194_43321)">
<path d="M60.1951 1.6084H56.0249V26.3848H60.1951V1.6084Z" fill="white"/>
<path d="M71.5608 1.6084H67.3906V26.3848H71.5608V1.6084Z" fill="white"/>
<path d="M69.2167 11.2152L57.439 15.2339L58.7856 19.1807L70.5634 15.162L69.2167 11.2152Z" fill="white"/>
<path d="M51.2854 1.6416H36.6367V5.81181H51.2854V1.6416Z" fill="white"/>
<path d="M46.0496 3.72656H41.8794V26.3582H46.0496V3.72656Z" fill="white"/>
<path d="M85.4548 28L74.4468 13.1461L83.6212 0L87.0368 2.38298L79.5768 13.0733L88.8042 25.5177L85.4548 28Z" fill="white"/>
<path d="M87.1296 11.0278H77.0151V15.198H87.1296V11.0278Z" fill="white"/>
</g>
<g clip-path="url(#clip2_1194_43321)">
<path d="M113.532 26.7496L107.03 8.53367L100.881 26.7157L96.8042 25.3364L104.93 1.28397L106.731 1.27038L109 1.25L117.588 25.3024L113.532 26.7496Z" fill="white"/>
<path d="M110.191 19.3013L107.203 16.313L104.214 19.3013L107.203 22.2897L110.191 19.3013Z" fill="white"/>
<path d="M125.633 27.0352H121.325V0L137.646 9.03664L125.68 21.6268L125.633 21.5792V27.0352ZM125.633 7.30405V15.4234L130.688 10.1034L125.633 7.30405Z" fill="white"/>
<path d="M129.139 15.088L125.943 17.9766L135 27.9971L138.196 25.1086L129.139 15.088Z" fill="white"/>
<path d="M155.658 1.16846H140.52V5.47615H155.658V1.16846Z" fill="white"/>
<path d="M150.243 3.32227H145.935V26.702H150.243V3.32227Z" fill="white"/>
</g>
<defs>
<clipPath id="clip0_1194_43321">
<rect width="27.9699" height="28" fill="white" transform="translate(0.666992)"/>
</clipPath>
<clipPath id="clip1_1194_43321">
<rect width="52.1674" height="28" fill="white" transform="translate(36.6367)"/>
</clipPath>
<clipPath id="clip2_1194_43321">
<rect width="58.8537" height="28" fill="white" transform="translate(96.8042)"/>
</clipPath>
</defs>
</svg>
