<svg width="172" height="28" viewBox="0 0 172 28" fill="none" xmlns="http://www.w3.org/2000/svg">
<g clip-path="url(#clip0_1194_43427)">
<path d="M3.47745 0L0.666504 2.74117L12.177 14L0.666504 25.2521L3.47745 28L17.7921 14L3.47745 0Z" fill="white"/>
<path d="M14.3451 0L11.541 2.74117L23.0515 14L11.541 25.2521L14.3451 28L28.6666 14L14.3451 0Z" fill="white"/>
</g>
<g clip-path="url(#clip1_1194_43427)">
<path d="M60.2249 1.6084H56.0547V26.3848H60.2249V1.6084Z" fill="white"/>
<path d="M71.5906 1.6084H67.4204V26.3848H71.5906V1.6084Z" fill="white"/>
<path d="M69.2465 11.2152L57.4688 15.2339L58.8154 19.1807L70.5931 15.162L69.2465 11.2152Z" fill="white"/>
<path d="M51.3152 1.6416H36.6665V5.81181H51.3152V1.6416Z" fill="white"/>
<path d="M46.0794 3.72656H41.9092V26.3582H46.0794V3.72656Z" fill="white"/>
<path d="M85.4846 28L74.4766 13.1461L83.651 0L87.0666 2.38298L79.6066 13.0733L88.834 25.5177L85.4846 28Z" fill="white"/>
<path d="M87.1593 11.0278H77.0449V15.198H87.1593V11.0278Z" fill="white"/>
</g>
<g clip-path="url(#clip2_1194_43427)">
<path d="M149.436 26.9911L142.805 8.42972L136.545 26.9568L132.392 25.5496L140.67 1.0436L142.503 1.02987L144.816 1.00928L153.568 25.5153L149.436 26.9911Z" fill="white"/>
<path d="M146.029 19.4003L142.985 16.3569L139.942 19.4003L142.985 22.4437L146.029 19.4003Z" fill="white"/>
<path d="M115.842 28V0H120.228V21.6985L128.067 18.8017L129.591 22.9203L115.842 28Z" fill="white"/>
<path d="M101.22 27.7735H96.834V0.226562L113.466 9.43176L101.268 22.2614L101.22 22.2133V27.7735ZM101.22 7.6676V15.9461L106.376 10.5232L101.22 7.6676Z" fill="white"/>
<path d="M160.577 16.7081L153.575 2.24474L157.522 0.336426L162.533 10.688L167.476 0.34329L171.436 2.23787L164.531 16.6944L160.577 16.7081Z" fill="white"/>
<path d="M164.695 14.1338H160.309V27.6636H164.695V14.1338Z" fill="white"/>
</g>
<defs>
<clipPath id="clip0_1194_43427">
<rect width="28" height="28" fill="white" transform="translate(0.666504)"/>
</clipPath>
<clipPath id="clip1_1194_43427">
<rect width="52.1674" height="28" fill="white" transform="translate(36.6665)"/>
</clipPath>
<clipPath id="clip2_1194_43427">
<rect width="74.6026" height="28" fill="white" transform="translate(96.834)"/>
</clipPath>
</defs>
</svg>
