<svg width="177" height="28" viewBox="0 0 177 28" fill="none" xmlns="http://www.w3.org/2000/svg">
<g clip-path="url(#clip0_1194_43488)">
<path d="M14 28L0 14L14 0L28 14L14 28ZM4.94755 14L14 23.0525L23.0525 14L14 4.94755L4.94755 14Z" fill="white"/>
<path d="M13.9999 19.8925L8.10742 13.9999L13.9999 8.10742L19.8925 13.9999L13.9999 19.8925ZM13.055 13.9999L13.9999 14.9449L14.9449 13.9999L13.9999 13.055L13.055 13.9999Z" fill="white"/>
</g>
<g clip-path="url(#clip1_1194_43488)">
<path d="M59.5584 1.6084H55.3882V26.3848H59.5584V1.6084Z" fill="white"/>
<path d="M70.9241 1.6084H66.7539V26.3848H70.9241V1.6084Z" fill="white"/>
<path d="M68.58 11.2152L56.8022 15.2339L58.1489 19.1807L69.9266 15.162L68.58 11.2152Z" fill="white"/>
<path d="M50.6487 1.6416H36V5.81181H50.6487V1.6416Z" fill="white"/>
<path d="M45.4129 3.72656H41.2427V26.3582H45.4129V3.72656Z" fill="white"/>
<path d="M84.8181 28L73.8101 13.1461L82.9845 0L86.4001 2.38298L78.9401 13.0733L88.1675 25.5177L84.8181 28Z" fill="white"/>
<path d="M86.4928 11.0278H76.3784V15.198H86.4928V11.0278Z" fill="white"/>
</g>
<g clip-path="url(#clip2_1194_43488)">
<path d="M172.675 26.3409L166.37 8.7073L160.423 26.3077L156.475 24.9737L164.346 1.69236L166.084 1.67909L168.281 1.65918L176.597 24.9405L172.675 26.3409Z" fill="white"/>
<path d="M169.435 19.1271L166.544 16.2363L163.654 19.1271L166.544 22.0179L169.435 19.1271Z" fill="white"/>
<path d="M100.335 27.064H96.1675V5.11663L106.328 0.935547L107.914 4.7848L100.335 7.90402V27.064Z" fill="white"/>
<path d="M106.26 12.0315L97.3911 16.0488L99.1109 19.8453L107.979 15.828L106.26 12.0315Z" fill="white"/>
<path d="M130.101 27.3163L127.532 24.0311L133.426 19.4319L126.019 10.3995L135.642 0.563965L138.622 3.47745L131.614 10.645L139.359 20.089L130.101 27.3163Z" fill="white"/>
<path d="M156.488 1.57959H141.834V5.7474H156.488V1.57959Z" fill="white"/>
<path d="M151.245 3.66357H147.077V26.3012H151.245V3.66357Z" fill="white"/>
<path d="M120.763 28L109.753 13.1472L118.925 0L122.343 2.38256L114.883 13.0742L124.108 25.5179L120.763 28Z" fill="white"/>
<path d="M122.436 11.0303H112.321V15.1981H122.436V11.0303Z" fill="white"/>
</g>
<defs>
<clipPath id="clip0_1194_43488">
<rect width="28" height="28" fill="white"/>
</clipPath>
<clipPath id="clip1_1194_43488">
<rect width="52.1674" height="28" fill="white" transform="translate(36)"/>
</clipPath>
<clipPath id="clip2_1194_43488">
<rect width="80.4295" height="28" fill="white" transform="translate(96.1675)"/>
</clipPath>
</defs>
</svg>
