<svg width="186" height="40" viewBox="0 0 186 40" fill="none" xmlns="http://www.w3.org/2000/svg">
<g clip-path="url(#clip0_1194_43243)">
<path d="M28 34H24.5009V9.49906H3.49906V34H0V6H28V34Z" fill="white"/>
<path d="M21.0018 34H17.5028V17.024H10.4971V34H6.99805V13.5249H21.0018V34Z" fill="white"/>
</g>
<g clip-path="url(#clip1_1194_43243)">
<path d="M59.5584 7.6084H55.3882V32.3848H59.5584V7.6084Z" fill="white"/>
<path d="M70.9241 7.6084H66.7539V32.3848H70.9241V7.6084Z" fill="white"/>
<path d="M68.58 17.2152L56.8022 21.2339L58.1489 25.1807L69.9266 21.162L68.58 17.2152Z" fill="white"/>
<path d="M50.6487 7.6416H36V11.8118H50.6487V7.6416Z" fill="white"/>
<path d="M45.4129 9.72656H41.2427V32.3582H45.4129V9.72656Z" fill="white"/>
<path d="M84.8181 34L73.8101 19.1461L82.9845 6L86.4001 8.38298L78.9401 19.0733L88.1675 31.5177L84.8181 34Z" fill="white"/>
<path d="M86.4928 17.0278H76.3784V21.198H86.4928V17.0278Z" fill="white"/>
</g>
<g clip-path="url(#clip2_1194_43243)">
<path d="M159.376 33.4838L149.771 21.4299L149.698 18.9277L158.469 6.50977L161.871 8.91922L154.001 20.053L160.806 28.592L164.963 21.9726L160.746 22.3102L160.415 18.1533L168.775 17.4913L170.702 20.6753L162.772 33.2984L159.376 33.4838Z" fill="white"/>
<path d="M145.257 32.3385L138.962 14.7044L133.011 32.3054L129.066 30.9749L136.93 7.6945L138.671 7.67464L140.868 7.65479L149.182 30.9352L145.257 32.3385Z" fill="white"/>
<path d="M142.022 25.1324L139.129 22.2397L136.237 25.1324L139.129 28.025L142.022 25.1324Z" fill="white"/>
<path d="M100.245 33.371L97.6833 30.0878L103.575 25.4873L96.1675 16.4585L105.785 6.62207L108.764 9.54122L101.754 16.7034L109.499 26.1493L100.245 33.371Z" fill="white"/>
<path d="M127.57 7.6416H112.921V11.8118H127.57V7.6416Z" fill="white"/>
<path d="M122.334 9.72656H118.164V32.3582H122.334V9.72656Z" fill="white"/>
<path d="M182.392 34L171.384 19.1461L180.558 6L183.974 8.38298L176.52 19.0733L185.741 31.5177L182.392 34Z" fill="white"/>
<path d="M184.067 17.0278H173.952V21.198H184.067V17.0278Z" fill="white"/>
</g>
<defs>
<clipPath id="clip0_1194_43243">
<rect width="28" height="28" fill="white" transform="translate(0 6)"/>
</clipPath>
<clipPath id="clip1_1194_43243">
<rect width="52.1674" height="28" fill="white" transform="translate(36 6)"/>
</clipPath>
<clipPath id="clip2_1194_43243">
<rect width="89.5735" height="28" fill="white" transform="translate(96.1675 6)"/>
</clipPath>
</defs>
</svg>
