<svg width="59" height="76" viewBox="0 0 59 76" fill="none" xmlns="http://www.w3.org/2000/svg">
<g clip-path="url(#clip0_1194_41369)">
<path d="M29.2979 20L19.2979 10L29.2979 0L39.2979 10L29.2979 20ZM22.8318 10L29.2979 16.466L35.7639 10L29.2979 3.53396L22.8318 10Z" fill="white"/>
<path d="M29.2978 14.2089L25.0889 9.99996L29.2978 5.79102L33.5068 9.99996L29.2978 14.2089ZM28.6228 9.99996L29.2978 10.6749L29.9728 9.99996L29.2978 9.32498L28.6228 9.99996Z" fill="white"/>
</g>
<g clip-path="url(#clip1_1194_41369)">
<path d="M27.4943 29.1489H24.5156V46.8463H27.4943V29.1489Z" fill="white"/>
<path d="M35.6125 29.1489H32.6338V46.8463H35.6125V29.1489Z" fill="white"/>
<path d="M33.938 36.0109L25.5254 38.8813L26.4873 41.7005L34.9 38.83L33.938 36.0109Z" fill="white"/>
<path d="M21.1303 29.1724H10.667V32.1511H21.1303V29.1724Z" fill="white"/>
<path d="M17.3908 30.6616H14.4121V46.8271H17.3908V30.6616Z" fill="white"/>
<path d="M45.5367 48L37.6738 37.3901L44.227 28L46.6667 29.7021L41.3381 37.3381L47.9291 46.2269L45.5367 48Z" fill="white"/>
<path d="M46.7334 35.877H39.5088V38.8557H46.7334V35.877Z" fill="white"/>
</g>
<g clip-path="url(#clip2_1194_41369)">
<path d="M55.2209 74.8148L50.7174 62.2194L46.47 74.7911L43.6494 73.8383L49.2716 57.2088L50.5136 57.1993L52.0827 57.1851L58.0225 73.8146L55.2209 74.8148Z" fill="white"/>
<path d="M52.9066 69.662L50.8418 67.5972L48.777 69.662L50.8418 71.7268L52.9066 69.662Z" fill="white"/>
<path d="M3.55025 75.3316H0.573242V59.6549L7.83089 56.6685L8.96386 59.4179L3.55025 61.6459V75.3316Z" fill="white"/>
<path d="M7.78189 64.5939L1.44727 67.4634L2.67566 70.1751L9.01029 67.3056L7.78189 64.5939Z" fill="white"/>
<path d="M24.8109 75.5116L22.9763 73.1651L27.1859 69.88L21.8955 63.4282L28.7692 56.4028L30.8976 58.4839L25.8917 63.6036L31.4238 70.3493L24.8109 75.5116Z" fill="white"/>
<path d="M43.6593 57.1284H33.1924V60.1054H43.6593V57.1284Z" fill="white"/>
<path d="M39.9145 58.6167H36.9375V74.7864H39.9145V58.6167Z" fill="white"/>
<path d="M18.1418 76L10.2773 65.3909L16.8287 56L19.27 57.7018L13.9417 65.3387L20.531 74.2271L18.1418 76Z" fill="white"/>
<path d="M19.3368 63.8784H12.1123V66.8554H19.3368V63.8784Z" fill="white"/>
</g>
<defs>
<clipPath id="clip0_1194_41369">
<rect width="20" height="20" fill="white" transform="translate(19.2979)"/>
</clipPath>
<clipPath id="clip1_1194_41369">
<rect width="37.2624" height="20" fill="white" transform="translate(10.667 28)"/>
</clipPath>
<clipPath id="clip2_1194_41369">
<rect width="57.4496" height="20" fill="white" transform="translate(0.573242 56)"/>
</clipPath>
</defs>
</svg>
