<svg width="54" height="76" viewBox="0 0 54 76" fill="none" xmlns="http://www.w3.org/2000/svg">
<g clip-path="url(#clip0_1194_41336)">
<path d="M19.0586 0L17.0508 1.95798L25.2726 10L17.0508 18.0372L19.0586 20L29.2833 10L19.0586 0Z" fill="white"/>
<path d="M26.8213 0L24.8184 1.95798L33.0401 10L24.8184 18.0372L26.8213 20L37.0509 10L26.8213 0Z" fill="white"/>
</g>
<g clip-path="url(#clip1_1194_41336)">
<path d="M25.2473 29.1489H22.2686V46.8463H25.2473V29.1489Z" fill="white"/>
<path d="M33.3654 29.1489H30.3867V46.8463H33.3654V29.1489Z" fill="white"/>
<path d="M31.691 36.0109L23.2783 38.8813L24.2402 41.7005L32.6529 38.83L31.691 36.0109Z" fill="white"/>
<path d="M18.8833 29.1724H8.41992V32.1511H18.8833V29.1724Z" fill="white"/>
<path d="M15.1438 30.6616H12.165V46.8271H15.1438V30.6616Z" fill="white"/>
<path d="M43.2896 48L35.4268 37.3901L41.98 28L44.4197 29.7021L39.0911 37.3381L45.6821 46.2269L43.2896 48Z" fill="white"/>
<path d="M44.4863 35.877H37.2617V38.8557H44.4863V35.877Z" fill="white"/>
</g>
<g clip-path="url(#clip2_1194_41336)">
<path d="M37.9802 75.2792L33.2438 62.021L28.7721 75.2547L25.8057 74.2495L31.7189 56.7452L33.028 56.7354L34.6804 56.7207L40.9319 74.225L37.9802 75.2792Z" fill="white"/>
<path d="M35.5469 69.857L33.373 67.6831L31.1992 69.857L33.373 72.0308L35.5469 69.857Z" fill="white"/>
<path d="M13.9844 76V56H17.1175V71.4989L22.7169 69.4298L23.8054 72.3717L13.9844 76Z" fill="white"/>
<path d="M3.54035 75.838H0.407227V56.1616L12.2876 62.7368L3.57467 71.9008L3.54035 71.8664V75.838ZM3.54035 61.4766V67.3899L7.22262 63.5164L3.54035 61.4766Z" fill="white"/>
<path d="M45.9377 67.9343L40.9365 57.6033L43.7558 56.2402L47.3351 63.6342L50.8654 56.2451L53.6945 57.5984L48.762 67.9245L45.9377 67.9343Z" fill="white"/>
<path d="M48.8792 66.0957H45.7461V75.7598H48.8792V66.0957Z" fill="white"/>
</g>
<defs>
<clipPath id="clip0_1194_41336">
<rect width="20" height="20" fill="white" transform="translate(17.0508)"/>
</clipPath>
<clipPath id="clip1_1194_41336">
<rect width="37.2624" height="20" fill="white" transform="translate(8.41992 28)"/>
</clipPath>
<clipPath id="clip2_1194_41336">
<rect width="53.2876" height="20" fill="white" transform="translate(0.407227 56)"/>
</clipPath>
</defs>
</svg>
