<svg width="97" height="32" viewBox="0 0 97 32" fill="none" xmlns="http://www.w3.org/2000/svg">
<path fill-rule="evenodd" clip-rule="evenodd" d="M26.1236 18.5576C25.8764 18.187 25.5552 17.8162 25.2092 17.4702L26.3707 17.0751L30.4733 13.7884L30.7205 10.8727L30.6216 10.6501V10.5762L30.5969 10.5267V10.4773L30.5475 10.3289L30.1273 9.24174L25.6046 8.00622L22.4411 6.99301L20.2415 1.9028L18.0172 0.988525H17.696H17.523H16.5591L13.2226 4.47249L12.3082 7.88255L5.43757 8.59925L4.62199 10.3783L4.54785 10.6501V12.0588L7.68659 15.9877L10.0839 17.2727C9.66375 17.668 9.29303 18.0881 8.99646 18.5082C3.65813 19.7437 4.74557 30.5175 11.3443 31.5307C13.2473 31.8272 15.3234 32 17.4982 32C19.9697 32 22.3176 31.7776 24.4677 31.407C30.6463 30.295 31.4125 19.7932 26.1483 18.5576H26.1236Z" fill="white"/>
<path fill-rule="evenodd" clip-rule="evenodd" d="M14.3594 14.8261C16.4848 14.3072 18.6844 14.3072 20.8099 14.8261L19.9943 11.5889H19.2034L19.0798 12.5526H18.1407L18.0418 11.5889H17.1521L17.0533 12.5526H16.1141L15.9905 11.5889H15.1997L14.3594 14.8261Z" fill="#FAA619"/>
<path fill-rule="evenodd" clip-rule="evenodd" d="M26.1232 18.5574C28.2981 21.6957 27.5319 25.5504 27.5319 25.5504C27.5319 25.5504 23.5776 26.2424 20.2659 23.4748C18.1651 21.7204 17.5226 19.7435 17.5226 19.7435C17.5226 19.7435 16.9047 21.7204 14.7793 23.4748C11.4675 26.2424 7.5132 25.5504 7.5132 25.5504C7.5132 25.5504 6.74705 21.6709 8.94664 18.5327C3.60831 19.7682 0 22.1155 0 24.809C0 28.3673 6.25276 31.3328 14.4827 31.9012V27.1567H15.7926V31.9751C16.1138 31.9751 16.4598 31.9751 16.7811 31.9998V25.2292H18.091V31.9998C18.437 31.9998 18.7583 31.9998 19.1043 31.9751V27.1567H20.4142V31.9012C28.6441 31.3081 34.8968 28.3673 34.8968 24.809C34.8968 22.1402 31.3627 19.793 26.0985 18.5574H26.1232Z" fill="#0066B3"/>
<path fill-rule="evenodd" clip-rule="evenodd" d="M11.8874 6.91876C9.21828 6.39984 6.47497 6.91897 4.20124 8.37689C4.20124 9.11821 4.34953 9.85956 4.57196 10.5762C7.26584 8.45106 10.9977 8.15439 13.9882 9.80999C13.2962 6.42466 14.7296 2.96507 17.5965 1.03765C16.9786 0.617569 16.3113 0.27184 15.6193 0.0247346C13.5433 1.77918 12.2087 4.25005 11.9122 6.94349L11.8874 6.91876ZM2.99023 12.1329C3.50924 13.4179 4.27539 14.5543 5.26397 15.5427C5.51111 15.7898 5.75825 16.037 6.03011 16.2594C7.01869 17.0748 8.10613 17.6926 9.29243 18.1127C9.762 17.5443 10.3304 17.0006 11.0472 16.5064C9.49014 16.1852 8.0567 15.4439 6.91984 14.3566C5.80768 13.3188 4.99211 12.0093 4.57196 10.5514C3.97881 11.0209 3.45981 11.5399 3.01495 12.1329H2.99023ZM23.2808 6.91876C22.9595 4.22531 21.6497 1.75444 19.5489 0C18.8569 0.247105 18.1896 0.593136 17.5718 1.01321C20.4387 2.94063 21.8721 6.39992 21.1801 9.78526C24.1953 8.12965 27.9024 8.42633 30.621 10.5514C30.8187 9.83482 30.9423 9.09347 30.9917 8.35216C28.6933 6.91895 25.95 6.39981 23.3055 6.89402L23.2808 6.91876ZM30.621 10.5514C30.2009 12.0093 29.3853 13.3188 28.2731 14.3566C27.1363 15.4439 25.6287 16.2099 24.0717 16.5064C24.7637 17.0006 25.3568 17.5196 25.8017 18.1127C27.0127 17.6926 28.1496 17.0501 29.1381 16.2347C29.41 16.0123 29.6572 15.7654 29.9043 15.5183C30.8682 14.5546 31.659 13.3931 32.178 12.1082C31.7332 11.5151 31.1894 10.9962 30.621 10.5267V10.5514Z" fill="#E11347"/>
<path d="M64.1338 25.1798C64.1338 25.8223 64.3068 26.3164 64.6775 26.6624C65.0482 27.0083 65.5672 27.2062 66.2345 27.2062H75.9967V19.4224H64.1338V25.1798ZM66.9265 20.9791H73.2287V25.6742H66.9265V20.9791Z" fill="white"/>
<path d="M76.0216 8.0061H73.2288V14.6039C73.2288 14.6039 72.438 14.925 71.7212 15.098C71.0787 15.2463 70.3867 15.3203 69.6699 15.3203H64.6282V8.0061H61.8354V14.9496C61.8354 15.5921 62.0085 16.0618 62.3297 16.383C62.6757 16.7042 63.17 16.8771 63.8373 16.8771H69.5217C70.2384 16.8771 70.9304 16.7535 71.5977 16.5311C72.2155 16.3087 72.7593 16.0865 73.2041 15.8394V18.4091H75.9968V12.6764H79.1109V11.1196H75.9968V8.0061H76.0216Z" fill="white"/>
<path d="M93.9644 8.0061V27.2062H96.7571V8.0061H93.9644Z" fill="white"/>
<path d="M53.7296 11.6385H49.8247V13.1952H53.7296V18.3844H56.5223V8.0061H53.7296V11.6385Z" fill="white"/>
<path d="M50.9119 18.8787C47.7732 18.8787 45.3018 20.8306 45.3018 23.3016C45.3018 25.7727 47.7732 27.7249 50.9119 27.7249C54.0507 27.7249 56.5221 25.7727 56.5221 23.3016C56.5221 20.8306 54.0507 18.8787 50.9119 18.8787ZM50.9119 26.2176C49.3055 26.2176 48.0945 24.9573 48.0945 23.3264C48.0945 21.6955 49.3055 20.4354 50.9119 20.4354C52.5184 20.4354 53.7294 21.6955 53.7294 23.3264C53.7294 24.9573 52.5184 26.2176 50.9119 26.2176Z" fill="white"/>
<path d="M48.8112 14.6531C47.7979 13.467 47.2789 11.8855 47.2295 10.057V8.0061H44.3626V10.057C44.3132 11.8855 43.7942 13.4917 42.7809 14.6531C41.7429 15.8639 39.7163 17.0255 39.7163 17.0255L40.9768 18.2363C40.9768 18.2363 42.6079 17.3221 43.6953 16.4572C44.7086 15.6418 45.5984 14.4061 45.8208 13.8625C46.0432 14.3814 46.9082 15.617 47.9462 16.4572C49.009 17.3221 50.6648 18.2363 50.6648 18.2363L51.9253 17.0255C51.9253 17.0255 49.8987 15.8886 48.8607 14.6531H48.8112Z" fill="white"/>
<path d="M89.5407 17.149C88.1566 15.4687 87.9342 13.9863 87.8848 11.7623V8.03101H85.0179V11.7623C84.9685 13.9863 84.7708 15.4687 83.362 17.149C82.324 18.3846 80.3716 19.5214 80.3716 19.5214L81.632 20.7322C81.632 20.7322 83.2879 19.8674 84.2765 18.8789C85.9818 17.1739 86.4019 16.2842 86.4761 15.9382C86.5502 16.2842 86.9456 17.1986 88.6509 18.8789C89.6395 19.8674 91.2954 20.7322 91.2954 20.7322L92.5558 19.5214C92.5558 19.5214 90.5787 18.3846 89.5654 17.149H89.5407Z" fill="white"/>
</svg>
