<svg width="111" height="24" viewBox="0 0 111 24" fill="none" xmlns="http://www.w3.org/2000/svg">
<g clip-path="url(#clip0_269_23318)">
<path d="M47.8091 19.9762H44.6346V16.639H38.5215V14.0354H51.4557V16.639H47.7973V19.9762H47.8091Z" fill="white"/>
<path d="M42.605 3.91724H38.6987V12.6155H42.605V3.91724Z" fill="url(#paint0_linear_269_23318)"/>
<path d="M47.3727 0H38.6987V3.91716H47.3727V0Z" fill="url(#paint1_linear_269_23318)"/>
<path d="M51.2788 0H47.3726V8.69823H51.2788V0Z" fill="url(#paint2_linear_269_23318)"/>
<path d="M51.2789 8.69824H42.605V12.6154H51.2789V8.69824Z" fill="url(#paint3_linear_269_23318)"/>
<path d="M38.6983 17.7869H41.8375V21.42H51.2667V23.9999H38.6865V17.7869H38.6983Z" fill="white"/>
<path d="M12.0158 10.7691H9.37228V13.9407H6.8586V7.42H0.757324V5.20699H9.37228V8.5561H12.0158V4.01172H14.2226V17.9999H12.0158V10.7691ZM15.9102 4.01172H18.1643V17.9999H15.9102V4.01172Z" fill="white"/>
<path d="M26.6138 15.7869H35.2287V23.8934H26.6138V15.7869ZM29.1156 17.9999V21.6804H32.715V17.9999H29.1156ZM32.7386 4.01172H35.2287V16.2129H32.7386V4.01172Z" fill="white"/>
<path d="M25.3394 4.75732C22.7903 4.75732 20.7251 6.82833 20.7251 9.38454C20.7251 11.9408 22.7903 13.9999 25.3394 13.9999C27.8885 13.9999 29.9419 11.9289 29.9419 9.38454C29.9419 6.84016 27.8885 4.75732 25.3394 4.75732ZM25.3394 11.7514C24.0295 11.7514 22.9791 10.6863 22.9791 9.38454C22.9791 8.08277 24.0295 7.01768 25.3394 7.01768C26.6494 7.01768 27.6997 8.08277 27.6997 9.38454C27.6997 10.6863 26.6494 11.7514 25.3394 11.7514Z" fill="white"/>
<path d="M78.3508 9.59752L75.9906 13.7869H73.5005L76.8639 7.28982H74.0079V5.07681H82.6819V7.28982H79.708L83.0949 13.7869H80.6049L78.3508 9.59752ZM89.0546 10.4141H87.1664V17.917H84.7589V4.01172H87.1664V8.22474H89.0546V4.01172H91.5447V17.917H89.0546V10.4141Z" fill="white"/>
<path d="M94.1763 5.06497H102.744V7.28982H96.7017V11.3372H102.744V13.562H94.1763V5.06497ZM108.267 17.6212H105.753V4.01172H108.267V7.8342H110.71V10.0236H108.267V17.6212Z" fill="white"/>
<path d="M99.0269 17.2307H101.529V21.6686H108.267V23.8816H99.0269V17.2307Z" fill="white"/>
<path d="M61.0502 5.51468H64.6732V7.60935H62.8912C63.4695 8.63894 63.6937 9.30166 63.6937 10.0472C63.6937 11.6804 62.6434 13.1005 61.0266 13.7987V15.7869H68.485V17.9999H54.5713V15.7869H58.5601V13.7987C56.8725 13.1241 55.8694 11.704 55.8694 10.0472C55.8694 9.31349 56.0465 8.63894 56.6247 7.60935H54.9371V5.51468H58.5601M61.3098 10.0236C61.3098 7.95255 58.1707 8.01172 58.1707 10.0236C58.1707 12.1419 61.3098 12.1656 61.3098 10.0236ZM69.7478 10.9585V17.9999H67.2341V4.01172H69.7478V8.69811" fill="white"/>
<path d="M61.062 13.3726H58.5483V17.6211H61.062V13.3726Z" fill="white"/>
<path d="M72.2144 8.72168H69.7007V10.9347H72.2144V8.72168Z" fill="white"/>
<path d="M110.769 7.82227H108.255V10.0353H110.769V7.82227Z" fill="white"/>
<path d="M64.673 5.38452H54.9487V7.60937H64.673V5.38452Z" fill="white"/>
<path d="M61.0737 4.01172H58.5601V6.23657H61.0737V4.01172Z" fill="white"/>
<path d="M101.529 21.6685H99.0269V23.8815H101.529V21.6685Z" fill="white"/>
</g>
<defs>
<linearGradient id="paint0_linear_269_23318" x1="42.5342" y1="12.651" x2="38.5502" y2="3.4046" gradientUnits="userSpaceOnUse">
<stop stop-color="#EC1B23"/>
<stop offset="0.25" stop-color="#D71820"/>
<stop offset="0.5" stop-color="#B00F15"/>
<stop offset="0.75" stop-color="#790000"/>
<stop offset="1" stop-color="#520000"/>
</linearGradient>
<linearGradient id="paint1_linear_269_23318" x1="38.2149" y1="0.0355029" x2="45.4782" y2="2.90917" gradientUnits="userSpaceOnUse">
<stop stop-color="#F9A519"/>
<stop offset="0.25" stop-color="#F4811F"/>
<stop offset="0.5" stop-color="#F26F20"/>
<stop offset="0.75" stop-color="#EE4022"/>
<stop offset="1" stop-color="#B00F15"/>
</linearGradient>
<linearGradient id="paint2_linear_269_23318" x1="51.8335" y1="9.05325" x2="46.5471" y2="-0.839816" gradientUnits="userSpaceOnUse">
<stop stop-color="#00B8F1"/>
<stop offset="0.25" stop-color="#0088CF"/>
<stop offset="0.5" stop-color="#014DA1"/>
<stop offset="0.75" stop-color="#25237B"/>
<stop offset="1" stop-color="#1A1364"/>
</linearGradient>
<linearGradient id="paint3_linear_269_23318" x1="42.841" y1="8.87576" x2="52.0895" y2="12.857" gradientUnits="userSpaceOnUse">
<stop stop-color="#D6DE22"/>
<stop offset="0.25" stop-color="#8BC53F"/>
<stop offset="0.5" stop-color="#009C48"/>
<stop offset="0.75" stop-color="#005825"/>
<stop offset="1" stop-color="#003B0E"/>
</linearGradient>
<clipPath id="clip0_269_23318">
<rect width="110" height="24" fill="white" transform="translate(0.757324)"/>
</clipPath>
</defs>
</svg>
