<svg width="159" height="24" viewBox="0 0 159 24" fill="none" xmlns="http://www.w3.org/2000/svg">
<g clip-path="url(#clip0_269_23266)">
<path d="M148.036 18.7844C148.036 20.0148 148.907 20.5968 149.977 20.5968H158.757V18.9839H150.645V15.9797H148.036V18.7844Z" fill="white"/>
<path d="M158.757 3.29248H156.142V16.4731H158.757V3.29248Z" fill="white"/>
<path d="M149.349 2.98755C147.011 2.98755 145.115 4.61157 145.115 6.62358C145.115 8.63559 147.017 10.2485 149.349 10.2485C151.681 10.2485 153.589 8.6245 153.589 6.62358C153.589 4.62265 151.693 2.98755 149.349 2.98755ZM149.349 8.68547C148.37 8.68547 147.572 7.73766 147.572 6.56815C147.572 5.39863 148.37 4.44529 149.349 4.44529C150.328 4.44529 151.121 5.39309 151.121 6.56815C151.121 7.74321 150.328 8.68547 149.349 8.68547Z" fill="white"/>
<path d="M150.651 11.4236H148.047V14.8712H150.651V11.4236Z" fill="white"/>
<path d="M157.014 13.491H152.53V14.982H157.014V13.491Z" fill="white"/>
<path d="M155.044 10.897H144.266V12.388H155.044V10.897Z" fill="white"/>
<path d="M114.246 18.7842C114.246 20.0147 115.118 20.5967 116.188 20.5967H124.843V18.9838H116.856V14.9265H114.246V18.7842Z" fill="white"/>
<path d="M124.849 3.29224H122.228V15.3865H124.849V3.29224Z" fill="white"/>
<path d="M116.918 6.03579V5.42055H119.975V3.80762H111.45V5.42055H114.297V6.03579C114.297 7.95358 113.465 10.3702 110.334 11.8557L111.308 13.0917C112.616 12.6981 114.507 11.6173 115.605 10.1319C116.709 11.6173 118.594 12.6981 119.901 13.0917L120.875 11.8557C117.739 10.3702 116.918 7.95358 116.918 6.03579Z" fill="white"/>
<path d="M142.454 12.521H127.73V14.1395H142.454V12.521Z" fill="white"/>
<path d="M136.397 2.6106H133.782V5.47618H136.397V2.6106Z" fill="white"/>
<path d="M141.271 4.21802H128.919V5.83649H141.271V4.21802Z" fill="white"/>
<path d="M139.426 8.17002C139.426 6.22452 137.49 4.65039 135.084 4.65039C132.678 4.65039 130.753 6.22452 130.753 8.17002C130.753 10.1155 132.689 11.6952 135.084 11.6952C137.479 11.6952 139.426 10.1155 139.426 8.17002ZM136.861 8.11459C136.861 9.20651 136.075 10.0933 135.09 10.0933C134.105 10.0933 133.329 9.20651 133.329 8.11459C133.329 7.02268 134.116 6.13584 135.09 6.13584C136.063 6.13584 136.861 7.02268 136.861 8.11459Z" fill="white"/>
<path d="M135.09 13.2915C132.537 13.2915 130.465 15.0652 130.465 17.2601C130.465 19.455 132.537 21.2176 135.09 21.2176C137.643 21.2176 139.72 19.4439 139.72 17.2601C139.72 15.0763 137.648 13.2915 135.09 13.2915ZM135.09 19.5991C133.98 19.5991 133.074 18.5183 133.074 17.188C133.074 15.8578 133.98 14.777 135.09 14.777C136.199 14.777 137.111 15.8522 137.111 17.188C137.111 18.5238 136.205 19.5991 135.09 19.5991Z" fill="white"/>
<path d="M105.047 13.5132V15.625H99.2276V13.5132H96.6123V18.7843C96.6123 20.0259 97.4841 20.6023 98.554 20.6023H107.651V13.5187H105.047V13.5132ZM99.2276 19.0337V17.1825H105.047V19.0337H99.2276Z" fill="white"/>
<path d="M107.651 3.29248H105.047V12.2107H107.651V3.29248Z" fill="white"/>
<path d="M106.389 6.68457H101.939V8.30305H106.389V6.68457Z" fill="white"/>
<path d="M98.2766 2.98755C95.6953 2.98755 93.6064 4.95522 93.6064 7.37739C93.6064 9.79956 95.6953 11.7617 98.2766 11.7617C100.858 11.7617 102.93 9.79402 102.93 7.37739C102.93 4.96076 100.841 2.98755 98.2766 2.98755ZM98.2766 10.121C97.1445 10.121 96.2274 8.88501 96.2274 7.37739C96.2274 5.86977 97.1501 4.62265 98.2766 4.62265C99.4032 4.62265 100.315 5.85868 100.315 7.37739C100.315 8.89609 99.4032 10.121 98.2766 10.121Z" fill="white"/>
<path d="M72.333 3.29224H69.729V12.2327H72.333V3.29224Z" fill="white"/>
<path d="M61.7363 13.7402V18.7785C61.7363 20.009 62.6024 20.591 63.6837 20.591H72.3334V13.7346H61.7363V13.7402ZM64.3516 18.9836V15.342H69.7294V18.9836H64.3516Z" fill="white"/>
<path d="M65.2119 10.06H62.4324V3.48633H59.8228V9.86046C59.8228 11.0909 60.6889 11.6729 61.7644 11.6729H65.2175C66.9951 11.6729 69.1179 11.3293 70.335 10.6531V9.2951C68.6763 10.0046 66.078 10.0545 65.2175 10.0545L65.2119 10.06Z" fill="white"/>
<path d="M74.7559 6.29639H70.9575V7.89269H74.7559V6.29639Z" fill="white"/>
<path d="M81.804 5.74222V3.48633H79.0528V5.74222C79.0528 6.86739 78.798 10.06 75.1694 11.5288L76.2733 12.7759C77.2866 12.4545 79.2679 11.5565 80.4284 9.71635C81.5888 11.5565 83.5701 12.4545 84.5891 12.7759L85.6873 11.5288C82.0644 10.06 81.804 6.86739 81.804 5.74222Z" fill="white"/>
<path d="M78.9282 18.7842C78.9282 20.0147 79.8 20.5967 80.8756 20.5967H89.5253V18.9838H81.5435V14.9265H78.9282V18.7842Z" fill="white"/>
<path d="M89.5254 3.29224H86.9214V15.841H89.5254V3.29224Z" fill="white"/>
<path d="M91.9424 7.01685H88.1836V8.63532H91.9424V7.01685Z" fill="white"/>
<path d="M56.2676 3.29224H53.6636V12.665H56.2676V3.29224Z" fill="white"/>
<path d="M54.5862 6.29639H50.6406V7.89269H54.5862V6.29639Z" fill="white"/>
<path d="M48.2292 5.3764V3.48633H45.4724V5.3764C45.4724 6.50157 45.2233 9.68864 41.5947 11.1519L42.6986 12.4046C43.7119 12.0831 45.6932 11.1852 46.8537 9.33945C48.0141 11.1852 49.9898 12.0831 51.0031 12.4046L52.1069 11.1519C48.484 9.68864 48.2292 6.50157 48.2292 5.3764Z" fill="white"/>
<path d="M51.1899 13.1362C48.484 13.1362 46.2876 14.9764 46.2876 17.2434C46.2876 19.5104 48.484 21.3506 51.1899 21.3506C53.8958 21.3506 56.0752 19.5159 56.0752 17.2434C56.0752 14.9709 53.8901 13.1362 51.1899 13.1362ZM51.1899 19.7321C50.0011 19.7321 49.0444 18.618 49.0444 17.2434C49.0444 15.8688 50.0068 14.7547 51.1899 14.7547C52.373 14.7547 53.3297 15.8688 53.3297 17.2434C53.3297 18.618 52.373 19.7321 51.1899 19.7321Z" fill="white"/>
<path d="M18.8607 21.3395C23.8479 21.4781 27.0577 19.7044 29.1805 17.5649L27.9294 20.9793L22.2912 23.673C20.3892 23.928 18.7532 23.8393 17.2587 23.4846C15.368 22.9913 12.147 21.3672 10.4204 18.2467C12.8093 20.2753 15.9567 21.2564 18.8607 21.3395Z" fill="#7FBE26"/>
<path d="M29.6727 14.1007C29.1519 19.1557 24.3346 24.194 17.2642 23.4846C25.6309 25.8846 33.6297 19.5603 32.9164 11.2906C32.5371 6.90072 29.6331 2.98201 23.3949 2.98755C27.7424 4.87762 30.1935 9.04021 29.6727 14.1007Z" fill="url(#paint0_linear_269_23266)"/>
<path d="M30.2106 4.6448C28.9142 2.58291 25.2517 0 20.6777 0C15.6169 0 12.8657 2.43326 11.8015 3.68591C10.6636 5.03834 10.7429 6.30762 11.6713 6.95058C12.56 7.56582 13.9243 7.19446 14.6545 6.50716C15.3905 5.81432 15.8829 5.26559 16.5339 4.73349C19.036 2.68822 21.4306 2.27806 23.9553 2.33903C25.0196 2.37229 28.2915 2.72148 30.2162 4.6448H30.2106Z" fill="#EA5504"/>
<path d="M18.8948 10.1543H16.8965V15.115C16.8965 15.6471 17.2305 15.7912 17.6437 15.7912H18.8948V10.1543Z" fill="#00559D"/>
<path d="M15.4754 12.2107C15.4754 10.7086 14.7225 10.1377 12.5883 10.1377H8.86914V15.0984C8.86914 15.6305 9.20313 15.7802 9.62203 15.7802H10.7825V11.3294H12.4015C13.3129 11.3294 13.5733 11.5733 13.5733 12.2938V15.0984C13.5733 15.6305 13.9073 15.7802 14.3205 15.7802H15.4754V12.2107Z" fill="#00559D"/>
<path d="M5.27468 12.3381H3.35565C2.86882 12.3381 2.71598 12.1163 2.71598 11.8392C2.71598 11.5621 2.86882 11.3404 3.35565 11.3404H6.41251C7.08615 11.3404 7.40882 10.9801 7.40882 10.4314V10.1487H3.24244C1.3687 10.1487 0.757324 10.8914 0.757324 11.878C0.757324 12.981 1.44795 13.5297 3.32735 13.5297H5.26902C5.75586 13.5297 5.9087 13.7903 5.9087 14.0618C5.9087 14.3334 5.75586 14.605 5.26902 14.605H1.87251C1.19887 14.605 0.881863 14.9598 0.881863 15.514V15.7912H5.29167C7.17107 15.7912 7.77678 15.1371 7.77678 14.0341C7.77678 12.9311 7.0069 12.3381 5.26902 12.3381H5.27468Z" fill="#00559D"/>
<path d="M22.2231 11.3461H23.4629C24.8837 11.3461 25.5121 11.7562 25.5121 12.9313C25.5121 14.1063 24.946 14.5996 23.4629 14.5996H22.7779V15.0763C22.7779 15.614 23.2308 15.7359 23.8648 15.7359C25.1724 15.7359 26.0499 15.5474 26.7348 14.8712C27.2556 14.3613 27.5104 13.7405 27.5104 12.9978C27.5104 11.2019 26.231 10.1599 24.0006 10.1599H20.3154V17.8754H22.2231V11.3516V11.3461Z" fill="#00559D"/>
</g>
<defs>
<linearGradient id="paint0_linear_269_23266" x1="25.8737" y1="22.4409" x2="25.8737" y2="10.5417" gradientUnits="userSpaceOnUse">
<stop stop-color="#00559D"/>
<stop offset="1" stop-color="#00A0E2"/>
</linearGradient>
<clipPath id="clip0_269_23266">
<rect width="158" height="24" fill="white" transform="translate(0.757324)"/>
</clipPath>
</defs>
</svg>
