<svg width="220" height="320" viewBox="0 0 220 320" fill="none" xmlns="http://www.w3.org/2000/svg">
<rect x="2" y="2" width="216" height="316" rx="14" fill="black" fill-opacity="0.6"/>
<rect x="2" y="2" width="216" height="316" rx="14" stroke="#DDDDDD" stroke-width="4"/>
<g clip-path="url(#clip0_1194_41568)">
<path d="M94.8195 83.1338H70.5166" stroke="#ED0773" stroke-width="6" stroke-linecap="round" stroke-linejoin="round"/>
<path d="M147.72 83.1338H119.41" stroke="#ED0773" stroke-width="6" stroke-linecap="round" stroke-linejoin="round"/>
<path d="M73.9715 89.6906L65.5986 83.1336L73.9715 76.5767C73.9715 76.5767 74.0075 76.5767 74.0075 76.5886V89.6667C74.0075 89.6667 73.9835 89.6906 73.9715 89.6786V89.6906Z" stroke="#ED0773" stroke-width="6" stroke-linecap="round" stroke-linejoin="round"/>
<path d="M146.028 76.5767L154.401 83.1336L146.028 89.6906C146.028 89.6906 145.992 89.6906 145.992 89.6786V76.6005C145.992 76.6005 146.016 76.5767 146.028 76.5886V76.5767Z" stroke="#ED0773" stroke-width="6" stroke-linecap="round" stroke-linejoin="round"/>
<path d="M123.033 108.121C123.033 104.199 126.62 100.992 130.566 100.992C134.513 100.992 138.1 104.199 138.1 108.121V115.966" stroke="white" stroke-width="6" stroke-linecap="round" stroke-linejoin="round"/>
<path d="M107.967 105.475V105.117C107.967 101.195 111.553 97.9883 115.5 97.9883C119.446 97.9883 123.033 101.195 123.033 105.117V118.947" stroke="white" stroke-width="6" stroke-linecap="round" stroke-linejoin="round"/>
<path d="M92.9004 131.309V88.9515C92.9004 85.0292 96.487 81.8223 100.434 81.8223C104.38 81.8223 107.967 85.0292 107.967 88.9515V118.947" stroke="white" stroke-width="6" stroke-linecap="round" stroke-linejoin="round"/>
<path d="M138.099 118.958V111.114C138.099 107.191 142.046 103.984 145.992 103.984C149.939 103.984 153.166 107.191 153.166 111.114V144.733C153.166 153.948 145.644 161.423 136.372 161.423H103.42C96.9906 161.423 91.1248 157.775 88.3178 152.029L82.9319 141.001C79.4532 133.884 81.3485 125.324 87.5022 120.317L92.8162 115.99" stroke="white" stroke-width="6" stroke-linecap="round" stroke-linejoin="round"/>
</g>
<path d="M67.7734 193.227H61.4062V196.605H67.4219V198.09H61.4062V202.016C62.9232 202.009 64.2643 201.967 65.4297 201.889C66.5951 201.811 67.793 201.671 69.0234 201.469L69.1992 202.973C67.9232 203.188 66.6602 203.334 65.4102 203.412C64.1602 203.484 62.6693 203.52 60.9375 203.52H59.5312V191.703H67.7734V193.227ZM72.4219 197.055H75.2344V198.617H72.4219V207.66H70.5664V190.16H72.4219V197.055ZM90.5859 200.141H88.7305V190.18H90.5859V200.141ZM90.5859 207.445H79.082V201.02H90.5859V207.445ZM80.918 205.941H88.7695V202.504H80.918V205.941ZM81.0938 191.059C81.9792 191.059 82.7734 191.234 83.4766 191.586C84.1862 191.931 84.7396 192.419 85.1367 193.051C85.5404 193.676 85.7422 194.392 85.7422 195.199C85.7422 195.987 85.5404 196.693 85.1367 197.318C84.7396 197.943 84.1862 198.432 83.4766 198.783C82.7734 199.128 81.9792 199.301 81.0938 199.301C80.2083 199.301 79.4108 199.128 78.7012 198.783C77.9915 198.432 77.4349 197.943 77.0312 197.318C76.6276 196.693 76.4258 195.987 76.4258 195.199C76.4258 194.392 76.6276 193.676 77.0312 193.051C77.4349 192.419 77.9915 191.931 78.7012 191.586C79.4108 191.234 80.2083 191.059 81.0938 191.059ZM81.0938 192.621C80.5404 192.621 80.0488 192.729 79.6191 192.943C79.1895 193.152 78.8509 193.451 78.6035 193.842C78.3626 194.232 78.2422 194.685 78.2422 195.199C78.2422 195.694 78.3626 196.133 78.6035 196.518C78.8509 196.902 79.1895 197.201 79.6191 197.416C80.0553 197.631 80.5469 197.738 81.0938 197.738C81.6341 197.738 82.1191 197.631 82.5488 197.416C82.9785 197.201 83.3138 196.902 83.5547 196.518C83.8021 196.133 83.9258 195.694 83.9258 195.199C83.9258 194.685 83.8053 194.236 83.5645 193.852C83.3236 193.461 82.9883 193.158 82.5586 192.943C82.1289 192.729 81.6406 192.621 81.0938 192.621ZM100.527 193.715H95.7617V196.938H99.7461V198.383H95.7617V202.055C96.9271 202.042 97.9264 202.003 98.7598 201.938C99.5996 201.872 100.462 201.762 101.348 201.605L101.504 203.109C100.573 203.298 99.6582 203.422 98.7598 203.48C97.8613 203.533 96.6471 203.559 95.1172 203.559H93.9844V192.23H100.527V193.715ZM108.398 207.66H106.602V190.16H108.398V207.66ZM104.785 206.781H103.027V198.227H100.664V196.723H103.027V190.531H104.785V206.781ZM125.137 207.699H123.281V190.16H125.137V207.699ZM115.781 191.469C116.647 191.469 117.422 191.723 118.105 192.23C118.789 192.732 119.323 193.448 119.707 194.379C120.098 195.303 120.293 196.378 120.293 197.602C120.293 198.832 120.098 199.913 119.707 200.844C119.323 201.775 118.789 202.494 118.105 203.002C117.422 203.503 116.647 203.754 115.781 203.754C114.902 203.754 114.121 203.503 113.438 203.002C112.754 202.494 112.217 201.778 111.826 200.854C111.442 199.923 111.25 198.839 111.25 197.602C111.25 196.371 111.442 195.294 111.826 194.369C112.217 193.438 112.754 192.722 113.438 192.221C114.121 191.719 114.902 191.469 115.781 191.469ZM115.781 193.129C115.241 193.129 114.762 193.311 114.346 193.676C113.936 194.04 113.617 194.561 113.389 195.238C113.161 195.909 113.047 196.697 113.047 197.602C113.047 198.513 113.161 199.307 113.389 199.984C113.617 200.661 113.936 201.182 114.346 201.547C114.762 201.911 115.241 202.094 115.781 202.094C116.315 202.094 116.787 201.911 117.197 201.547C117.607 201.182 117.926 200.661 118.154 199.984C118.382 199.307 118.496 198.513 118.496 197.602C118.496 196.697 118.382 195.909 118.154 195.238C117.926 194.561 117.607 194.04 117.197 193.676C116.787 193.311 116.315 193.129 115.781 193.129ZM131.855 191.996H139.961V190.453H141.816V196.273H130.02V190.453H131.855V191.996ZM139.961 194.867V193.363H131.855V194.867H139.961ZM143.887 199.066H127.93V197.602H143.887V199.066ZM141.875 204.535H131.68V206.059H142.363V207.484H129.863V203.207H140.039V201.859H129.844V200.473H141.875V204.535ZM153.184 190.453C154.499 190.453 155.622 190.57 156.553 190.805C157.49 191.033 158.203 191.371 158.691 191.82C159.186 192.27 159.434 192.816 159.434 193.461C159.434 194.105 159.186 194.656 158.691 195.111C158.203 195.561 157.49 195.902 156.553 196.137C155.622 196.371 154.499 196.488 153.184 196.488C151.868 196.488 150.742 196.371 149.805 196.137C148.874 195.902 148.161 195.561 147.666 195.111C147.178 194.656 146.934 194.105 146.934 193.461C146.934 192.816 147.178 192.27 147.666 191.82C148.161 191.371 148.874 191.033 149.805 190.805C150.742 190.57 151.868 190.453 153.184 190.453ZM153.184 191.82C151.79 191.82 150.719 191.964 149.971 192.25C149.222 192.536 148.854 192.94 148.867 193.461C148.861 193.995 149.225 194.402 149.961 194.682C150.703 194.962 151.777 195.102 153.184 195.102C154.583 195.102 155.654 194.962 156.396 194.682C157.145 194.402 157.52 193.995 157.52 193.461C157.52 192.94 157.142 192.536 156.387 192.25C155.638 191.964 154.57 191.82 153.184 191.82ZM161.172 199.047H145.215V197.562H161.172V199.047ZM159.16 204.496H148.965V206.059H159.648V207.484H147.148V203.148H157.324V201.781H147.129V200.395H159.16V204.496ZM33.2227 231.984H21.0352V223.723H33.0664V225.246H22.8711V230.461H33.2227V231.984ZM35.0586 237.355H19.043V235.812H35.0586V237.355ZM43.4766 230.324H38.6719V234.016C39.7135 234.009 40.6934 233.977 41.6113 233.918C42.5358 233.853 43.4896 233.742 44.4727 233.586L44.6289 235.07C43.5156 235.266 42.4674 235.396 41.4844 235.461C40.5013 235.526 39.362 235.565 38.0664 235.578H36.875V228.801H41.6797V225.52H36.8555V223.996H43.4766V230.324ZM51.3477 239.66H49.5703V230.48H47.3047V238.762H45.6055V222.512H47.3047V228.977H49.5703V222.16H51.3477V239.66ZM67.4805 225.812C67.4805 226.835 67.4674 227.72 67.4414 228.469C67.4219 229.217 67.3665 230.083 67.2754 231.066C67.1842 232.043 67.0378 233.111 66.8359 234.27L64.9414 234.094C65.1562 233.013 65.3158 231.991 65.4199 231.027C65.5241 230.064 65.5859 229.208 65.6055 228.459C65.6315 227.704 65.6445 226.822 65.6445 225.812V225.461H55.332V223.938H67.4805V225.812ZM69.5703 237.18H53.6133V235.637H69.5703V237.18ZM84.5312 229.25H87.3438V230.793H84.5312V239.66H82.6953V222.16H84.5312V229.25ZM81.1719 226.418H70.8008V224.895H75.1172V222.395H76.9727V224.895H81.1719V226.418ZM76.0547 227.707C76.8815 227.707 77.6237 227.88 78.2812 228.225C78.9388 228.57 79.4564 229.051 79.834 229.67C80.2116 230.288 80.4036 230.988 80.4102 231.77C80.4036 232.557 80.2116 233.26 79.834 233.879C79.4564 234.497 78.9388 234.979 78.2812 235.324C77.6237 235.669 76.8815 235.845 76.0547 235.852C75.2214 235.845 74.4727 235.669 73.8086 235.324C73.151 234.979 72.6335 234.497 72.2559 233.879C71.8848 233.26 71.6992 232.557 71.6992 231.77C71.6992 230.988 71.8848 230.288 72.2559 229.67C72.6335 229.051 73.151 228.57 73.8086 228.225C74.4727 227.88 75.2214 227.707 76.0547 227.707ZM76.0547 229.23C75.5664 229.23 75.1237 229.338 74.7266 229.553C74.3294 229.768 74.0202 230.067 73.7988 230.451C73.5775 230.835 73.4701 231.275 73.4766 231.77C73.4701 232.271 73.5775 232.714 73.7988 233.098C74.0202 233.482 74.3262 233.778 74.7168 233.986C75.1139 234.195 75.5599 234.296 76.0547 234.289C76.543 234.296 76.9824 234.195 77.373 233.986C77.7702 233.778 78.0794 233.482 78.3008 233.098C78.5221 232.714 78.6328 232.271 78.6328 231.77C78.6328 231.275 78.5221 230.835 78.3008 230.451C78.0794 230.067 77.7702 229.768 77.373 229.553C76.9824 229.338 76.543 229.23 76.0547 229.23ZM92.9297 223.469C93.724 223.469 94.4368 223.687 95.0684 224.123C95.7064 224.559 96.2207 225.174 96.6113 225.969H100.938V222.16H102.773V239.699H100.938V232.98H96.7285C96.3574 233.859 95.8398 234.543 95.1758 235.031C94.5182 235.513 93.7695 235.754 92.9297 235.754C92.0573 235.754 91.2858 235.503 90.6152 235.002C89.9447 234.494 89.4206 233.778 89.043 232.854C88.6719 231.923 88.4896 230.839 88.4961 229.602C88.4896 228.371 88.6719 227.294 89.043 226.369C89.4206 225.438 89.9447 224.722 90.6152 224.221C91.2923 223.719 92.0638 223.469 92.9297 223.469ZM92.9297 225.129C92.4023 225.129 91.9368 225.311 91.5332 225.676C91.1296 226.04 90.8138 226.561 90.5859 227.238C90.3646 227.909 90.2539 228.697 90.2539 229.602C90.2539 230.513 90.3646 231.307 90.5859 231.984C90.8138 232.661 91.1296 233.182 91.5332 233.547C91.9368 233.911 92.4023 234.094 92.9297 234.094C93.457 234.094 93.9225 233.911 94.3262 233.547C94.7298 233.182 95.0423 232.661 95.2637 231.984C95.4915 231.307 95.6055 230.513 95.6055 229.602C95.6055 228.697 95.4915 227.909 95.2637 227.238C95.0423 226.561 94.7298 226.04 94.3262 225.676C93.9225 225.311 93.457 225.129 92.9297 225.129ZM97.1387 227.492C97.2884 228.195 97.3633 228.898 97.3633 229.602C97.3633 230.259 97.3047 230.878 97.1875 231.457H100.938V227.492H97.1387ZM124.121 227.375H126.621V228.898H124.121V233.957H122.266V222.18H124.121V227.375ZM110.234 232.004C112.188 232.004 113.711 231.988 114.805 231.955V230.783C113.796 230.673 113.001 230.393 112.422 229.943C111.842 229.494 111.556 228.918 111.562 228.215C111.556 227.688 111.722 227.229 112.061 226.838C112.406 226.447 112.894 226.148 113.525 225.939C114.157 225.731 114.889 225.63 115.723 225.637C116.549 225.63 117.275 225.731 117.9 225.939C118.532 226.148 119.02 226.447 119.365 226.838C119.71 227.229 119.883 227.688 119.883 228.215C119.883 228.911 119.593 229.488 119.014 229.943C118.441 230.393 117.656 230.673 116.66 230.783V231.887C118.405 231.802 119.941 231.665 121.27 231.477L121.426 232.805C119.766 233.098 118.057 233.286 116.299 233.371C114.548 233.449 112.591 233.488 110.43 233.488L110.234 232.004ZM124.121 239.66H122.266V236.223H112.422V234.777H124.121V239.66ZM120.781 225.051H110.684V223.664H114.805V222.023H116.66V223.664H120.781V225.051ZM115.723 226.906C114.967 226.893 114.378 227.004 113.955 227.238C113.532 227.473 113.32 227.798 113.32 228.215C113.32 228.625 113.532 228.954 113.955 229.201C114.385 229.442 114.974 229.562 115.723 229.562C116.458 229.562 117.038 229.442 117.461 229.201C117.891 228.954 118.105 228.625 118.105 228.215C118.105 227.798 117.894 227.473 117.471 227.238C117.048 227.004 116.465 226.893 115.723 226.906ZM142.148 234.895H140.293V222.18H142.148V234.895ZM142.676 239.289H130.703V233.605H132.578V237.785H142.676V239.289ZM132.656 223.352C133.529 223.352 134.316 223.537 135.02 223.908C135.729 224.279 136.286 224.794 136.689 225.451C137.1 226.109 137.305 226.854 137.305 227.688C137.305 228.534 137.1 229.289 136.689 229.953C136.286 230.611 135.729 231.125 135.02 231.496C134.316 231.861 133.529 232.043 132.656 232.043C131.784 232.043 130.993 231.861 130.283 231.496C129.574 231.125 129.014 230.607 128.604 229.943C128.193 229.279 127.988 228.527 127.988 227.688C127.988 226.854 128.193 226.109 128.604 225.451C129.014 224.794 129.574 224.279 130.283 223.908C130.993 223.537 131.784 223.352 132.656 223.352ZM132.656 224.973C132.116 224.973 131.628 225.09 131.191 225.324C130.762 225.552 130.423 225.871 130.176 226.281C129.928 226.691 129.805 227.16 129.805 227.688C129.805 228.228 129.925 228.706 130.166 229.123C130.413 229.533 130.752 229.852 131.182 230.08C131.618 230.308 132.109 230.422 132.656 230.422C133.19 230.422 133.672 230.308 134.102 230.08C134.531 229.852 134.87 229.53 135.117 229.113C135.365 228.697 135.488 228.221 135.488 227.688C135.488 227.167 135.365 226.701 135.117 226.291C134.87 225.874 134.528 225.552 134.092 225.324C133.662 225.09 133.184 224.973 132.656 224.973ZM158.555 229.25H161.367V230.793H158.555V239.66H156.719V222.16H158.555V229.25ZM155.195 226.418H144.824V224.895H149.141V222.395H150.996V224.895H155.195V226.418ZM150.078 227.707C150.905 227.707 151.647 227.88 152.305 228.225C152.962 228.57 153.48 229.051 153.857 229.67C154.235 230.288 154.427 230.988 154.434 231.77C154.427 232.557 154.235 233.26 153.857 233.879C153.48 234.497 152.962 234.979 152.305 235.324C151.647 235.669 150.905 235.845 150.078 235.852C149.245 235.845 148.496 235.669 147.832 235.324C147.174 234.979 146.657 234.497 146.279 233.879C145.908 233.26 145.723 232.557 145.723 231.77C145.723 230.988 145.908 230.288 146.279 229.67C146.657 229.051 147.174 228.57 147.832 228.225C148.496 227.88 149.245 227.707 150.078 227.707ZM150.078 229.23C149.59 229.23 149.147 229.338 148.75 229.553C148.353 229.768 148.044 230.067 147.822 230.451C147.601 230.835 147.493 231.275 147.5 231.77C147.493 232.271 147.601 232.714 147.822 233.098C148.044 233.482 148.35 233.778 148.74 233.986C149.137 234.195 149.583 234.296 150.078 234.289C150.566 234.296 151.006 234.195 151.396 233.986C151.794 233.778 152.103 233.482 152.324 233.098C152.546 232.714 152.656 232.271 152.656 231.77C152.656 231.275 152.546 230.835 152.324 230.451C152.103 230.067 151.794 229.768 151.396 229.553C151.006 229.338 150.566 229.23 150.078 229.23ZM167.539 226.945C167.539 227.896 167.673 228.837 167.939 229.768C168.206 230.692 168.604 231.538 169.131 232.307C169.658 233.075 170.299 233.69 171.055 234.152L170.02 235.578C169.225 235.103 168.545 234.455 167.979 233.635C167.412 232.808 166.976 231.87 166.67 230.822C166.338 231.962 165.869 232.98 165.264 233.879C164.665 234.771 163.952 235.467 163.125 235.969L161.973 234.582C162.773 234.1 163.457 233.462 164.023 232.668C164.59 231.867 165.016 230.982 165.303 230.012C165.596 229.035 165.742 228.039 165.742 227.023V223.762H167.539V226.945ZM177.266 239.66H175.488V222.16H177.266V239.66ZM173.633 238.801H171.875V229.855H169.16V228.312H171.875V222.492H173.633V238.801ZM195.508 237.473H179.492V235.93H183.32V231.359C182.591 230.956 182.025 230.445 181.621 229.826C181.217 229.208 181.016 228.514 181.016 227.746C181.016 226.841 181.289 226.044 181.836 225.354C182.389 224.663 183.154 224.13 184.131 223.752C185.107 223.368 186.217 223.176 187.461 223.176C188.711 223.176 189.824 223.368 190.801 223.752C191.784 224.13 192.549 224.663 193.096 225.354C193.649 226.044 193.926 226.841 193.926 227.746C193.926 228.508 193.73 229.195 193.34 229.807C192.949 230.412 192.396 230.917 191.68 231.32V235.93H195.508V237.473ZM187.461 224.66C186.549 224.66 185.742 224.787 185.039 225.041C184.336 225.288 183.789 225.646 183.398 226.115C183.008 226.577 182.812 227.121 182.812 227.746C182.812 228.365 183.008 228.908 183.398 229.377C183.789 229.846 184.336 230.21 185.039 230.471C185.742 230.725 186.549 230.852 187.461 230.852C188.366 230.852 189.17 230.725 189.873 230.471C190.583 230.21 191.136 229.846 191.533 229.377C191.93 228.908 192.129 228.365 192.129 227.746C192.129 227.128 191.93 226.584 191.533 226.115C191.143 225.646 190.592 225.288 189.883 225.041C189.18 224.787 188.372 224.66 187.461 224.66ZM189.805 235.93V232.033C189.095 232.209 188.314 232.297 187.461 232.297C186.641 232.297 185.872 232.212 185.156 232.043V235.93H189.805ZM199.824 233.918H197.891L197.715 223.859H200L199.824 233.918ZM198.867 238.137C198.62 238.137 198.385 238.075 198.164 237.951C197.949 237.827 197.78 237.658 197.656 237.443C197.533 237.229 197.474 236.997 197.48 236.75C197.474 236.503 197.533 236.271 197.656 236.057C197.78 235.842 197.949 235.673 198.164 235.549C198.385 235.425 198.62 235.363 198.867 235.363C199.108 235.363 199.336 235.425 199.551 235.549C199.766 235.673 199.935 235.842 200.059 236.057C200.189 236.271 200.254 236.503 200.254 236.75C200.254 236.997 200.189 237.229 200.059 237.443C199.935 237.658 199.766 237.827 199.551 237.951C199.336 238.075 199.108 238.137 198.867 238.137Z" fill="white"/>
<defs>
<clipPath id="clip0_1194_41568">
<rect width="96" height="92" fill="white" transform="translate(62 73)"/>
</clipPath>
</defs>
</svg>
