<svg width="200" height="110" viewBox="0 0 200 110" fill="none" xmlns="http://www.w3.org/2000/svg">
<g clip-path="url(#clip0_1194_45002)">
<rect width="200" height="110" rx="8" fill="url(#paint0_linear_1194_45002)"/>
<g opacity="0.6" clip-path="url(#clip1_1194_45002)">
<mask id="mask0_1194_45002" style="mask-type:luminance" maskUnits="userSpaceOnUse" x="66" y="40" width="134" height="83">
<path d="M199.307 40.5605H66.0616V122.68H199.307V40.5605Z" fill="white"/>
</mask>
<g mask="url(#mask0_1194_45002)">
<path d="M267.375 100.423C282.282 144.513 244.893 187.803 187.296 207.28C129.699 226.757 73.7076 215.041 58.8008 170.951C43.894 126.861 78.4981 75.3306 136.095 55.8535C193.692 36.3763 252.469 56.3335 267.375 100.423Z" fill="url(#paint1_linear_1194_45002)" stroke="url(#paint2_linear_1194_45002)" stroke-width="0.316551" stroke-miterlimit="10"/>
<path d="M259.34 93.6425C273.066 134.237 237.207 173.851 182.686 192.288C128.164 210.725 75.6229 200.999 61.8963 160.405C48.1647 119.81 81.2386 71.9551 135.76 53.5181C190.281 35.0811 245.608 53.0481 259.335 93.6425H259.34Z" fill="url(#paint3_linear_1194_45002)" stroke="url(#paint4_linear_1194_45002)" stroke-width="0.316551" stroke-miterlimit="10"/>
<path d="M251.299 86.8618C263.845 123.961 229.521 159.9 178.07 177.297C126.619 194.694 77.528 186.958 64.9865 149.859C52.44 112.76 83.9738 68.5798 135.425 51.1829C186.876 33.786 238.752 49.7578 251.299 86.8618Z" fill="url(#paint5_linear_1194_45002)" stroke="url(#paint6_linear_1194_45002)" stroke-width="0.316551" stroke-miterlimit="10"/>
<path d="M243.257 80.0757C254.619 113.679 221.83 145.948 173.454 162.305C125.078 178.661 79.4381 172.916 68.0717 139.312C56.7104 105.703 86.7139 65.2041 135.09 48.8473C183.465 32.4905 231.891 46.472 243.257 80.0807V80.0757Z" fill="url(#paint7_linear_1194_45002)" stroke="url(#paint8_linear_1194_45002)" stroke-width="0.316551" stroke-miterlimit="10"/>
<path d="M234.972 75.5707C245.208 105.839 214.965 137.282 169.714 152.584C124.464 167.886 81.3438 161.245 71.1076 130.977C60.8714 100.713 89.2597 63.7744 134.51 48.4727C179.76 33.1711 224.741 45.3024 234.972 75.5707Z" fill="url(#paint9_linear_1194_45002)" stroke="url(#paint10_linear_1194_45002)" stroke-width="0.316551" stroke-miterlimit="10"/>
<path d="M226.69 71.0697C235.796 97.9976 208.098 128.626 165.973 142.873C123.848 157.119 83.2434 149.583 74.1373 122.655C65.0363 95.7224 91.8044 62.3487 133.929 48.1021C176.054 33.8556 217.584 44.1417 226.69 71.0647V71.0697Z" fill="url(#paint11_linear_1194_45002)" stroke="url(#paint12_linear_1194_45002)" stroke-width="0.316551" stroke-miterlimit="10"/>
<path d="M162.23 133.157C201.23 119.972 226.382 90.1606 218.407 66.5725C210.432 42.9845 172.35 34.5517 133.35 47.7374C94.3489 60.9232 69.1976 90.7342 77.1726 114.322C85.1476 137.91 123.229 146.343 162.23 133.157Z" fill="url(#paint13_linear_1194_45002)" stroke="url(#paint14_linear_1194_45002)" stroke-width="0.316551" stroke-miterlimit="10"/>
<path d="M158.88 121.905C194.799 109.761 218.331 83.3972 211.442 63.0193C204.552 42.6413 169.849 35.9662 133.93 48.11C98.0114 60.2537 74.4787 86.6177 81.3684 106.996C88.2581 127.374 122.961 134.049 158.88 121.905Z" fill="url(#paint15_linear_1194_45002)" stroke="url(#paint16_linear_1194_45002)" stroke-width="0.316551" stroke-miterlimit="10"/>
<path d="M155.53 110.652C188.367 99.5503 210.281 76.6333 204.477 59.4655C198.672 42.2977 167.347 37.3802 134.511 48.482C101.674 59.5837 79.7598 82.5007 85.5641 99.6685C91.3685 116.836 122.693 121.754 155.53 110.652Z" fill="url(#paint17_linear_1194_45002)" stroke="url(#paint18_linear_1194_45002)" stroke-width="0.316551" stroke-miterlimit="10"/>
<path d="M152.179 99.3894C181.934 89.3296 202.229 69.8596 197.51 55.902C192.791 41.9443 164.845 38.7844 135.09 48.8442C105.335 58.904 85.0394 78.374 89.7584 92.3317C94.4774 106.289 122.424 109.449 152.179 99.3894Z" fill="url(#paint19_linear_1194_45002)" stroke="url(#paint20_linear_1194_45002)" stroke-width="0.316551" stroke-miterlimit="10"/>
<path d="M152.183 99.396C179.659 90.1067 198.456 72.2941 194.168 59.6105C189.88 46.927 164.13 44.1754 136.654 53.4648C109.178 62.7542 90.3802 80.5667 94.6685 93.2503C98.9567 105.934 124.707 108.685 152.183 99.396Z" fill="url(#paint21_linear_1194_45002)" stroke="url(#paint22_linear_1194_45002)" stroke-width="0.316551" stroke-miterlimit="10"/>
<path d="M152.178 99.3886C177.378 90.8688 194.68 74.7151 190.824 63.3082C186.967 51.9014 163.412 49.561 138.212 58.0808C113.012 66.6007 95.7102 82.7544 99.5668 94.1612C103.423 105.568 126.978 107.908 152.178 99.3886Z" fill="url(#paint23_linear_1194_45002)" stroke="url(#paint24_linear_1194_45002)" stroke-width="0.316551" stroke-miterlimit="10"/>
<path d="M152.178 99.3898C175.099 91.6404 190.903 77.1441 187.477 67.0114C184.051 56.8787 162.693 54.9466 139.772 62.696C116.85 70.4454 101.046 84.9417 104.472 95.0744C107.898 105.207 129.256 107.139 152.178 99.3898Z" fill="url(#paint25_linear_1194_45002)" stroke="url(#paint26_linear_1194_45002)" stroke-width="0.316551" stroke-miterlimit="10"/>
<path d="M152.176 99.3903C172.547 92.5033 186.793 80.2162 183.997 71.9463C181.201 63.6763 162.421 62.5552 142.051 69.4422C121.681 76.3291 107.434 88.6162 110.23 96.8862C113.026 105.156 131.806 106.277 152.176 99.3903Z" fill="url(#paint27_linear_1194_45002)" stroke="url(#paint28_linear_1194_45002)" stroke-width="0.316551" stroke-miterlimit="10"/>
<path d="M152.177 99.3895C169.996 93.3649 182.685 83.2849 180.518 76.8751C178.351 70.4653 162.148 70.153 144.329 76.1775C126.51 82.2021 113.821 92.2821 115.988 98.6919C118.155 105.102 134.357 105.414 152.177 99.3895Z" fill="url(#paint29_linear_1194_45002)" stroke="url(#paint30_linear_1194_45002)" stroke-width="0.316551" stroke-miterlimit="10"/>
<path d="M152.178 99.3943C167.446 94.2322 178.578 86.3613 177.04 81.8143C175.503 77.2673 161.879 77.7659 146.61 82.928C131.342 88.0902 120.211 95.961 121.748 100.508C123.285 105.055 136.909 104.556 152.178 99.3943Z" fill="url(#paint31_linear_1194_45002)" stroke="url(#paint32_linear_1194_45002)" stroke-width="0.316551" stroke-miterlimit="10"/>
<path d="M152.18 99.3853C163.715 95.4854 172.142 89.5901 171.001 86.2177C169.861 82.8454 159.586 83.2731 148.051 87.173C136.516 91.0729 128.089 96.9682 129.229 100.341C130.369 103.713 140.645 103.285 152.18 99.3853Z" fill="url(#paint33_linear_1194_45002)" stroke="url(#paint34_linear_1194_45002)" stroke-width="0.316551" stroke-miterlimit="10"/>
<path d="M164.963 90.6273C165.709 92.8275 159.983 96.748 152.182 99.3883C144.376 102.029 137.45 102.384 136.705 100.183C135.96 97.9831 141.686 94.0627 149.487 91.4224C157.293 88.7821 164.218 88.4271 164.963 90.6273Z" fill="url(#paint35_linear_1194_45002)" stroke="url(#paint36_linear_1194_45002)" stroke-width="0.316551" stroke-miterlimit="10"/>
<path d="M158.923 95.0378C159.268 96.0629 156.252 98.0131 152.177 99.3883C148.106 100.763 144.526 101.048 144.176 100.023C143.831 98.9982 146.846 97.048 150.922 95.6729C154.992 94.2977 158.573 94.0127 158.923 95.0378Z" fill="url(#paint37_linear_1194_45002)" stroke="url(#paint38_linear_1194_45002)" stroke-width="0.316551" stroke-miterlimit="10"/>
</g>
<path style="mix-blend-mode:multiply" d="M66.055 122.686L199.301 122.686V48.8425L66.055 48.8425V122.686Z" fill="url(#paint39_linear_1194_45002)"/>
<path style="mix-blend-mode:multiply" d="M152.16 99.2846C181.682 89.3035 201.826 70.0055 197.152 56.1813C192.478 42.3571 164.757 39.2416 135.235 49.2226C105.713 59.2037 85.5695 78.5017 90.2434 92.3259C94.9173 106.15 122.639 109.266 152.16 99.2846Z" fill="url(#paint40_linear_1194_45002)"/>
</g>
<g opacity="0.28">
<mask id="mask1_1194_45002" style="mask-type:luminance" maskUnits="userSpaceOnUse" x="-11" y="-2" width="94" height="82">
<path d="M82.8019 -1.12256H-11V79.9998H82.8019V-1.12256Z" fill="white"/>
</mask>
<g mask="url(#mask1_1194_45002)">
<path d="M14.3923 79.695L3.59485 74.3764L31.5281 18.1152L88 45.9425L82.6611 56.699L36.9832 34.1939L14.3923 79.6985V79.695Z" fill="url(#paint41_linear_1194_45002)"/>
<path d="M3.48921 47.5798L-7.30823 42.2612L20.625 -14L77.0969 13.8273L71.758 24.5838L26.0836 2.07512L3.48921 47.5798Z" fill="url(#paint42_linear_1194_45002)"/>
</g>
</g>
<g clip-path="url(#clip2_1194_45002)">
<path d="M22.8041 42L20.194 44.5454L30.8823 55L20.194 65.4484L22.8041 68L36.0963 55L22.8041 42Z" fill="white"/>
<path d="M32.8954 42L30.2916 44.5454L40.98 55L30.2916 65.4484L32.8954 68L46.1939 55L32.8954 42Z" fill="white"/>
</g>
<g clip-path="url(#clip3_1194_45002)">
<path d="M76.0696 43.4937H72.1973V66.5003H76.0696V43.4937Z" fill="white"/>
<path d="M86.6233 43.4937H82.751V66.5003H86.6233V43.4937Z" fill="white"/>
<path d="M84.4466 52.4144L73.5101 56.146L74.7606 59.8109L85.6971 56.0793L84.4466 52.4144Z" fill="white"/>
<path d="M67.7963 43.5244H54.194V47.3968H67.7963V43.5244Z" fill="white"/>
<path d="M62.9344 45.4604H59.062V66.4756H62.9344V45.4604Z" fill="white"/>
<path d="M99.525 68L89.3032 54.2071L97.8224 42L100.994 44.2128L94.0668 54.1395L102.635 65.695L99.525 68Z" fill="white"/>
<path d="M101.08 52.2402H91.6881V56.1126H101.08V52.2402Z" fill="white"/>
</g>
<g clip-path="url(#clip4_1194_45002)">
<path d="M159.48 67.063L153.323 49.8274L147.509 67.0312L143.653 65.7245L151.34 42.9689L153.042 42.9561L155.19 42.937L163.317 65.6926L159.48 67.063Z" fill="white"/>
<path d="M156.316 60.0145L153.49 57.1885L150.664 60.0145L153.49 62.8405L156.316 60.0145Z" fill="white"/>
<path d="M128.285 68V42H132.358V62.1486L139.637 59.4587L141.052 63.2832L128.285 68Z" fill="white"/>
<path d="M114.708 67.7898H110.635V42.2104L126.08 50.7581L114.753 62.6713L114.708 62.6267V67.7898ZM114.708 49.12V56.8072L119.495 51.7716L114.708 49.12Z" fill="white"/>
<path d="M169.825 57.5148L163.323 44.0845L166.989 42.3125L171.642 51.9247L176.231 42.3189L179.909 44.0781L173.497 57.502L169.825 57.5148Z" fill="white"/>
<path d="M173.65 55.1245H169.577V67.6879H173.65V55.1245Z" fill="white"/>
</g>
</g>
<defs>
<linearGradient id="paint0_linear_1194_45002" x1="100.004" y1="-0.980731" x2="100.004" y2="98.2312" gradientUnits="userSpaceOnUse">
<stop stop-color="#007947"/>
<stop offset="0.19" stop-color="#0F8246"/>
<stop offset="0.54" stop-color="#389B45"/>
<stop offset="1" stop-color="#74C043"/>
</linearGradient>
<linearGradient id="paint1_linear_1194_45002" x1="55.3404" y1="132.377" x2="270.666" y2="132.377" gradientUnits="userSpaceOnUse">
<stop stop-color="#007947"/>
<stop offset="0.14" stop-color="#0C8046"/>
<stop offset="0.39" stop-color="#2C9445"/>
<stop offset="0.72" stop-color="#60B443"/>
<stop offset="0.84" stop-color="#74C043"/>
</linearGradient>
<linearGradient id="paint2_linear_1194_45002" x1="54.8403" y1="132.377" x2="271.166" y2="132.377" gradientUnits="userSpaceOnUse">
<stop stop-color="white" stop-opacity="0.9"/>
<stop offset="0.22" stop-color="white" stop-opacity="0.89"/>
<stop offset="0.36" stop-color="white" stop-opacity="0.86"/>
<stop offset="0.48" stop-color="white" stop-opacity="0.8"/>
<stop offset="0.58" stop-color="white" stop-opacity="0.72"/>
<stop offset="0.68" stop-color="white" stop-opacity="0.61"/>
<stop offset="0.77" stop-color="white" stop-opacity="0.48"/>
<stop offset="0.86" stop-color="white" stop-opacity="0.33"/>
<stop offset="0.94" stop-color="white" stop-opacity="0.15"/>
<stop offset="1" stop-color="white" stop-opacity="0"/>
</linearGradient>
<linearGradient id="paint3_linear_1194_45002" x1="58.7909" y1="123.761" x2="262.275" y2="123.761" gradientUnits="userSpaceOnUse">
<stop stop-color="#007947"/>
<stop offset="0.14" stop-color="#0C8046"/>
<stop offset="0.39" stop-color="#2C9445"/>
<stop offset="0.72" stop-color="#60B443"/>
<stop offset="0.84" stop-color="#74C043"/>
</linearGradient>
<linearGradient id="paint4_linear_1194_45002" x1="58.2909" y1="123.761" x2="262.775" y2="123.761" gradientUnits="userSpaceOnUse">
<stop stop-color="white" stop-opacity="0.9"/>
<stop offset="0.22" stop-color="white" stop-opacity="0.89"/>
<stop offset="0.36" stop-color="white" stop-opacity="0.86"/>
<stop offset="0.48" stop-color="white" stop-opacity="0.8"/>
<stop offset="0.58" stop-color="white" stop-opacity="0.72"/>
<stop offset="0.68" stop-color="white" stop-opacity="0.61"/>
<stop offset="0.77" stop-color="white" stop-opacity="0.48"/>
<stop offset="0.86" stop-color="white" stop-opacity="0.33"/>
<stop offset="0.94" stop-color="white" stop-opacity="0.15"/>
<stop offset="1" stop-color="white" stop-opacity="0"/>
</linearGradient>
<linearGradient id="paint5_linear_1194_45002" x1="62.2312" y1="115.155" x2="253.889" y2="115.155" gradientUnits="userSpaceOnUse">
<stop stop-color="#007947"/>
<stop offset="0.14" stop-color="#0C8046"/>
<stop offset="0.39" stop-color="#2C9445"/>
<stop offset="0.72" stop-color="#60B443"/>
<stop offset="0.84" stop-color="#74C043"/>
</linearGradient>
<linearGradient id="paint6_linear_1194_45002" x1="61.7311" y1="115.155" x2="254.389" y2="115.155" gradientUnits="userSpaceOnUse">
<stop stop-color="white" stop-opacity="0.9"/>
<stop offset="0.22" stop-color="white" stop-opacity="0.89"/>
<stop offset="0.36" stop-color="white" stop-opacity="0.86"/>
<stop offset="0.48" stop-color="white" stop-opacity="0.8"/>
<stop offset="0.58" stop-color="white" stop-opacity="0.72"/>
<stop offset="0.68" stop-color="white" stop-opacity="0.61"/>
<stop offset="0.77" stop-color="white" stop-opacity="0.48"/>
<stop offset="0.86" stop-color="white" stop-opacity="0.33"/>
<stop offset="0.94" stop-color="white" stop-opacity="0.15"/>
<stop offset="1" stop-color="white" stop-opacity="0"/>
</linearGradient>
<linearGradient id="paint7_linear_1194_45002" x1="65.6714" y1="106.559" x2="245.513" y2="106.559" gradientUnits="userSpaceOnUse">
<stop stop-color="#007947"/>
<stop offset="0.14" stop-color="#0C8046"/>
<stop offset="0.39" stop-color="#2C9445"/>
<stop offset="0.72" stop-color="#60B443"/>
<stop offset="0.84" stop-color="#74C043"/>
</linearGradient>
<linearGradient id="paint8_linear_1194_45002" x1="65.1714" y1="106.559" x2="246.013" y2="106.559" gradientUnits="userSpaceOnUse">
<stop stop-color="white" stop-opacity="0.9"/>
<stop offset="0.22" stop-color="white" stop-opacity="0.89"/>
<stop offset="0.36" stop-color="white" stop-opacity="0.86"/>
<stop offset="0.48" stop-color="white" stop-opacity="0.8"/>
<stop offset="0.58" stop-color="white" stop-opacity="0.72"/>
<stop offset="0.68" stop-color="white" stop-opacity="0.61"/>
<stop offset="0.77" stop-color="white" stop-opacity="0.48"/>
<stop offset="0.86" stop-color="white" stop-opacity="0.33"/>
<stop offset="0.94" stop-color="white" stop-opacity="0.15"/>
<stop offset="1" stop-color="white" stop-opacity="0"/>
</linearGradient>
<linearGradient id="paint9_linear_1194_45002" x1="69.0173" y1="101.189" x2="236.967" y2="101.189" gradientUnits="userSpaceOnUse">
<stop stop-color="#007947"/>
<stop offset="0.14" stop-color="#0C8046"/>
<stop offset="0.39" stop-color="#2C9445"/>
<stop offset="0.72" stop-color="#60B443"/>
<stop offset="0.84" stop-color="#74C043"/>
</linearGradient>
<linearGradient id="paint10_linear_1194_45002" x1="68.5173" y1="101.188" x2="237.467" y2="101.188" gradientUnits="userSpaceOnUse">
<stop stop-color="white" stop-opacity="0.9"/>
<stop offset="0.22" stop-color="white" stop-opacity="0.89"/>
<stop offset="0.36" stop-color="white" stop-opacity="0.86"/>
<stop offset="0.48" stop-color="white" stop-opacity="0.8"/>
<stop offset="0.58" stop-color="white" stop-opacity="0.72"/>
<stop offset="0.68" stop-color="white" stop-opacity="0.61"/>
<stop offset="0.77" stop-color="white" stop-opacity="0.48"/>
<stop offset="0.86" stop-color="white" stop-opacity="0.33"/>
<stop offset="0.94" stop-color="white" stop-opacity="0.15"/>
<stop offset="1" stop-color="white" stop-opacity="0"/>
</linearGradient>
<linearGradient id="paint11_linear_1194_45002" x1="72.3621" y1="95.8174" x2="228.426" y2="95.8174" gradientUnits="userSpaceOnUse">
<stop stop-color="#007947"/>
<stop offset="0.14" stop-color="#0C8046"/>
<stop offset="0.39" stop-color="#2C9445"/>
<stop offset="0.72" stop-color="#60B443"/>
<stop offset="0.84" stop-color="#74C043"/>
</linearGradient>
<linearGradient id="paint12_linear_1194_45002" x1="71.8621" y1="95.8174" x2="228.926" y2="95.8174" gradientUnits="userSpaceOnUse">
<stop stop-color="white" stop-opacity="0.9"/>
<stop offset="0.22" stop-color="white" stop-opacity="0.89"/>
<stop offset="0.36" stop-color="white" stop-opacity="0.86"/>
<stop offset="0.48" stop-color="white" stop-opacity="0.8"/>
<stop offset="0.58" stop-color="white" stop-opacity="0.72"/>
<stop offset="0.68" stop-color="white" stop-opacity="0.61"/>
<stop offset="0.77" stop-color="white" stop-opacity="0.48"/>
<stop offset="0.86" stop-color="white" stop-opacity="0.33"/>
<stop offset="0.94" stop-color="white" stop-opacity="0.15"/>
<stop offset="1" stop-color="white" stop-opacity="0"/>
</linearGradient>
<linearGradient id="paint13_linear_1194_45002" x1="75.6991" y1="90.4408" x2="219.886" y2="90.4408" gradientUnits="userSpaceOnUse">
<stop stop-color="#007947"/>
<stop offset="0.14" stop-color="#0C8046"/>
<stop offset="0.39" stop-color="#2C9445"/>
<stop offset="0.72" stop-color="#60B443"/>
<stop offset="0.84" stop-color="#74C043"/>
</linearGradient>
<linearGradient id="paint14_linear_1194_45002" x1="75.1991" y1="90.4408" x2="220.386" y2="90.4408" gradientUnits="userSpaceOnUse">
<stop stop-color="white" stop-opacity="0.9"/>
<stop offset="0.22" stop-color="white" stop-opacity="0.89"/>
<stop offset="0.36" stop-color="white" stop-opacity="0.86"/>
<stop offset="0.48" stop-color="white" stop-opacity="0.8"/>
<stop offset="0.58" stop-color="white" stop-opacity="0.72"/>
<stop offset="0.68" stop-color="white" stop-opacity="0.61"/>
<stop offset="0.77" stop-color="white" stop-opacity="0.48"/>
<stop offset="0.86" stop-color="white" stop-opacity="0.33"/>
<stop offset="0.94" stop-color="white" stop-opacity="0.15"/>
<stop offset="1" stop-color="white" stop-opacity="0"/>
</linearGradient>
<linearGradient id="paint15_linear_1194_45002" x1="80.1718" y1="85.0052" x2="212.637" y2="85.0052" gradientUnits="userSpaceOnUse">
<stop stop-color="#007947"/>
<stop offset="0.14" stop-color="#0C8046"/>
<stop offset="0.39" stop-color="#2C9445"/>
<stop offset="0.72" stop-color="#60B443"/>
<stop offset="0.84" stop-color="#74C043"/>
</linearGradient>
<linearGradient id="paint16_linear_1194_45002" x1="79.6717" y1="85.0052" x2="213.138" y2="85.0052" gradientUnits="userSpaceOnUse">
<stop stop-color="white" stop-opacity="0.9"/>
<stop offset="0.22" stop-color="white" stop-opacity="0.89"/>
<stop offset="0.36" stop-color="white" stop-opacity="0.86"/>
<stop offset="0.48" stop-color="white" stop-opacity="0.8"/>
<stop offset="0.58" stop-color="white" stop-opacity="0.72"/>
<stop offset="0.68" stop-color="white" stop-opacity="0.61"/>
<stop offset="0.77" stop-color="white" stop-opacity="0.48"/>
<stop offset="0.86" stop-color="white" stop-opacity="0.33"/>
<stop offset="0.94" stop-color="white" stop-opacity="0.15"/>
<stop offset="1" stop-color="white" stop-opacity="0"/>
</linearGradient>
<linearGradient id="paint17_linear_1194_45002" x1="84.6325" y1="79.5627" x2="205.407" y2="79.5627" gradientUnits="userSpaceOnUse">
<stop stop-color="#007947"/>
<stop offset="0.14" stop-color="#0C8046"/>
<stop offset="0.39" stop-color="#2C9445"/>
<stop offset="0.72" stop-color="#60B443"/>
<stop offset="0.84" stop-color="#74C043"/>
</linearGradient>
<linearGradient id="paint18_linear_1194_45002" x1="84.1324" y1="79.5627" x2="205.907" y2="79.5627" gradientUnits="userSpaceOnUse">
<stop stop-color="white" stop-opacity="0.9"/>
<stop offset="0.22" stop-color="white" stop-opacity="0.89"/>
<stop offset="0.36" stop-color="white" stop-opacity="0.86"/>
<stop offset="0.48" stop-color="white" stop-opacity="0.8"/>
<stop offset="0.58" stop-color="white" stop-opacity="0.72"/>
<stop offset="0.68" stop-color="white" stop-opacity="0.61"/>
<stop offset="0.77" stop-color="white" stop-opacity="0.48"/>
<stop offset="0.86" stop-color="white" stop-opacity="0.33"/>
<stop offset="0.94" stop-color="white" stop-opacity="0.15"/>
<stop offset="1" stop-color="white" stop-opacity="0"/>
</linearGradient>
<linearGradient id="paint19_linear_1194_45002" x1="89.0798" y1="74.115" x2="198.188" y2="74.115" gradientUnits="userSpaceOnUse">
<stop stop-color="#007947"/>
<stop offset="0.14" stop-color="#0C8046"/>
<stop offset="0.39" stop-color="#2C9445"/>
<stop offset="0.72" stop-color="#60B443"/>
<stop offset="0.84" stop-color="#74C043"/>
</linearGradient>
<linearGradient id="paint20_linear_1194_45002" x1="88.5798" y1="74.115" x2="198.688" y2="74.115" gradientUnits="userSpaceOnUse">
<stop stop-color="white" stop-opacity="0.9"/>
<stop offset="0.22" stop-color="white" stop-opacity="0.89"/>
<stop offset="0.36" stop-color="white" stop-opacity="0.86"/>
<stop offset="0.48" stop-color="white" stop-opacity="0.8"/>
<stop offset="0.58" stop-color="white" stop-opacity="0.72"/>
<stop offset="0.68" stop-color="white" stop-opacity="0.61"/>
<stop offset="0.77" stop-color="white" stop-opacity="0.48"/>
<stop offset="0.86" stop-color="white" stop-opacity="0.33"/>
<stop offset="0.94" stop-color="white" stop-opacity="0.15"/>
<stop offset="1" stop-color="white" stop-opacity="0"/>
</linearGradient>
<linearGradient id="paint21_linear_1194_45002" x1="94.0579" y1="76.4271" x2="194.78" y2="76.4271" gradientUnits="userSpaceOnUse">
<stop stop-color="#007947"/>
<stop offset="0.14" stop-color="#0C8046"/>
<stop offset="0.39" stop-color="#2C9445"/>
<stop offset="0.72" stop-color="#60B443"/>
<stop offset="0.84" stop-color="#74C043"/>
</linearGradient>
<linearGradient id="paint22_linear_1194_45002" x1="93.5578" y1="76.4271" x2="195.28" y2="76.4271" gradientUnits="userSpaceOnUse">
<stop stop-color="white" stop-opacity="0.9"/>
<stop offset="0.22" stop-color="white" stop-opacity="0.89"/>
<stop offset="0.36" stop-color="white" stop-opacity="0.86"/>
<stop offset="0.48" stop-color="white" stop-opacity="0.8"/>
<stop offset="0.58" stop-color="white" stop-opacity="0.72"/>
<stop offset="0.68" stop-color="white" stop-opacity="0.61"/>
<stop offset="0.77" stop-color="white" stop-opacity="0.48"/>
<stop offset="0.86" stop-color="white" stop-opacity="0.33"/>
<stop offset="0.94" stop-color="white" stop-opacity="0.15"/>
<stop offset="1" stop-color="white" stop-opacity="0"/>
</linearGradient>
<linearGradient id="paint23_linear_1194_45002" x1="99.0305" y1="78.7297" x2="191.361" y2="78.7297" gradientUnits="userSpaceOnUse">
<stop stop-color="#007947"/>
<stop offset="0.14" stop-color="#0C8046"/>
<stop offset="0.39" stop-color="#2C9445"/>
<stop offset="0.72" stop-color="#60B443"/>
<stop offset="0.84" stop-color="#74C043"/>
</linearGradient>
<linearGradient id="paint24_linear_1194_45002" x1="98.5304" y1="78.7297" x2="191.861" y2="78.7297" gradientUnits="userSpaceOnUse">
<stop stop-color="white" stop-opacity="0.9"/>
<stop offset="0.22" stop-color="white" stop-opacity="0.89"/>
<stop offset="0.36" stop-color="white" stop-opacity="0.86"/>
<stop offset="0.48" stop-color="white" stop-opacity="0.8"/>
<stop offset="0.58" stop-color="white" stop-opacity="0.72"/>
<stop offset="0.68" stop-color="white" stop-opacity="0.61"/>
<stop offset="0.77" stop-color="white" stop-opacity="0.48"/>
<stop offset="0.86" stop-color="white" stop-opacity="0.33"/>
<stop offset="0.94" stop-color="white" stop-opacity="0.15"/>
<stop offset="1" stop-color="white" stop-opacity="0"/>
</linearGradient>
<linearGradient id="paint25_linear_1194_45002" x1="104.005" y1="81.0412" x2="187.945" y2="81.0412" gradientUnits="userSpaceOnUse">
<stop stop-color="#007947"/>
<stop offset="0.14" stop-color="#0C8046"/>
<stop offset="0.39" stop-color="#2C9445"/>
<stop offset="0.72" stop-color="#60B443"/>
<stop offset="0.84" stop-color="#74C043"/>
</linearGradient>
<linearGradient id="paint26_linear_1194_45002" x1="103.505" y1="81.0412" x2="188.445" y2="81.0412" gradientUnits="userSpaceOnUse">
<stop stop-color="white" stop-opacity="0.9"/>
<stop offset="0.22" stop-color="white" stop-opacity="0.89"/>
<stop offset="0.36" stop-color="white" stop-opacity="0.86"/>
<stop offset="0.48" stop-color="white" stop-opacity="0.8"/>
<stop offset="0.58" stop-color="white" stop-opacity="0.72"/>
<stop offset="0.68" stop-color="white" stop-opacity="0.61"/>
<stop offset="0.77" stop-color="white" stop-opacity="0.48"/>
<stop offset="0.86" stop-color="white" stop-opacity="0.33"/>
<stop offset="0.94" stop-color="white" stop-opacity="0.15"/>
<stop offset="1" stop-color="white" stop-opacity="0"/>
</linearGradient>
<linearGradient id="paint27_linear_1194_45002" x1="109.88" y1="84.412" x2="184.349" y2="84.412" gradientUnits="userSpaceOnUse">
<stop stop-color="#007947"/>
<stop offset="0.14" stop-color="#0C8046"/>
<stop offset="0.39" stop-color="#2C9445"/>
<stop offset="0.72" stop-color="#60B443"/>
<stop offset="0.84" stop-color="#74C043"/>
</linearGradient>
<linearGradient id="paint28_linear_1194_45002" x1="109.38" y1="84.412" x2="184.849" y2="84.412" gradientUnits="userSpaceOnUse">
<stop stop-color="white" stop-opacity="0.9"/>
<stop offset="0.22" stop-color="white" stop-opacity="0.89"/>
<stop offset="0.36" stop-color="white" stop-opacity="0.86"/>
<stop offset="0.48" stop-color="white" stop-opacity="0.8"/>
<stop offset="0.58" stop-color="white" stop-opacity="0.72"/>
<stop offset="0.68" stop-color="white" stop-opacity="0.61"/>
<stop offset="0.77" stop-color="white" stop-opacity="0.48"/>
<stop offset="0.86" stop-color="white" stop-opacity="0.33"/>
<stop offset="0.94" stop-color="white" stop-opacity="0.15"/>
<stop offset="1" stop-color="white" stop-opacity="0"/>
</linearGradient>
<linearGradient id="paint29_linear_1194_45002" x1="115.746" y1="87.7815" x2="180.759" y2="87.7815" gradientUnits="userSpaceOnUse">
<stop stop-color="#007947"/>
<stop offset="0.14" stop-color="#0C8046"/>
<stop offset="0.39" stop-color="#2C9445"/>
<stop offset="0.72" stop-color="#60B443"/>
<stop offset="0.84" stop-color="#74C043"/>
</linearGradient>
<linearGradient id="paint30_linear_1194_45002" x1="115.246" y1="87.7815" x2="181.259" y2="87.7815" gradientUnits="userSpaceOnUse">
<stop stop-color="white" stop-opacity="0.9"/>
<stop offset="0.22" stop-color="white" stop-opacity="0.89"/>
<stop offset="0.36" stop-color="white" stop-opacity="0.86"/>
<stop offset="0.48" stop-color="white" stop-opacity="0.8"/>
<stop offset="0.58" stop-color="white" stop-opacity="0.72"/>
<stop offset="0.68" stop-color="white" stop-opacity="0.61"/>
<stop offset="0.77" stop-color="white" stop-opacity="0.48"/>
<stop offset="0.86" stop-color="white" stop-opacity="0.33"/>
<stop offset="0.94" stop-color="white" stop-opacity="0.15"/>
<stop offset="1" stop-color="white" stop-opacity="0"/>
</linearGradient>
<linearGradient id="paint31_linear_1194_45002" x1="121.606" y1="91.157" x2="177.183" y2="91.157" gradientUnits="userSpaceOnUse">
<stop stop-color="#007947"/>
<stop offset="0.14" stop-color="#0C8046"/>
<stop offset="0.39" stop-color="#2C9445"/>
<stop offset="0.72" stop-color="#60B443"/>
<stop offset="0.84" stop-color="#74C043"/>
</linearGradient>
<linearGradient id="paint32_linear_1194_45002" x1="121.106" y1="91.157" x2="177.683" y2="91.157" gradientUnits="userSpaceOnUse">
<stop stop-color="white" stop-opacity="0.9"/>
<stop offset="0.22" stop-color="white" stop-opacity="0.89"/>
<stop offset="0.36" stop-color="white" stop-opacity="0.86"/>
<stop offset="0.48" stop-color="white" stop-opacity="0.8"/>
<stop offset="0.58" stop-color="white" stop-opacity="0.72"/>
<stop offset="0.68" stop-color="white" stop-opacity="0.61"/>
<stop offset="0.77" stop-color="white" stop-opacity="0.48"/>
<stop offset="0.86" stop-color="white" stop-opacity="0.33"/>
<stop offset="0.94" stop-color="white" stop-opacity="0.15"/>
<stop offset="1" stop-color="white" stop-opacity="0"/>
</linearGradient>
<linearGradient id="paint33_linear_1194_45002" x1="129.127" y1="93.2777" x2="171.107" y2="93.2777" gradientUnits="userSpaceOnUse">
<stop stop-color="#007947"/>
<stop offset="0.14" stop-color="#0C8046"/>
<stop offset="0.39" stop-color="#2C9445"/>
<stop offset="0.72" stop-color="#60B443"/>
<stop offset="0.84" stop-color="#74C043"/>
</linearGradient>
<linearGradient id="paint34_linear_1194_45002" x1="128.627" y1="93.2777" x2="171.607" y2="93.2777" gradientUnits="userSpaceOnUse">
<stop stop-color="white" stop-opacity="0.9"/>
<stop offset="0.22" stop-color="white" stop-opacity="0.89"/>
<stop offset="0.36" stop-color="white" stop-opacity="0.86"/>
<stop offset="0.48" stop-color="white" stop-opacity="0.8"/>
<stop offset="0.58" stop-color="white" stop-opacity="0.72"/>
<stop offset="0.68" stop-color="white" stop-opacity="0.61"/>
<stop offset="0.77" stop-color="white" stop-opacity="0.48"/>
<stop offset="0.86" stop-color="white" stop-opacity="0.33"/>
<stop offset="0.94" stop-color="white" stop-opacity="0.15"/>
<stop offset="1" stop-color="white" stop-opacity="0"/>
</linearGradient>
<linearGradient id="paint35_linear_1194_45002" x1="136.64" y1="95.4028" x2="165.028" y2="95.4028" gradientUnits="userSpaceOnUse">
<stop stop-color="#007947"/>
<stop offset="0.14" stop-color="#0C8046"/>
<stop offset="0.39" stop-color="#2C9445"/>
<stop offset="0.72" stop-color="#60B443"/>
<stop offset="0.84" stop-color="#74C043"/>
</linearGradient>
<linearGradient id="paint36_linear_1194_45002" x1="136.14" y1="95.4028" x2="165.529" y2="95.4028" gradientUnits="userSpaceOnUse">
<stop stop-color="white" stop-opacity="0.9"/>
<stop offset="0.22" stop-color="white" stop-opacity="0.89"/>
<stop offset="0.36" stop-color="white" stop-opacity="0.86"/>
<stop offset="0.48" stop-color="white" stop-opacity="0.8"/>
<stop offset="0.58" stop-color="white" stop-opacity="0.72"/>
<stop offset="0.68" stop-color="white" stop-opacity="0.61"/>
<stop offset="0.77" stop-color="white" stop-opacity="0.48"/>
<stop offset="0.86" stop-color="white" stop-opacity="0.33"/>
<stop offset="0.94" stop-color="white" stop-opacity="0.15"/>
<stop offset="1" stop-color="white" stop-opacity="0"/>
</linearGradient>
<linearGradient id="paint37_linear_1194_45002" x1="144.151" y1="97.5281" x2="158.953" y2="97.5281" gradientUnits="userSpaceOnUse">
<stop stop-color="#007947"/>
<stop offset="0.14" stop-color="#0C8046"/>
<stop offset="0.39" stop-color="#2C9445"/>
<stop offset="0.72" stop-color="#60B443"/>
<stop offset="0.84" stop-color="#74C043"/>
</linearGradient>
<linearGradient id="paint38_linear_1194_45002" x1="143.651" y1="97.5281" x2="159.453" y2="97.5281" gradientUnits="userSpaceOnUse">
<stop stop-color="white" stop-opacity="0.9"/>
<stop offset="0.22" stop-color="white" stop-opacity="0.89"/>
<stop offset="0.36" stop-color="white" stop-opacity="0.86"/>
<stop offset="0.48" stop-color="white" stop-opacity="0.8"/>
<stop offset="0.58" stop-color="white" stop-opacity="0.72"/>
<stop offset="0.68" stop-color="white" stop-opacity="0.61"/>
<stop offset="0.77" stop-color="white" stop-opacity="0.48"/>
<stop offset="0.86" stop-color="white" stop-opacity="0.33"/>
<stop offset="0.94" stop-color="white" stop-opacity="0.15"/>
<stop offset="1" stop-color="white" stop-opacity="0"/>
</linearGradient>
<linearGradient id="paint39_linear_1194_45002" x1="182.339" y1="123.011" x2="156.786" y2="103.843" gradientUnits="userSpaceOnUse">
<stop stop-color="#007947"/>
<stop offset="0.4" stop-color="#007947" stop-opacity="0.47"/>
<stop offset="0.69" stop-color="#007947" stop-opacity="0.13"/>
<stop offset="0.84" stop-color="#007947" stop-opacity="0"/>
</linearGradient>
<linearGradient id="paint40_linear_1194_45002" x1="89.6204" y1="74.1045" x2="199.053" y2="74.4865" gradientUnits="userSpaceOnUse">
<stop stop-color="#007947"/>
<stop offset="0.13" stop-color="#007947" stop-opacity="0.9"/>
<stop offset="0.38" stop-color="#007947" stop-opacity="0.63"/>
<stop offset="0.7" stop-color="#007947" stop-opacity="0.2"/>
<stop offset="0.84" stop-color="#007947" stop-opacity="0"/>
</linearGradient>
<linearGradient id="paint41_linear_1194_45002" x1="20.2274" y1="-11.423" x2="49.3501" y2="70.7264" gradientUnits="userSpaceOnUse">
<stop stop-color="white"/>
<stop offset="0.27" stop-color="white" stop-opacity="0.78"/>
<stop offset="0.62" stop-color="white" stop-opacity="0.52"/>
<stop offset="0.87" stop-color="white" stop-opacity="0.36"/>
<stop offset="1" stop-color="white" stop-opacity="0.3"/>
</linearGradient>
<linearGradient id="paint42_linear_1194_45002" x1="20.7341" y1="-11.6019" x2="49.8568" y2="70.5441" gradientUnits="userSpaceOnUse">
<stop stop-color="white"/>
<stop offset="0.27" stop-color="white" stop-opacity="0.78"/>
<stop offset="0.62" stop-color="white" stop-opacity="0.52"/>
<stop offset="0.87" stop-color="white" stop-opacity="0.36"/>
<stop offset="1" stop-color="white" stop-opacity="0.3"/>
</linearGradient>
<clipPath id="clip0_1194_45002">
<rect width="200" height="110" rx="8" fill="white"/>
</clipPath>
<clipPath id="clip1_1194_45002">
<rect width="141.617" height="76" fill="white" transform="translate(57.6666 34)"/>
</clipPath>
<clipPath id="clip2_1194_45002">
<rect width="26" height="26" fill="white" transform="translate(20.194 42)"/>
</clipPath>
<clipPath id="clip3_1194_45002">
<rect width="48.4411" height="26" fill="white" transform="translate(54.194 42)"/>
</clipPath>
<clipPath id="clip4_1194_45002">
<rect width="69.2738" height="26" fill="white" transform="translate(110.635 42)"/>
</clipPath>
</defs>
</svg>
