<svg width="102" height="16" viewBox="0 0 102 16" fill="none" xmlns="http://www.w3.org/2000/svg">
<path d="M14.318 14.7798H3.89102V5.18063H10.5663V10.9382H7.63131V9.24319H8.91178V6.87564H5.54552V13.0848H12.6635V2.91474H1.79379V14.7798H0.139282V1.21973H14.318V14.7798Z" fill="#ED0673"/>
<path d="M25.5733 6.90714L25.7641 9.37048L28.2086 9.17302L25.8003 13.0987L21.8616 8.03324L26.4167 1.42718L24.4454 0L19.3674 7.36657L19.4094 8.84848L24.9721 16L26.9377 15.8886L31.531 8.40274L30.4146 6.51222L25.5733 6.90714Z" fill="#ED0673"/>
<path d="M48.8049 1.42718L53.362 8.03324L49.4232 13.0987L47.013 9.17302L49.4576 9.37048L49.6484 6.90714L44.807 6.51222L43.6907 8.40274L48.2859 15.8886L50.2495 16L55.8142 8.84848L55.8562 7.36657L50.7762 0L48.8049 1.42718Z" fill="#ED0673"/>
<path d="M42.25 1.16514L40.0879 0.0644531L37.6911 5.00287L35.4125 0.0859585L33.2313 1.14559L36.3266 7.81812L32.9203 14.8347L35.0824 15.9354L37.6414 10.6588L40.0784 15.9159L42.2596 14.8543L39.0078 7.84353L42.25 1.16514Z" fill="#ED0673"/>
<path d="M64.2204 0.532227L62.669 2.30153L66.9512 6.24093L60.7148 15.4706H69.1057V13.0914H65.1459L70.0236 5.87143L64.2204 0.532227Z" fill="#ED0673"/>
<path d="M84.7728 0.532227L83.2213 2.30153L87.5036 6.24093L81.2672 15.4706H89.6581V13.0914H85.6983L90.5779 5.87143L84.7728 0.532227Z" fill="#ED0673"/>
<path d="M76.123 6.7984L74.891 8.06055L76.123 9.32269L77.355 8.06055L76.123 6.7984Z" fill="#ED0673"/>
<path d="M76.0021 0.55957L70.9928 8.2018L76.0498 15.4432L81.2671 7.85576L76.0002 0.55957H76.0021ZM76.0403 11.6153L73.6873 8.14119L76.0899 4.68274L78.5421 7.85576L76.0403 11.6172V11.6153Z" fill="#ED0673"/>
<path d="M59.9457 6.10994L57.954 8.15039L59.9457 10.1908L61.9373 8.15039L59.9457 6.10994Z" fill="#ED0673"/>
<path d="M100.9 8.68823L99.6767 8.84855L99.9668 1.6071L97.8142 0.938477L92.2515 10.2777L93.3907 12.0783L97.2398 11.57L97.1043 14.9639L99.4248 15.0616L99.5775 11.2611L101.194 11.048L100.898 8.68823H100.9ZM97.339 9.15744L95.4975 9.39987L97.4631 6.09977L97.3409 9.15549L97.339 9.15744Z" fill="#ED0673"/>
</svg>
