<svg width="160" height="122" viewBox="0 0 160 122" fill="none" xmlns="http://www.w3.org/2000/svg">
<rect width="160" height="122" rx="8" fill="black"/>
<path d="M50.8525 52.048C50.8525 52.96 50.6965 53.788 50.3845 54.532C50.0965 55.276 49.6765 55.912 49.1245 56.44C48.5965 56.992 47.9485 57.412 47.1805 57.7C46.4365 58.012 45.6205 58.168 44.7325 58.168H23.8165V29.26H44.7325C45.6205 29.26 46.4365 29.416 47.1805 29.728C47.9485 30.016 48.5965 30.436 49.1245 30.988C49.6765 31.516 50.0965 32.164 50.3845 32.932C50.6965 33.676 50.8525 34.492 50.8525 35.38V52.048ZM43.6525 51.688V35.812H31.0165V51.688H43.6525ZM82.5896 58.168H74.7056L72.7256 51.688H62.3936L60.2336 58.168H52.3496L61.9616 29.26H73.6616L82.5896 58.168ZM70.9256 45.712L69.3776 40.528C69.1136 39.616 68.8376 38.668 68.5496 37.684C68.2856 36.676 68.0576 35.716 67.8656 34.804C67.6496 35.716 67.3856 36.676 67.0736 37.684C66.7616 38.668 66.4616 39.616 66.1736 40.528L64.4096 45.712H70.9256ZM98.186 58.168H90.986V46.9L78.998 29.296H87.638L94.586 39.844L101.534 29.296H110.174L98.186 46.9V58.168ZM136.03 58.168H112.054V48.556C112.054 46.996 112.486 45.736 113.35 44.776C114.238 43.816 115.438 43.204 116.95 42.94L129.19 40.78V35.74H119.614V39.7H112.414V34.516C112.414 32.956 112.894 31.696 113.854 30.736C114.838 29.752 116.11 29.26 117.67 29.26H131.134C132.694 29.26 133.954 29.752 134.914 30.736C135.898 31.696 136.39 32.956 136.39 34.516V41.104C136.39 42.664 135.958 43.924 135.094 44.884C134.23 45.844 133.03 46.456 131.494 46.72L119.254 48.88V51.688H136.03V58.168Z" fill="white"/>
<path d="M54.7 88.968C54.7 89.368 54.62 89.736 54.46 90.072C54.316 90.408 54.116 90.696 53.86 90.936C53.62 91.192 53.332 91.392 52.996 91.536C52.66 91.68 52.3 91.752 51.916 91.752H43.036C42.652 91.752 42.292 91.68 41.956 91.536C41.62 91.392 41.324 91.192 41.068 90.936C40.828 90.696 40.628 90.408 40.468 90.072C40.324 89.736 40.252 89.368 40.252 88.968V86.088H43.564V88.344C43.564 88.472 43.604 88.576 43.684 88.656C43.764 88.736 43.868 88.776 43.996 88.776H50.956C51.084 88.776 51.188 88.736 51.268 88.656C51.348 88.576 51.388 88.472 51.388 88.344V84.072H42.796C42.412 84.072 42.052 84 41.716 83.856C41.38 83.712 41.084 83.52 40.828 83.28C40.588 83.024 40.388 82.728 40.228 82.392C40.084 82.056 40.012 81.688 40.012 81.288V75.624C40.012 75.224 40.084 74.856 40.228 74.52C40.388 74.184 40.588 73.896 40.828 73.656C41.084 73.4 41.38 73.2 41.716 73.056C42.052 72.912 42.412 72.84 42.796 72.84H51.916C52.3 72.84 52.66 72.912 52.996 73.056C53.332 73.2 53.62 73.4 53.86 73.656C54.116 73.896 54.316 74.184 54.46 74.52C54.62 74.856 54.7 75.224 54.7 75.624V88.968ZM51.388 81.096V76.248C51.388 76.12 51.348 76.016 51.268 75.936C51.188 75.856 51.084 75.816 50.956 75.816H43.756C43.628 75.816 43.524 75.856 43.444 75.936C43.364 76.016 43.324 76.12 43.324 76.248V80.664C43.324 80.792 43.364 80.896 43.444 80.976C43.524 81.056 43.628 81.096 43.756 81.096H51.388ZM60.1855 94.152H56.7055L64.5055 71.52H67.9855L60.1855 94.152ZM75.2702 92.112H71.8622L78.8222 75.816H69.2222V72.84H82.2302V75.816L75.2702 92.112ZM87.3289 93.552C86.2889 91.792 85.5609 90 85.1449 88.176C84.7289 86.352 84.5209 84.56 84.5209 82.8C84.5209 81.056 84.7289 79.28 85.1449 77.472C85.5609 75.648 86.2889 73.864 87.3289 72.12H90.8089C90.2969 72.984 89.8489 73.88 89.4649 74.808C89.0969 75.72 88.7929 76.632 88.5529 77.544C88.3129 78.456 88.1369 79.36 88.0249 80.256C87.9129 81.136 87.8569 81.984 87.8569 82.8C87.8569 83.616 87.9129 84.472 88.0249 85.368C88.1369 86.264 88.3129 87.176 88.5529 88.104C88.7929 89.016 89.0969 89.928 89.4649 90.84C89.8489 91.768 90.2969 92.672 90.8089 93.552H87.3289ZM112.671 91.824H91.7914V88.896H100.671V85.824H93.7354V72.6H110.727V75.528H97.0474V77.76H110.487V80.64H97.0474V82.896H111.135V85.824H104.031V88.896H112.671V91.824ZM113.654 93.552C114.166 92.672 114.606 91.768 114.974 90.84C115.358 89.928 115.67 89.016 115.91 88.104C116.15 87.176 116.326 86.264 116.438 85.368C116.55 84.472 116.606 83.616 116.606 82.8C116.606 81.984 116.55 81.136 116.438 80.256C116.326 79.36 116.15 78.456 115.91 77.544C115.67 76.632 115.358 75.72 114.974 74.808C114.606 73.88 114.166 72.984 113.654 72.12H117.134C118.174 73.864 118.902 75.648 119.318 77.472C119.734 79.28 119.942 81.056 119.942 82.8C119.942 84.56 119.734 86.352 119.318 88.176C118.902 90 118.174 91.792 117.134 93.552H113.654Z" fill="white"/>
</svg>
