<svg width="126" height="16" viewBox="0 0 126 16" fill="none" xmlns="http://www.w3.org/2000/svg">
<path d="M11.1449 13.022H8.63893L7.16893 7.1L5.69893 13.022H3.19293L1.27493 5.294H3.22093L4.56493 11.202L5.96493 5.294H8.37293L9.77293 11.202L11.1169 5.294H13.0629L11.1449 13.022ZM16.0199 13.022H14.1159V5.294H16.0199V13.022ZM16.0199 3.684H14.1159V1.5H16.0199V3.684ZM22.6239 13.022H20.3279C20.1133 13.022 19.9079 12.98 19.7119 12.896C19.5159 12.8213 19.3433 12.7093 19.1939 12.56C19.0539 12.42 18.9419 12.252 18.8579 12.056C18.7739 11.86 18.7319 11.65 18.7319 11.426V6.974H17.2759V5.294H18.7319V2.13H20.6359V5.294H22.9039V6.974H20.6359V11.09C20.6359 11.1647 20.6593 11.2253 20.7059 11.272C20.7526 11.3187 20.8086 11.342 20.8739 11.342H22.6239V13.022ZM31.6671 13.022H29.7631V7.226C29.7631 7.15133 29.7397 7.09067 29.6931 7.044C29.6464 6.99733 29.5904 6.974 29.5251 6.974H26.1091V13.022H24.2051V1.5H26.1091V5.294H30.0711C30.2857 5.294 30.4911 5.336 30.6871 5.42C30.8831 5.49467 31.0511 5.60667 31.1911 5.756C31.3404 5.896 31.4571 6.064 31.5411 6.26C31.6251 6.456 31.6671 6.666 31.6671 6.89V13.022Z" fill="#999999"/>
<path d="M49.195 13.9325H40.0713V5.53317H45.9122V10.571H43.3441V9.08791H44.4645V7.01631H41.519V12.4493H47.7473V3.55052H38.2363V13.9325H36.7886V2.06738H49.195V13.9325Z" fill="#999999"/>
<path d="M59.0434 7.04374L59.2104 9.19917L61.3493 9.02639L59.2421 12.4614L55.7957 8.02908L59.7814 2.24878L58.0565 1L53.6133 7.44575L53.65 8.74242L58.5174 15L60.2373 14.9025L64.2564 8.3524L63.2796 6.69819L59.0434 7.04374Z" fill="#999999"/>
<path d="M79.3712 2.24878L83.3586 8.02908L79.9122 12.4614L77.8033 9.02639L79.9423 9.19917L80.1093 7.04374L75.8731 6.69819L74.8962 8.3524L78.917 14.9025L80.6352 15L85.5043 8.74242L85.541 7.44575L81.0961 1L79.3712 2.24878Z" fill="#999999"/>
<path d="M73.6356 2.01974L71.7437 1.05664L69.6465 5.37776L67.6528 1.07546L65.7442 2.00263L68.4526 7.8411L65.472 13.9806L67.3639 14.9437L69.6031 10.3267L71.7354 14.9266L73.6439 13.9977L70.7986 7.86334L73.6356 2.01974Z" fill="#999999"/>
<path d="M92.8596 1.46484L91.5021 3.01299L95.249 6.45996L89.7922 14.536H97.1342V12.4541H93.6694L97.9374 6.13664L92.8596 1.46484Z" fill="#999999"/>
<path d="M110.843 1.46484L109.485 3.01299L113.232 6.45996L107.776 14.536H115.118V12.4541H111.653L115.922 6.13664L110.843 1.46484Z" fill="#999999"/>
<path d="M103.274 6.94835L102.196 8.05273L103.274 9.15711L104.352 8.05273L103.274 6.94835Z" fill="#999999"/>
<path d="M103.169 1.48926L98.7855 8.17621L103.21 14.5125L107.776 7.87342L103.167 1.48926H103.169ZM103.202 11.163L101.143 8.12318L103.245 5.09703L105.391 7.87342L103.202 11.1647V11.163Z" fill="#999999"/>
<path d="M89.1193 6.34547L87.3766 8.13086L89.1193 9.91625L90.862 8.13086L89.1193 6.34547Z" fill="#999999"/>
<path d="M124.954 8.60233L123.884 8.7426L124.138 2.40633L122.254 1.82129L117.387 9.99309L118.384 11.5686L121.752 11.1238L121.633 14.0935L123.664 14.1791L123.797 10.8535L125.211 10.6671L124.953 8.60233H124.954ZM121.838 9.01288L120.227 9.225L121.947 6.33742L121.84 9.01117L121.838 9.01288Z" fill="#999999"/>
</svg>
