<svg width="160" height="122" viewBox="0 0 160 122" fill="none" xmlns="http://www.w3.org/2000/svg">
<rect width="160" height="122" rx="8" fill="black"/>
<path d="M53.876 52.048C53.876 52.96 53.72 53.788 53.408 54.532C53.12 55.276 52.7 55.912 52.148 56.44C51.62 56.992 50.972 57.412 50.204 57.7C49.46 58.012 48.644 58.168 47.756 58.168H26.84V29.26H47.756C48.644 29.26 49.46 29.416 50.204 29.728C50.972 30.016 51.62 30.436 52.148 30.988C52.7 31.516 53.12 32.164 53.408 32.932C53.72 33.676 53.876 34.492 53.876 35.38V52.048ZM46.676 51.688V35.812H34.04V51.688H46.676ZM85.613 58.168H77.729L75.749 51.688H65.417L63.257 58.168H55.373L64.985 29.26H76.685L85.613 58.168ZM73.949 45.712L72.401 40.528C72.137 39.616 71.861 38.668 71.573 37.684C71.309 36.676 71.081 35.716 70.889 34.804C70.673 35.716 70.409 36.676 70.097 37.684C69.785 38.668 69.485 39.616 69.197 40.528L67.433 45.712H73.949ZM101.209 58.168H94.0095V46.9L82.0215 29.296H90.6615L97.6095 39.844L104.557 29.296H113.197L101.209 46.9V58.168ZM132.711 58.168H125.151V35.74H121.695V29.26H132.711V58.168Z" fill="white"/>
<path d="M53.2586 88.968C53.2586 89.368 53.1786 89.736 53.0186 90.072C52.8746 90.408 52.6746 90.696 52.4186 90.936C52.1786 91.192 51.8906 91.392 51.5546 91.536C51.2186 91.68 50.8586 91.752 50.4746 91.752H41.5946C41.2106 91.752 40.8506 91.68 40.5146 91.536C40.1786 91.392 39.8826 91.192 39.6266 90.936C39.3866 90.696 39.1866 90.408 39.0266 90.072C38.8826 89.736 38.8106 89.368 38.8106 88.968V86.088H42.1226V88.344C42.1226 88.472 42.1626 88.576 42.2426 88.656C42.3226 88.736 42.4266 88.776 42.5546 88.776H49.5146C49.6426 88.776 49.7466 88.736 49.8266 88.656C49.9066 88.576 49.9466 88.472 49.9466 88.344V84.072H41.3546C40.9706 84.072 40.6106 84 40.2746 83.856C39.9386 83.712 39.6426 83.52 39.3866 83.28C39.1466 83.024 38.9466 82.728 38.7866 82.392C38.6426 82.056 38.5706 81.688 38.5706 81.288V75.624C38.5706 75.224 38.6426 74.856 38.7866 74.52C38.9466 74.184 39.1466 73.896 39.3866 73.656C39.6426 73.4 39.9386 73.2 40.2746 73.056C40.6106 72.912 40.9706 72.84 41.3546 72.84H50.4746C50.8586 72.84 51.2186 72.912 51.5546 73.056C51.8906 73.2 52.1786 73.4 52.4186 73.656C52.6746 73.896 52.8746 74.184 53.0186 74.52C53.1786 74.856 53.2586 75.224 53.2586 75.624V88.968ZM49.9466 81.096V76.248C49.9466 76.12 49.9066 76.016 49.8266 75.936C49.7466 75.856 49.6426 75.816 49.5146 75.816H42.3146C42.1866 75.816 42.0826 75.856 42.0026 75.936C41.9226 76.016 41.8826 76.12 41.8826 76.248V80.664C41.8826 80.792 41.9226 80.896 42.0026 80.976C42.0826 81.056 42.1866 81.096 42.3146 81.096H49.9466ZM58.7441 94.152H55.2641L63.0641 71.52H66.5441L58.7441 94.152ZM83.2368 88.968C83.2368 89.368 83.1568 89.736 82.9968 90.072C82.8528 90.408 82.6528 90.696 82.3968 90.936C82.1568 91.192 81.8688 91.392 81.5328 91.536C81.1968 91.68 80.8368 91.752 80.4528 91.752H71.3328C70.9488 91.752 70.5888 91.68 70.2528 91.536C69.9168 91.392 69.6208 91.192 69.3648 90.936C69.1248 90.696 68.9248 90.408 68.7648 90.072C68.6208 89.736 68.5488 89.368 68.5488 88.968V75.624C68.5488 75.224 68.6208 74.856 68.7648 74.52C68.9248 74.184 69.1248 73.896 69.3648 73.656C69.6208 73.4 69.9168 73.2 70.2528 73.056C70.5888 72.912 70.9488 72.84 71.3328 72.84H80.2128C80.5968 72.84 80.9568 72.912 81.2928 73.056C81.6288 73.2 81.9168 73.4 82.1568 73.656C82.4128 73.896 82.6128 74.184 82.7568 74.52C82.9168 74.856 82.9968 75.224 82.9968 75.624V78.024H79.6848V76.248C79.6848 76.12 79.6448 76.016 79.5648 75.936C79.4848 75.856 79.3808 75.816 79.2528 75.816H72.2928C72.1648 75.816 72.0608 75.856 71.9808 75.936C71.9008 76.016 71.8608 76.12 71.8608 76.248V80.28H80.4528C80.8368 80.28 81.1968 80.352 81.5328 80.496C81.8688 80.64 82.1568 80.84 82.3968 81.096C82.6528 81.336 82.8528 81.624 82.9968 81.96C83.1568 82.296 83.2368 82.664 83.2368 83.064V88.968ZM79.4928 88.776C79.6208 88.776 79.7248 88.736 79.8048 88.656C79.8848 88.576 79.9248 88.472 79.9248 88.344V83.688C79.9248 83.56 79.8848 83.456 79.8048 83.376C79.7248 83.296 79.6208 83.256 79.4928 83.256H71.8608V88.344C71.8608 88.472 71.9008 88.576 71.9808 88.656C72.0608 88.736 72.1648 88.776 72.2928 88.776H79.4928ZM88.7703 93.552C87.7303 91.792 87.0023 90 86.5863 88.176C86.1703 86.352 85.9623 84.56 85.9623 82.8C85.9623 81.056 86.1703 79.28 86.5863 77.472C87.0023 75.648 87.7303 73.864 88.7703 72.12H92.2503C91.7383 72.984 91.2903 73.88 90.9063 74.808C90.5383 75.72 90.2343 76.632 89.9943 77.544C89.7543 78.456 89.5783 79.36 89.4663 80.256C89.3543 81.136 89.2983 81.984 89.2983 82.8C89.2983 83.616 89.3543 84.472 89.4663 85.368C89.5783 86.264 89.7543 87.176 89.9943 88.104C90.2343 89.016 90.5383 89.928 90.9063 90.84C91.2903 91.768 91.7383 92.672 92.2503 93.552H88.7703ZM112.217 93.048H95.1288V84.984H112.217V93.048ZM114.113 83.208H93.2328V80.328H108.833V75H94.9608V72.12H112.145V80.328H114.113V83.208ZM108.905 90.168V87.816H98.4408V90.168H108.905ZM115.095 93.552C115.607 92.672 116.047 91.768 116.415 90.84C116.799 89.928 117.111 89.016 117.351 88.104C117.591 87.176 117.767 86.264 117.879 85.368C117.991 84.472 118.047 83.616 118.047 82.8C118.047 81.984 117.991 81.136 117.879 80.256C117.767 79.36 117.591 78.456 117.351 77.544C117.111 76.632 116.799 75.72 116.415 74.808C116.047 73.88 115.607 72.984 115.095 72.12H118.575C119.615 73.864 120.343 75.648 120.759 77.472C121.175 79.28 121.383 81.056 121.383 82.8C121.383 84.56 121.175 86.352 120.759 88.176C120.343 90 119.615 91.792 118.575 93.552H115.095Z" fill="white"/>
</svg>
